{
.formatVersion = 3;
classes = (
{
code = "one two three B D F I J P S T V W X Y Igrave Iacute Icircumflex Idieresis Eth Yacute Thorn eth Dcaron dcaron Dcroat Itilde Imacron Ibreve Iogonek Idotaccent IJ Jcircumflex lcaron Sacute Scircumflex Scaron Tcaron Tbar Wcircumflex Ycircumflex Ydieresis uni0218 uni021A uni0402 uni0405 uni0406 uni0407 uni0408 uni0409 uni040A uni040E uni0411 uni0412 uni0414 uni0417 uni0420 uni0422 uni0423 uni0424 uni0425 uni042A uni042B uni042C uni042D uni042E Wgrave Wacute Wdieresis Ygrave G_r G_s f_f f_j g_j j_j l_l q_j r.alt r.fina r.init racute.alt racute.fina racute.init rcaron.alt rcaron.fina rcaron.init s.alt s.fina s.init s_s sacute.alt sacute.fina sacute.init scaron.alt scaron.fina scaron.init scedilla.alt scedilla.fina scedilla.init scircumflex.alt scircumflex.fina scircumflex.init t_h t_t uni0157.alt uni0157.fina uni0157.init uni0219.alt uni0219.fina uni0219.init uni0412044F uni0422044F uni0433.alt uni0433.fina uni0433.init uni0436.alt uni0436.fina uni0436.init uni0436.ss02.alt uni0436.ss02.fina uni0436.ss02.init uni0437.alt uni0437.fina uni0437.init uni043B.alt uni043B.init uni043C.alt uni043C.init uni0445.alt uni0445.fina uni0445.init uni0447.alt uni0447.fina uni0447.init uni044A.alt uni044A.fina uni044A.init uni044D.alt uni044D.fina uni044D.init uni044F.alt uni044F.init uni0453.alt uni0453.fina uni0453.init uni0455.alt uni0455.fina uni0455.init uni0459.alt uni0459.init uni0491.alt uni0491.fina uni0491.init x.alt x.fina x.init y_j z.alt z.fina z.init zacute.alt zacute.fina zacute.init zcaron.alt zcaron.fina zcaron.init zdotaccent.alt zdotaccent.fina zdotaccent.init";
name = aalt;
},
{

glyphs = (
{
glyphname = .notdef;
layers = (
{
hints = (
{
horizontal = 1;
place = (-18,65);
type = Stem;
},
{
horizontal = 1;
place = (641,67);
type = Stem;
},
{
place = (94,76);
type = Stem;
},
{
place = (455,66);
type = Stem;
}
);
layerId = "2F54779E-88EF-414D-815E-FD45B9A14596";
shapes = (
{
closed = 1;
nodes = (
(519,677,o),
(503,708,o),
(471,708,c),
(142,709,l),
(109,709,o),
(93,678,o),
(93,647,cs),
(93,632,o),
(94,593,o),
(94,539,cs),
(94,464,o),
(92,358,o),
(84,247,cs),
(79,177,o),
(73,108,o),
(73,47,cs),
(73,4,o),
(106,-17,o),
(140,-17,c),
(435,-18,l),
(469,-18,o),
(503,4,o),
(503,48,cs),
(503,78,o),
(508,154,o),
(514,238,cs),
(520,318,o),
(521,401,o),
(521,471,cs),
(521,557,o),
(519,625,o),
(519,645,cs)
);
},
{
closed = 1;
nodes = (
(437,178,o),
(432,109,o),
(431,48,c),
(431,47,l),
(151,48,l),
(151,49,l),
(151,79,o),
(152,154,o),
(158,238,cs),
(165,333,o),
(170,440,o),
(170,530,cs),
(170,572,o),
(169,611,o),
(166,642,c),
(446,641,l),
(452,612,o),
(455,569,o),
(455,516,cs),
(455,439,o),
(449,342,o),
(442,247,cs)
);
},
{
closed = 1;
nodes = (
(362,467,o),
(356,464,o),
(349,460,cs),
(334,451,o),
(314,422,o),
(296,386,c),
(291,407,o),
(288,428,o),
(287,446,cs),
(286,460,o),
(278,468,o),
(268,468,c),
(267,468,o),
(267,468,o),
(266,468,c),
(251,467,o),
(243,460,o),
(243,448,cs),
(243,446,o),
(243,439,o),
(244,430,cs),
(247,401,o),
(256,365,o),
(271,329,c),
(247,276,o),
(240,270,o),
(236,270,cs),
(232,270,o),
(228,274,o),
(225,277,cs),
(220,282,o),
(216,282,o),
(210,282,cs),
(200,282,o),
(193,273,o),
(193,263,cs),
(193,256,o),
(196,249,o),
(202,243,cs),
(211,235,o),
(222,231,o),
(236,231,cs),
(262,231,o),
(280,252,o),
(296,282,c),
(307,264,o),
(320,247,o),
(336,231,cs),
(343,224,o),
(349,218,o),
(357,218,cs),
(372,218,o),
(379,230,o),
(379,240,cs),
(379,247,o),
(377,252,o),
(370,257,cs),
(347,273,o),
(329,298,o),
(316,327,c),
(336,375,o),
(357,411,o),
(379,430,cs),
(386,436,o),
(390,441,o),
(390,447,cs),
(390,460,o),
(380,467,o),
(369,467,cs)
);
}
);
width = 600;
}
);
},
{
glyphname = exclam;
layers = (
{
hints = (
{
horizontal = 1;
place = (-10,95);
type = Stem;
},
{
place = (87,95);
type = Stem;
},
{
place = (112,66);
type = Stem;
}
);
layerId = "2F54779E-88EF-414D-815E-FD45B9A14596";
shapes = (
{
closed = 1;
nodes = (
(153,155,o),
(167,168,o),
(169,190,cs),
(175,258,o),
(178,355,o),
(178,449,cs),
(178,536,o),
(175,621,o),
(170,682,cs),
(168,700,o),
(155,711,o),
(138,711,cs),
(117,711,o),
(103,693,o),
(105,670,cs),
(109,610,o),
(112,527,o),
(112,442,cs),
(112,303,o),
(103,205,o),
(103,192,cs),
(103,171,o),
(115,155,o),
(136,155,cs)
);
},
{
closed = 1;
nodes = (
(161,-10,o),
(182,11,o),
(182,38,cs),
(182,64,o),
(161,85,o),
(135,85,cs),
(108,85,o),
(87,64,o),
(87,38,cs),
(87,11,o),
(108,-10,o),
(135,-10,cs)
);
}
);
width = 241;
}
);
unicode = 33;
},
{
glyphname = quotedbl;
layers = (
{
hints = (
{
horizontal = 1;
place = (534,215);
type = Stem;
},
{
place = (28,206);
type = Stem;
},
{
place = (33,69);
type = Stem;
},
{
place = (163,69);
type = Stem;
}
);
layerId = "2F54779E-88EF-414D-815E-FD45B9A14596";
shapes = (
{
closed = 1;
nodes = (
(73,534,o),
(87,545,o),
(89,567,cs),
(104,710,ls),
(107,736,o),
(91,749,o),
(75,749,cs),
(60,749,o),
(44,738,o),
(42,715,cs),
(28,573,ls),
(26,549,o),
(43,534,o),
(59,534,cs)
);
},
{
closed = 1;
nodes = (
(203,534,o),
(217,545,o),
(219,567,cs),
(234,710,ls),
(237,736,o),
(221,749,o),
(205,749,cs),
(190,749,o),
(174,738,o),
(172,715,cs),
(158,573,ls),
(156,549,o),
(173,534,o),
(189,534,cs)
);
}
);
width = 265;
}
);
leftKerningGroup = quotedbl2;
rightKerningGroup = quotedbl;
unicode = 34;
},
{
glyphname = numbersign;
layers = (
{
hints = (
{
horizontal = 1;
place = (226,52);
type = Stem;
},
{
horizontal = 1;
place = (372,55);
type = Stem;
},
{
place = (51,416);
type = Stem;
}
);
layerId = "2F54779E-88EF-414D-815E-FD45B9A14596";
shapes = (
{
closed = 1;
nodes = (
(434,372,ls),
(456,372,o),
(467,386,o),
(467,400,cs),
(467,414,o),
(456,427,o),
(435,427,cs),
(391,427,l),
(403,465,o),
(415,501,o),
(426,531,cs),
(428,537,o),
(429,542,o),
(429,546,cs),
(429,565,o),
(414,576,o),
(399,576,cs),
(387,576,o),
(375,569,o),
(370,554,cs),
(356,515,o),
(343,472,o),
(329,427,c),
(302,427,o),
(274,427,o),
(247,426,c),
(259,465,o),
(271,501,o),
(283,531,cs),
(285,537,o),
(286,542,o),
(286,546,cs),
(286,565,o),
(271,576,o),
(256,576,cs),
(244,576,o),
(232,569,o),
(227,554,cs),
(213,515,o),
(199,472,o),
(186,426,c),
(112,426,ls),
(89,426,o),
(78,412,o),
(78,399,cs),
(78,386,o),
(88,374,o),
(108,374,cs),
(125,374,o),
(146,374,o),
(170,373,c),
(161,341,o),
(151,309,o),
(142,278,c),
(82,278,ls),
(62,278,o),
(51,265,o),
(51,251,cs),
(51,239,o),
(61,226,o),
(84,226,cs),
(127,226,l),
(113,178,o),
(100,135,o),
(88,101,cs),
(87,97,o),
(86,93,o),
(86,90,cs),
(86,72,o),
(102,60,o),
(117,60,cs),
(129,60,o),
(140,67,o),
(145,82,cs),
(157,118,o),
(171,169,o),
(188,226,c),
(270,226,l),
(256,178,o),
(243,135,o),
(231,101,cs),
(230,97,o),
(229,93,o),
(229,90,cs),
(229,72,o),
(245,60,o),
(260,60,cs),
(272,60,o),
(283,67,o),
(288,82,cs),
(300,118,o),
(314,169,o),
(331,226,c),
(406,226,ls),
(427,226,o),
(438,239,o),
(438,252,cs),
(438,265,o),
(427,278,o),
(406,278,cs),
(346,278,l),
(355,309,o),
(364,341,o),
(374,372,c)
);
},
{
closed = 1;
nodes = (
(203,278,l),
(212,309,o),
(221,341,o),
(231,373,c),
(258,373,o),
(286,373,o),
(313,372,c),
(303,341,o),
(294,309,o),
(285,278,c)
);
}
);
width = 493;
}
);
unicode = 35;
},
{
glyphname = dollar;
layers = (
{
hints = (
{
horizontal = 1;
place = (-8,21);
target = up;
type = BottomGhost;
},
{
horizontal = 1;
place = (-5,21);
target = up;
type = BottomGhost;
},
{
horizontal = 1;
place = (704,-20);
target = down;
type = TopGhost;
},
{
place = (24,62);
type = Stem;
},
{
place = (75,62);
type = Stem;
},
{
place = (179,61);
type = Stem;
},
{
place = (183,61);
type = Stem;
},
{
place = (187,61);
type = Stem;
},
{
place = (327,64);
type = Stem;
}
);
layerId = "2F54779E-88EF-414D-815E-FD45B9A14596";
shapes = (
{
closed = 1;
nodes = (
(391,284,o),
(316,339,o),
(248,388,c),
(248,412,ls),
(248,472,o),
(247,531,o),
(246,583,c),
(268,576,o),
(286,562,o),
(306,537,cs),
(315,526,o),
(325,521,o),
(335,521,cs),
(350,521,o),
(363,533,o),
(363,550,cs),
(363,558,o),
(359,567,o),
(352,576,cs),
(323,613,o),
(287,637,o),
(245,646,c),
(244,653,o),
(244,660,o),
(244,667,c),
(243,692,o),
(229,704,o),
(214,704,cs),
(198,704,o),
(182,690,o),
(183,665,c),
(183,659,o),
(183,654,o),
(184,648,c),
(117,638,o),
(75,588,o),
(75,522,cs),
(75,444,o),
(129,397,o),
(187,354,c),
(186,248,o),
(184,140,o),
(181,54,c),
(125,61,o),
(86,106,o),
(86,169,cs),
(86,185,o),
(88,199,o),
(88,211,cs),
(88,230,o),
(75,240,o),
(60,240,cs),
(46,240,o),
(31,231,o),
(27,210,cs),
(25,199,o),
(24,186,o),
(24,175,cs),
(24,72,o),
(87,1,o),
(180,-8,c),
(180,-13,o),
(179,-19,o),
(179,-24,c),
(178,-50,o),
(193,-64,o),
(209,-64,cs),
(224,-64,o),
(239,-52,o),
(240,-29,cs),
(241,-21,o),
(241,-13,o),
(241,-5,c),
(328,13,o),
(391,88,o),
(391,182,cs)
);
},
{
closed = 1;
nodes = (
(137,554,o),
(154,578,o),
(185,585,c),
(186,539,o),
(187,487,o),
(187,433,c),
(158,459,o),
(137,486,o),
(137,521,cs)
);
},
{
closed = 1;
nodes = (
(245,131,o),
(247,220,o),
(248,309,c),
(292,275,o),
(327,237,o),
(327,183,cs),
(327,121,o),
(294,76,o),
(243,60,c)
);
}
);
width = 417;
}
);
unicode = 36;
},
{
glyphname = percent;
layers = (
{
hints = (
{
horizontal = 1;
place = (7,53);
type = Stem;
},
{
horizontal = 1;
place = (-12,21);
target = up;
type = BottomGhost;
},
{
horizontal = 1;
place = (147,53);
type = Stem;
},
{
horizontal = 1;
place = (447,53);
type = Stem;
},
{
horizontal = 1;
place = (587,53);
type = Stem;
},
{
place = (36,55);
type = Stem;
},
{
place = (180,54);
type = Stem;
},
{
place = (266,55);
type = Stem;
},
{
place = (410,54);
type = Stem;
}
);
layerId = "2F54779E-88EF-414D-815E-FD45B9A14596";
shapes = (
{
closed = 1;
nodes = (
(80,-12,o),
(91,-7,o),
(100,5,cs),
(203,143,o),
(338,466,o),
(448,607,cs),
(455,616,o),
(459,626,o),
(459,634,cs),
(459,651,o),
(447,663,o),
(432,663,cs),
(423,663,o),
(413,659,o),
(404,648,cs),
(286,503,o),
(146,170,o),
(62,54,cs),
(46,32,o),
(43,25,o),
(43,17,cs),
(43,1,o),
(55,-12,o),
(71,-12,cs)
);
},
{
closed = 1;
nodes = (
(187,447,o),
(234,495,o),
(234,555,cs),
(234,605,o),
(199,640,o),
(147,640,cs),
(85,640,o),
(36,593,o),
(36,533,cs),
(36,482,o),
(72,447,o),
(126,447,cs)
);
},
{
closed = 1;
nodes = (
(106,500,o),
(91,513,o),
(91,535,cs),
(91,564,o),
(114,587,o),
(144,587,cs),
(166,587,o),
(180,574,o),
(180,554,cs),
(180,525,o),
(157,500,o),
(129,500,cs)
);
},
{
closed = 1;
nodes = (
(417,7,o),
(464,55,o),
(464,115,cs),
(464,165,o),
(429,200,o),
(377,200,cs),
(315,200,o),
(266,153,o),
(266,93,cs),
(266,42,o),
(302,7,o),
(356,7,cs)
);
},
{
closed = 1;
nodes = (
(336,60,o),
(321,73,o),
(321,95,cs),
(321,124,o),
(344,147,o),
(374,147,cs),
(396,147,o),
(410,134,o),
(410,114,cs),
(410,85,o),
(387,60,o),
(359,60,cs)
);
}
);
width = 498;
}
);
unicode = 37;
},
{
glyphname = ampersand;
layers = (
{
hints = (
{
horizontal = 1;
place = (-16,62);
type = Stem;
},
{
horizontal = 1;
place = (597,60);
type = Stem;
},
{
place = (52,68);
type = Stem;
},
{
place = (154,63);
type = Stem;
},
{
place = (285,60);
type = Stem;
},
{
place = (438,61);
type = Stem;
}
);
layerId = "2F54779E-88EF-414D-815E-FD45B9A14596";
shapes = (
{
closed = 1;
nodes = (
(490,57,o),
(460,77,o),
(432,98,c),
(469,149,o),
(494,213,o),
(498,286,cs),
(499,296,o),
(499,307,o),
(499,317,cs),
(499,327,o),
(499,337,o),
(498,346,cs),
(497,367,o),
(482,378,o),
(468,378,cs),
(453,378,o),
(438,365,o),
(438,339,cs),
(438,322,o),
(438,302,o),
(437,281,cs),
(434,226,o),
(415,176,o),
(387,137,c),
(320,201,o),
(269,279,o),
(241,364,c),
(294,429,o),
(345,495,o),
(345,563,cs),
(345,624,o),
(324,657,o),
(270,657,cs),
(203,657,o),
(154,605,o),
(154,512,cs),
(154,465,o),
(161,419,o),
(173,375,c),
(113,305,o),
(52,229,o),
(52,150,cs),
(52,48,o),
(117,-16,o),
(223,-16,cs),
(282,-16,o),
(340,8,o),
(388,51,c),
(418,26,o),
(449,5,o),
(481,-13,cs),
(498,-22,o),
(506,-22,o),
(512,-22,cs),
(531,-22,o),
(544,-8,o),
(544,8,c),
(545,20,o),
(538,34,o),
(522,41,c)
);
},
{
closed = 1;
nodes = (
(217,567,o),
(241,597,o),
(263,597,cs),
(279,597,o),
(285,586,o),
(285,558,cs),
(285,520,o),
(259,479,o),
(223,435,c),
(219,460,o),
(217,486,o),
(217,511,cs)
);
},
{
closed = 1;
nodes = (
(158,46,o),
(120,87,o),
(120,156,cs),
(120,205,o),
(154,256,o),
(196,309,c),
(230,226,o),
(283,152,o),
(344,91,c),
(309,63,o),
(268,46,o),
(229,46,cs)
);
}
);
width = 539;
}
);
unicode = 38;
},
{
glyphname = quotesingle;
layers = (
{
hints = (
{
horizontal = 1;
place = (534,215);
type = Stem;
},
{
place = (28,76);
type = Stem;
},
{
place = (33,69);
type = Stem;
}
);
layerId = "2F54779E-88EF-414D-815E-FD45B9A14596";
shapes = (
{
closed = 1;
nodes = (
(104,710,ls),
(107,736,o),
(91,749,o),
(75,749,cs),
(60,749,o),
(44,738,o),
(42,715,cs),
(28,573,ls),
(26,549,o),
(43,534,o),
(59,534,cs),
(73,534,o),
(87,545,o),
(89,567,cs)
);
}
);
width = 135;
}
);
leftKerningGroup = quotedbl2;
rightKerningGroup = quotedbl;
unicode = 39;
},
{
glyphname = parenleft;
layers = (
{
hints = (
{
horizontal = 1;
place = (-11,21);
target = up;
type = BottomGhost;
},
{
place = (70,64);
type = Stem;
}
);
layerId = "2F54779E-88EF-414D-815E-FD45B9A14596";
shapes = (
{
closed = 1;
nodes = (
(183,-6,o),
(196,-11,o),
(207,-11,cs),
(223,-11,o),
(234,0,o),
(234,15,cs),
(234,26,o),
(228,40,o),
(214,53,cs),
(159,108,o),
(134,204,o),
(134,306,cs),
(134,412,o),
(161,526,o),
(209,607,cs),
(216,619,o),
(219,630,o),
(219,640,cs),
(219,658,o),
(208,669,o),
(194,669,cs),
(181,669,o),
(167,661,o),
(155,641,cs),
(101,549,o),
(70,425,o),
(70,306,cs),
(70,188,o),
(101,76,o),
(170,7,cs)
);
}
);
width = 284;
}
);
unicode = 40;
},
{
glyphname = parenright;
layers = (
{
hints = (
{
horizontal = 1;
place = (-12,21);
target = up;
type = BottomGhost;
},
{
place = (150,64);
type = Stem;
}
);
layerId = "2F54779E-88EF-414D-815E-FD45B9A14596";
shapes = (
{
closed = 1;
nodes = (
(183,108,o),
(214,232,o),
(214,351,cs),
(214,469,o),
(183,581,o),
(114,650,cs),
(101,663,o),
(88,668,o),
(77,668,cs),
(61,668,o),
(50,657,o),
(50,642,cs),
(50,631,o),
(56,617,o),
(70,604,cs),
(125,549,o),
(150,453,o),
(150,351,cs),
(150,245,o),
(123,131,o),
(75,50,cs),
(68,38,o),
(65,27,o),
(65,17,cs),
(65,-1,o),
(76,-12,o),
(90,-12,cs),
(103,-12,o),
(117,-4,o),
(129,16,cs)
);
}
);
width = 284;
}
);
unicode = 41;
},
{
glyphname = asterisk;
layers = (
{
hints = (
{
horizontal = 1;
place = (705,-20);
target = down;
type = TopGhost;
},
{
place = (109,44);
type = Stem;
},
{
place = (121,36);
type = Stem;
}
);
layerId = "2F54779E-88EF-414D-815E-FD45B9A14596";
shapes = (
{
closed = 1;
nodes = (
(217,611,o),
(195,625,o),
(170,641,c),
(211,679,ls),
(218,686,o),
(221,693,o),
(221,700,cs),
(221,710,o),
(214,717,o),
(204,717,cs),
(197,717,o),
(190,714,o),
(183,708,cs),
(153,680,l),
(151,697,o),
(150,713,o),
(149,726,cs),
(148,740,o),
(138,747,o),
(129,747,cs),
(119,747,o),
(109,739,o),
(109,723,cs),
(109,709,o),
(112,693,o),
(113,677,c),
(75,700,ls),
(69,703,o),
(63,705,o),
(59,705,cs),
(47,705,o),
(39,696,o),
(39,686,cs),
(39,678,o),
(43,669,o),
(54,663,c),
(102,633,l),
(86,618,o),
(72,605,o),
(61,594,cs),
(54,587,o),
(51,580,o),
(51,574,cs),
(51,563,o),
(59,555,o),
(70,555,cs),
(75,555,o),
(82,558,o),
(88,564,cs),
(97,572,o),
(107,582,o),
(118,593,c),
(121,546,l),
(121,532,o),
(131,524,o),
(140,524,cs),
(149,524,o),
(159,532,o),
(158,549,c),
(158,564,o),
(157,581,o),
(157,599,c),
(177,587,o),
(193,576,o),
(200,572,cs),
(205,569,o),
(211,568,o),
(215,568,cs),
(227,568,o),
(236,576,o),
(236,587,cs),
(236,594,o),
(232,602,o),
(222,608,cs)
);
}
);
width = 264;
}
);
unicode = 42;
},
{
glyphname = plus;
layers = (
{
hints = (
{
horizontal = 1;
place = (308,58);
type = Stem;
},
{
place = (165,58);
type = Stem;
}
);
layerId = "2F54779E-88EF-414D-815E-FD45B9A14596";
shapes = (
{
closed = 1;
nodes = (
(224,366,l),
(224,453,ls),
(224,472,o),
(211,485,o),
(195,485,cs),
(179,485,o),
(166,473,o),
(166,454,cs),
(166,367,l),
(84,367,ls),
(66,367,o),
(52,354,o),
(52,338,cs),
(52,322,o),
(65,309,o),
(83,309,cs),
(165,309,l),
(165,221,ls),
(165,202,o),
(178,189,o),
(194,189,cs),
(210,189,o),
(223,201,o),
(223,220,cs),
(223,308,l),
(316,308,ls),
(334,308,o),
(348,321,o),
(348,337,cs),
(348,353,o),
(335,366,o),
(317,366,cs)
);
}
);
width = 380;
}
);
unicode = 43;
},
{
glyphname = comma;
layers = (
{
hints = (
{
horizontal = 1;
place = (-143,220);
type = Stem;
},
{
place = (60,64);
type = Stem;
}
);
layerId = "2F54779E-88EF-414D-815E-FD45B9A14596";
shapes = (
{
closed = 1;
nodes = (
(38,-143,o),
(48,-140,o),
(58,-132,cs),
(104,-98,o),
(124,-39,o),
(124,17,cs),
(124,59,o),
(106,77,o),
(78,77,cs),
(51,77,o),
(31,57,o),
(31,31,cs),
(31,4,o),
(60,-7,o),
(60,-34,cs),
(60,-53,o),
(42,-76,o),
(26,-92,cs),
(14,-104,o),
(5,-114,o),
(5,-124,cs),
(5,-133,o),
(13,-143,o),
(29,-143,cs)
);
}
);
width = 154;
}
);
leftKerningGroup = comma;
unicode = 44;
},
{
glyphname = hyphen;
layers = (
{
hints = (
{
horizontal = 1;
place = (219,53);
type = Stem;
},
{
place = (100,238);
type = Stem;
}
);
layerId = "2F54779E-88EF-414D-815E-FD45B9A14596";
shapes = (
{
closed = 1;
nodes = (
(326,218,o),
(338,231,o),
(338,244,cs),
(338,258,o),
(326,272,o),
(302,272,cs),
(241,272,o),
(181,274,o),
(136,274,cs),
(112,274,o),
(100,260,o),
(100,246,cs),
(100,233,o),
(112,219,o),
(136,219,cs),
(190,219,o),
(245,219,o),
(302,218,c)
);
}
);
width = 403;
}
);
unicode = 45;
},
{
glyphname = period;
layers = (
{
hints = (
{
horizontal = 1;
place = (-11,95);
type = Stem;
},
{
place = (30,95);
type = Stem;
}
);
layerId = "2F54779E-88EF-414D-815E-FD45B9A14596";
shapes = (
{
closed = 1;
nodes = (
(104,-11,o),
(125,10,o),
(125,37,cs),
(125,63,o),
(104,84,o),
(78,84,cs),
(51,84,o),
(30,63,o),
(30,37,cs),
(30,10,o),
(51,-11,o),
(78,-11,cs)
);
}
);
width = 155;
}
);
unicode = 46;
},
{
glyphname = slash;
layers = (
{
hints = (
{
horizontal = 1;
place = (2,660);
type = Stem;
},
{
place = (40,315);
type = Stem;
}
);
layerId = "2F54779E-88EF-414D-815E-FD45B9A14596";
shapes = (
{
closed = 1;
nodes = (
(76,2,o),
(85,7,o),
(94,20,cs),
(180,144,o),
(257,482,o),
(347,610,cs),
(353,618,o),
(355,627,o),
(355,634,c),
(355,635,o),
(355,637,o),
(355,638,c),
(353,652,o),
(342,662,o),
(329,662,cs),
(321,662,o),
(311,657,o),
(302,646,cs),
(213,538,o),
(130,174,o),
(48,56,cs),
(43,48,o),
(40,41,o),
(40,34,cs),
(40,31,o),
(41,29,o),
(41,27,c),
(44,12,o),
(54,2,o),
(67,2,cs)
);
}
);
width = 393;
}
);
unicode = 47;
},
{
glyphname = zero;
layers = (
{
hints = (
{
horizontal = 1;
place = (-3,62);
type = Stem;
},
{
horizontal = 1;
place = (608,62);
type = Stem;
},
{
place = (30,66);
type = Stem;
},
{
place = (346,66);
type = Stem;
}
);
layerId = "2F54779E-88EF-414D-815E-FD45B9A14596";
shapes = (
{
closed = 1;
nodes = (
(339,-3,o),
(412,128,o),
(412,348,cs),
(412,554,o),
(348,670,o),
(230,670,cs),
(107,670,o),
(30,535,o),
(30,321,cs),
(30,109,o),
(93,-3,o),
(215,-3,cs)
);
},
{
closed = 1;
nodes = (
(138,59,o),
(96,148,o),
(96,320,cs),
(96,497,o),
(149,608,o),
(230,608,cs),
(305,608,o),
(346,521,o),
(346,352,cs),
(346,166,o),
(296,59,o),
(214,59,cs)
);
}
);
width = 442;
}
);
unicode = 48;
},
{
glyphname = one;
layers = (
{
hints = (
{
horizontal = 1;
place = (-1,21);
target = up;
type = BottomGhost;
},
{
place = (155,66);
type = Stem;
}
);
layerId = "2F54779E-88EF-414D-815E-FD45B9A14596";
shapes = (
{
closed = 1;
nodes = (
(211,657,o),
(198,667,o),
(184,667,cs),
(170,667,o),
(155,657,o),
(150,637,cs),
(135,575,o),
(99,519,o),
(36,468,cs),
(25,459,o),
(20,448,o),
(20,438,cs),
(20,423,o),
(32,409,o),
(49,409,cs),
(56,409,o),
(64,412,o),
(72,418,cs),
(97,437,o),
(129,471,o),
(154,504,c),
(154,486,o),
(155,467,o),
(155,445,cs),
(155,333,o),
(148,172,o),
(134,41,cs),
(131,14,o),
(149,-1,o),
(167,-1,cs),
(182,-1,o),
(197,10,o),
(199,33,cs),
(209,148,o),
(221,309,o),
(221,457,cs),
(221,521,o),
(218,582,o),
(213,637,cs)
);
}
);
width = 289;
}
);
unicode = 49;
},
{
glyphname = two;
layers = (
{
hints = (
{
horizontal = 1;
place = (-5,61);
type = Stem;
},
{
horizontal = 1;
place = (608,62);
type = Stem;
},
{
place = (59,62);
type = Stem;
},
{
place = (296,66);
type = Stem;
}
);
layerId = "2F54779E-88EF-414D-815E-FD45B9A14596";
shapes = (
{
closed = 1;
nodes = (
(85,84,o),
(40,79,o),
(40,45,cs),
(40,26,o),
(55,7,o),
(76,7,cs),
(100,7,o),
(120,33,o),
(146,33,cs),
(181,33,o),
(239,-5,o),
(322,-5,cs),
(398,-5,o),
(451,90,o),
(451,144,cs),
(451,164,o),
(437,175,o),
(422,175,cs),
(408,175,o),
(394,166,o),
(389,145,cs),
(376,93,o),
(352,56,o),
(310,56,cs),
(251,56,o),
(227,75,o),
(185,88,c),
(304,225,o),
(362,407,o),
(362,500,cs),
(362,614,o),
(288,670,o),
(213,670,cs),
(136,670,o),
(59,613,o),
(59,501,cs),
(59,476,o),
(64,445,o),
(92,445,cs),
(108,445,o),
(122,457,o),
(122,476,cs),
(122,486,o),
(121,496,o),
(121,504,cs),
(121,573,o),
(165,608,o),
(210,608,cs),
(253,608,o),
(296,574,o),
(296,500,cs),
(296,372,o),
(190,166,o),
(117,109,cs)
);
}
);
width = 491;
}
);
unicode = 50;
},
{
glyphname = three;
layers = (
{
hints = (
{
horizontal = 1;
place = (-2,62);
type = Stem;
},
{
horizontal = 1;
place = (609,63);
type = Stem;
},
{
place = (75,61);
type = Stem;
},
{
place = (307,65);
type = Stem;
},
{
place = (351,65);
type = Stem;
}
);
layerId = "2F54779E-88EF-414D-815E-FD45B9A14596";
shapes = (
{
closed = 1;
nodes = (
(337,416,o),
(372,471,o),
(372,528,cs),
(372,614,o),
(314,672,o),
(233,672,cs),
(139,672,o),
(75,607,o),
(75,508,cs),
(75,468,o),
(83,447,o),
(111,447,cs),
(126,447,o),
(139,460,o),
(139,475,cs),
(139,486,o),
(136,494,o),
(136,508,cs),
(136,573,o),
(174,609,o),
(232,609,cs),
(277,609,o),
(307,579,o),
(307,530,cs),
(307,475,o),
(276,413,o),
(207,393,cs),
(189,388,o),
(181,375,o),
(181,362,cs),
(181,347,o),
(194,333,o),
(219,334,cs),
(300,337,o),
(351,284,o),
(351,200,cs),
(351,113,o),
(298,60,o),
(218,60,cs),
(160,60,o),
(123,88,o),
(103,136,cs),
(95,155,o),
(82,163,o),
(69,163,cs),
(54,163,o),
(40,151,o),
(40,133,cs),
(40,106,o),
(69,64,o),
(93,42,cs),
(125,12,o),
(172,-2,o),
(218,-2,cs),
(333,-2,o),
(416,81,o),
(416,197,cs),
(416,292,o),
(366,349,o),
(293,379,c)
);
}
);
width = 466;
}
);
unicode = 51;
},
{
glyphname = four;
layers = (
{
hints = (
{
horizontal = 1;
place = (-1,21);
target = up;
type = BottomGhost;
},
{
horizontal = 1;
place = (252,62);
type = Stem;
},
{
place = (117,65);
type = Stem;
},
{
place = (271,64);
type = Stem;
}
);
layerId = "2F54779E-88EF-414D-815E-FD45B9A14596";
shapes = (
{
closed = 1;
nodes = (
(390,256,o),
(370,267,o),
(349,276,c),
(355,330,o),
(361,378,o),
(366,417,cs),
(373,470,o),
(381,506,o),
(381,516,cs),
(381,538,o),
(365,550,o),
(349,550,cs),
(335,550,o),
(320,541,o),
(316,520,cs),
(303,452,o),
(293,375,o),
(285,299,c),
(248,309,o),
(210,314,o),
(174,314,cs),
(159,314,o),
(145,313,o),
(130,312,c),
(171,397,o),
(182,521,o),
(182,589,cs),
(182,599,o),
(182,618,o),
(180,638,cs),
(178,660,o),
(163,671,o),
(148,671,cs),
(131,671,o),
(115,658,o),
(115,635,cs),
(115,617,o),
(117,592,o),
(117,579,cs),
(117,463,o),
(85,330,o),
(60,311,cs),
(35,292,o),
(20,283,o),
(20,264,cs),
(20,245,o),
(35,227,o),
(56,227,cs),
(82,227,o),
(91,252,o),
(172,252,cs),
(208,252,o),
(244,246,o),
(280,235,c),
(274,159,o),
(271,88,o),
(271,32,cs),
(271,10,o),
(286,-1,o),
(302,-1,cs),
(318,-1,o),
(335,11,o),
(335,35,cs),
(335,94,o),
(338,153,o),
(343,209,c),
(354,203,o),
(366,197,o),
(377,190,cs),
(385,185,o),
(393,182,o),
(400,182,cs),
(416,182,o),
(428,196,o),
(428,212,cs),
(428,222,o),
(423,233,o),
(410,242,cs)
);
}
);
width = 468;
}
);
unicode = 52;
},
{
glyphname = five;
layers = (
{
hints = (
{
horizontal = 1;
place = (-4,62);
type = Stem;
},
{
horizontal = 1;
place = (402,62);
type = Stem;
},
{
horizontal = 1;
place = (581,62);
type = Stem;
},
{
place = (350,66);
type = Stem;
}
);
layerId = "2F54779E-88EF-414D-815E-FD45B9A14596";
shapes = (
{
closed = 1;
nodes = (
(328,-4,o),
(416,100,o),
(416,253,cs),
(416,387,o),
(349,464,o),
(241,464,cs),
(214,464,o),
(184,459,o),
(154,450,c),
(167,496,o),
(171,537,o),
(174,566,cs),
(175,575,o),
(181,581,o),
(189,581,cs),
(245,581,o),
(322,584,o),
(375,621,cs),
(389,631,o),
(395,643,o),
(395,654,cs),
(395,670,o),
(383,682,o),
(367,682,cs),
(360,682,o),
(352,680,o),
(344,675,cs),
(292,643,o),
(243,643,o),
(157,643,cs),
(128,643,o),
(112,630,o),
(110,601,cs),
(108,567,o),
(106,486,o),
(82,426,cs),
(79,418,o),
(78,411,o),
(78,405,cs),
(78,386,o),
(89,374,o),
(107,374,cs),
(140,374,o),
(146,402,o),
(237,402,cs),
(313,402,o),
(350,354,o),
(350,253,cs),
(350,133,o),
(291,58,o),
(204,58,cs),
(148,58,o),
(113,94,o),
(103,164,cs),
(100,187,o),
(86,197,o),
(72,197,cs),
(55,197,o),
(40,183,o),
(40,159,cs),
(40,79,o),
(100,-4,o),
(203,-4,cs)
);
}
);
width = 466;
}
);
unicode = 53;
},
{
glyphname = six;
layers = (
{
hints = (
{
horizontal = 1;
place = (-3,62);
type = Stem;
},
{
horizontal = 1;
place = (357,62);
type = Stem;
},
{
horizontal = 1;
place = (608,62);
type = Stem;
},
{
place = (82,63);
type = Stem;
},
{
place = (391,66);
type = Stem;
}
);
layerId = "2F54779E-88EF-414D-815E-FD45B9A14596";
shapes = (
{
closed = 1;
nodes = (
(244,419,o),
(197,405,o),
(151,374,c),
(169,518,o),
(230,608,o),
(312,608,cs),
(349,608,o),
(374,594,o),
(399,550,cs),
(407,536,o),
(418,530,o),
(428,530,cs),
(444,530,o),
(458,543,o),
(458,562,cs),
(458,568,o),
(456,576,o),
(452,583,cs),
(418,643,o),
(369,670,o),
(311,670,cs),
(181,670,o),
(90,525,o),
(81,313,c),
(64,295,o),
(48,275,o),
(31,252,cs),
(23,241,o),
(20,231,o),
(20,221,cs),
(20,204,o),
(32,191,o),
(47,191,cs),
(57,191,o),
(69,198,o),
(79,213,c),
(82,218,l),
(96,60,o),
(167,-3,o),
(260,-3,cs),
(378,-3,o),
(457,121,o),
(457,235,cs),
(457,335,o),
(403,419,o),
(292,419,cs)
);
},
{
closed = 1;
nodes = (
(198,59,o),
(145,109,o),
(145,277,cs),
(145,293,l),
(192,338,o),
(240,357,o),
(291,357,cs),
(356,357,o),
(391,312,o),
(391,240,cs),
(391,146,o),
(339,59,o),
(261,59,cs)
);
}
);
width = 518;
}
);
unicode = 54;
},
{
glyphname = seven;
layers = (
{
hints = (
{
horizontal = 1;
place = (-2,21);
target = up;
type = BottomGhost;
},
{
horizontal = 1;
place = (237,59);
type = Stem;
},
{
horizontal = 1;
place = (251,59);
type = Stem;
},
{
horizontal = 1;
place = (603,62);
type = Stem;
},
{
place = (30,391);
type = Stem;
}
);
layerId = "2F54779E-88EF-414D-815E-FD45B9A14596";
shapes = (
{
closed = 1;
nodes = (
(360,650,o),
(345,632,o),
(311,632,cs),
(246,632,o),
(180,665,o),
(122,665,cs),
(69,665,o),
(30,610,o),
(30,575,cs),
(30,557,o),
(44,545,o),
(60,545,cs),
(71,545,o),
(82,552,o),
(89,566,cs),
(103,595,o),
(112,603,o),
(134,603,cs),
(171,603,o),
(228,573,o),
(289,572,c),
(245,491,o),
(213,395,o),
(192,307,c),
(172,309,o),
(151,310,o),
(125,310,cs),
(99,310,o),
(86,295,o),
(86,281,cs),
(86,266,o),
(99,251,o),
(125,251,cs),
(145,251,o),
(162,250,o),
(179,249,c),
(160,159,o),
(152,80,o),
(152,38,cs),
(152,11,o),
(168,-2,o),
(185,-2,cs),
(200,-2,o),
(216,9,o),
(217,35,cs),
(221,105,o),
(230,175,o),
(244,242,c),
(268,239,o),
(294,237,o),
(327,237,cs),
(349,237,o),
(360,252,o),
(360,267,cs),
(360,281,o),
(349,296,o),
(327,296,cs),
(300,296,o),
(278,297,o),
(257,299,c),
(283,402,o),
(318,493,o),
(355,555,cs),
(361,565,o),
(367,567,o),
(389,573,cs),
(412,579,o),
(421,594,o),
(421,611,cs),
(421,631,o),
(406,650,o),
(383,650,cs)
);
}
);
width = 441;
}
);
unicode = 55;
},
{
glyphname = eight;
layers = (
{
hints = (
{
horizontal = 1;
place = (-6,62);
type = Stem;
},
{
horizontal = 1;
place = (610,62);
type = Stem;
},
{
place = (30,66);
type = Stem;
},
{
place = (72,66);
type = Stem;
},
{
place = (289,66);
type = Stem;
},
{
place = (328,66);
type = Stem;
}
);
layerId = "2F54779E-88EF-414D-815E-FD45B9A14596";
shapes = (
{
closed = 1;
nodes = (
(313,418,o),
(355,466,o),
(355,533,cs),
(355,626,o),
(284,672,o),
(213,672,cs),
(143,672,o),
(72,626,o),
(72,533,cs),
(72,466,o),
(114,418,o),
(163,375,c),
(97,322,o),
(30,262,o),
(30,166,cs),
(30,54,o),
(121,-6,o),
(212,-6,cs),
(303,-6,o),
(394,54,o),
(394,166,cs),
(394,261,o),
(327,321,o),
(262,374,c)
);
},
{
closed = 1;
nodes = (
(138,586,o),
(176,610,o),
(213,610,cs),
(251,610,o),
(289,586,o),
(289,535,cs),
(289,487,o),
(256,451,o),
(213,414,c),
(171,451,o),
(138,487,o),
(138,535,cs)
);
},
{
closed = 1;
nodes = (
(154,56,o),
(96,96,o),
(96,167,cs),
(96,237,o),
(152,285,o),
(213,334,c),
(272,285,o),
(328,237,o),
(328,167,cs),
(328,95,o),
(270,56,o),
(212,56,cs)
);
}
);
width = 434;
}
);
unicode = 56;
},
{
glyphname = nine;
layers = (
{
hints = (
{
horizontal = 1;
place = (-3,21);
target = up;
type = BottomGhost;
},
{
horizontal = 1;
place = (261,61);
type = Stem;
},
{
horizontal = 1;
place = (605,62);
type = Stem;
},
{
place = (30,66);
type = Stem;
},
{
place = (333,65);
type = Stem;
}
);
layerId = "2F54779E-88EF-414D-815E-FD45B9A14596";
shapes = (
{
closed = 1;
nodes = (
(105,667,o),
(30,578,o),
(30,454,cs),
(30,338,o),
(97,261,o),
(197,261,cs),
(246,261,o),
(290,281,o),
(325,315,c),
(303,167,o),
(240,84,o),
(133,60,cs),
(111,55,o),
(102,40,o),
(102,26,cs),
(102,10,o),
(113,-3,o),
(132,-3,cs),
(147,-3,o),
(177,7,o),
(196,14,c),
(329,69,o),
(398,210,o),
(398,433,cs),
(398,583,o),
(329,667,o),
(212,667,cs)
);
},
{
closed = 1;
nodes = (
(134,322,o),
(96,372,o),
(96,454,cs),
(96,545,o),
(143,605,o),
(212,605,cs),
(287,605,o),
(333,545,o),
(333,443,c),
(333,442,l),
(322,371,o),
(267,322,o),
(197,322,cs)
);
}
);
width = 448;
}
);
unicode = 57;
},
{
glyphname = colon;
layers = (
{
hints = (
{
horizontal = 1;
place = (-13,95);
type = Stem;
},
{
horizontal = 1;
place = (260,95);
type = Stem;
},
{
place = (30,95);
type = Stem;
},
{
place = (34,95);
type = Stem;
}
);
layerId = "2F54779E-88EF-414D-815E-FD45B9A14596";
shapes = (
{
closed = 1;
nodes = (
(108,260,o),
(129,281,o),
(129,308,cs),
(129,334,o),
(108,355,o),
(82,355,cs),
(55,355,o),
(34,334,o),
(34,308,cs),
(34,281,o),
(55,260,o),
(82,260,cs)
);
},
{
closed = 1;
nodes = (
(104,-13,o),
(125,8,o),
(125,35,cs),
(125,61,o),
(104,82,o),
(78,82,cs),
(51,82,o),
(30,61,o),
(30,35,cs),
(30,8,o),
(51,-13,o),
(78,-13,cs)
);
}
);
width = 159;
}
);
leftKerningGroup = colon;
unicode = 58;
},
{
glyphname = semicolon;
layers = (
{
hints = (
{
horizontal = 1;
place = (260,95);
type = Stem;
},
{
place = (36,95);
type = Stem;
},
{
place = (65,64);
type = Stem;
}
);
layerId = "2F54779E-88EF-414D-815E-FD45B9A14596";
shapes = (
{
closed = 1;
nodes = (
(110,260,o),
(131,281,o),
(131,308,cs),
(131,334,o),
(110,355,o),
(84,355,cs),
(57,355,o),
(36,334,o),
(36,308,cs),
(36,281,o),
(57,260,o),
(84,260,cs)
);
},
{
closed = 1;
nodes = (
(43,-143,o),
(53,-140,o),
(63,-132,cs),
(109,-98,o),
(129,-39,o),
(129,17,cs),
(129,59,o),
(111,77,o),
(83,77,cs),
(56,77,o),
(36,57,o),
(36,31,cs),
(36,4,o),
(65,-7,o),
(65,-34,cs),
(65,-53,o),
(47,-76,o),
(31,-92,cs),
(19,-104,o),
(10,-114,o),
(10,-124,cs),
(10,-133,o),
(18,-143,o),
(34,-143,cs)
);
}
);
width = 161;
}
);
leftKerningGroup = colon;
unicode = 59;
},
{
glyphname = less;
layers = (
{
hints = (
{
horizontal = 1;
place = (183,307);
type = Stem;
},
{
place = (66,203);
type = Stem;
}
);
layerId = "2F54779E-88EF-414D-815E-FD45B9A14596";
shapes = (
{
closed = 1;
nodes = (
(215,192,ls),
(222,185,o),
(230,183,o),
(237,183,cs),
(254,183,o),
(269,198,o),
(269,215,cs),
(269,223,o),
(265,231,o),
(257,238,cs),
(160,327,ls),
(157,330,o),
(156,333,o),
(156,336,cs),
(156,339,o),
(157,342,o),
(160,345,cs),
(255,435,ls),
(262,442,o),
(265,450,o),
(265,458,cs),
(265,475,o),
(251,490,o),
(234,490,cs),
(227,490,o),
(219,487,o),
(212,480,cs),
(70,345,ls),
(67,342,o),
(66,339,o),
(66,336,cs),
(66,333,o),
(67,330,o),
(70,327,cs)
);
}
);
width = 319;
}
);
unicode = 60;
},
{
glyphname = equal;
layers = (
{
hints = (
{
horizontal = 1;
place = (245,58);
type = Stem;
},
{
horizontal = 1;
place = (360,58);
type = Stem;
},
{
place = (85,300);
type = Stem;
}
);
layerId = "2F54779E-88EF-414D-815E-FD45B9A14596";
shapes = (
{
closed = 1;
nodes = (
(350,360,ls),
(369,360,o),
(384,373,o),
(384,389,cs),
(384,405,o),
(369,418,o),
(350,418,cs),
(119,418,ls),
(100,418,o),
(85,405,o),
(85,389,cs),
(85,373,o),
(100,360,o),
(119,360,cs)
);
},
{
closed = 1;
nodes = (
(351,245,ls),
(370,245,o),
(385,258,o),
(385,274,cs),
(385,290,o),
(370,303,o),
(351,303,cs),
(120,303,ls),
(101,303,o),
(86,290,o),
(86,274,cs),
(86,258,o),
(101,245,o),
(120,245,cs)
);
}
);
width = 448;
}
);
unicode = 61;
},
{
glyphname = greater;
layers = (
{
hints = (
{
horizontal = 1;
place = (182,309);
type = Stem;
},
{
place = (70,202);
type = Stem;
}
);
layerId = "2F54779E-88EF-414D-815E-FD45B9A14596";
shapes = (
{
closed = 1;
nodes = (
(268,327,ls),
(271,330,o),
(272,333,o),
(272,336,cs),
(272,339,o),
(271,342,o),
(268,345,cs),
(126,480,ls),
(118,488,o),
(110,491,o),
(103,491,cs),
(87,491,o),
(73,476,o),
(73,459,cs),
(73,451,o),
(76,442,o),
(83,435,cs),
(178,345,ls),
(181,342,o),
(182,339,o),
(182,336,cs),
(182,333,o),
(181,330,o),
(178,327,cs),
(81,238,ls),
(73,231,o),
(70,223,o),
(70,215,cs),
(70,198,o),
(84,182,o),
(101,182,cs),
(108,182,o),
(116,185,o),
(123,192,cs)
);
}
);
width = 303;
}
);
unicode = 62;
},
{
glyphname = question;
layers = (
{
hints = (
{
horizontal = 1;
place = (-10,95);
type = Stem;
},
{
horizontal = 1;
place = (646,62);
type = Stem;
},
{
place = (26,65);
type = Stem;
},
{
place = (109,95);
type = Stem;
},
{
place = (124,63);
type = Stem;
},
{
place = (280,66);
type = Stem;
}
);
layerId = "2F54779E-88EF-414D-815E-FD45B9A14596";
shapes = (
{
closed = 1;
nodes = (
(171,160,o),
(187,173,o),
(187,199,cs),
(187,283,o),
(222,328,o),
(259,370,cs),
(301,417,o),
(346,461,o),
(346,553,cs),
(346,656,o),
(263,708,o),
(182,708,cs),
(103,708,o),
(26,660,o),
(26,564,cs),
(26,533,o),
(38,496,o),
(66,496,cs),
(81,496,o),
(95,507,o),
(95,527,cs),
(95,535,o),
(91,547,o),
(91,559,cs),
(91,617,o),
(138,646,o),
(185,646,cs),
(232,646,o),
(280,616,o),
(280,553,cs),
(280,489,o),
(249,453,o),
(214,415,c),
(172,367,o),
(124,314,o),
(124,199,cs),
(124,173,o),
(140,160,o),
(156,160,cs)
);
},
{
closed = 1;
nodes = (
(183,-10,o),
(204,11,o),
(204,38,cs),
(204,64,o),
(183,85,o),
(157,85,cs),
(130,85,o),
(109,64,o),
(109,38,cs),
(109,11,o),
(130,-10,o),
(157,-10,cs)
);
}
);
width = 377;
}
);
unicode = 63;
},
{
glyphname = at;
layers = (
{
hints = (
{
horizontal = 1;
place = (-151,60);
type = Stem;
},
{
horizontal = 1;
place = (14,62);
type = Stem;
},
{
horizontal = 1;
place = (19,56);
type = Stem;
},
{
horizontal = 1;
place = (314,56);
type = Stem;
},
{
horizontal = 1;
place = (478,62);
type = Stem;
},
{
place = (30,65);
type = Stem;
},
{
place = (219,63);
type = Stem;
},
{
place = (453,54);
type = Stem;
},
{
place = (633,63);
type = Stem;
}
);
layerId = "2F54779E-88EF-414D-815E-FD45B9A14596";
shapes = (
{
closed = 1;
nodes = (
(189,540,o),
(30,380,o),
(30,148,cs),
(30,-34,o),
(146,-151,o),
(325,-151,cs),
(387,-151,o),
(443,-140,o),
(487,-123,cs),
(503,-117,o),
(510,-105,o),
(510,-94,cs),
(510,-79,o),
(498,-66,o),
(480,-66,cs),
(456,-66,o),
(423,-91,o),
(325,-91,cs),
(184,-91,o),
(95,-4,o),
(95,162,cs),
(95,345,o),
(228,478,o),
(421,478,cs),
(555,478,o),
(633,398,o),
(633,279,cs),
(633,127,o),
(581,75,o),
(546,75,cs),
(523,75,o),
(507,90,o),
(507,141,cs),
(507,189,o),
(517,330,o),
(517,337,cs),
(517,361,o),
(502,372,o),
(486,372,cs),
(474,372,o),
(462,365,o),
(458,350,c),
(436,363,o),
(412,370,o),
(388,370,cs),
(298,370,o),
(219,291,o),
(219,149,cs),
(219,66,o),
(271,14,o),
(333,14,cs),
(384,14,o),
(425,40,o),
(457,86,c),
(470,43,o),
(498,19,o),
(541,19,cs),
(613,19,o),
(696,102,o),
(696,279,cs),
(696,432,o),
(589,540,o),
(421,540,cs)
);
},
{
closed = 1;
nodes = (
(304,76,o),
(282,98,o),
(282,164,cs),
(282,254,o),
(342,314,o),
(392,314,cs),
(420,314,o),
(442,303,o),
(453,289,c),
(452,262,o),
(450,233,o),
(449,207,c),
(436,121,o),
(388,76,o),
(341,76,cs)
);
}
);
width = 726;
}
);
unicode = 64;
},
{
glyphname = A;
layers = (
{
anchors = (
{
name = t.uni0302_2;
position = "{620, 700}";
}
);
hints = (
{
horizontal = 1;
place = (-3,63);
type = Stem;
},
{
horizontal = 1;
place = (0,63);
type = Stem;
},
{
horizontal = 1;
place = (260,60);
type = Stem;
},
{
horizontal = 1;
place = (267,57);
type = Stem;
},
{
horizontal = 1;
place = (609,98);
type = Stem;
},
{
horizontal = 1;
place = (707,-20);
target = down;
type = TopGhost;
},
{
place = (542,70);
type = Stem;
}
);
layerId = "2F54779E-88EF-414D-815E-FD45B9A14596";
shapes = (
{
closed = 1;
nodes = (
(744,148,o),
(698,63,o),
(660,63,cs),
(629,63,o),
(612,110,o),
(612,238,cs),
(612,418,o),
(662,617,o),
(662,671,cs),
(662,692,o),
(646,707,o),
(621,707,cs),
(552,707,o),
(477,561,o),
(388,369,cs),
(380,353,o),
(373,337,o),
(366,321,c),
(350,321,o),
(334,320,o),
(319,320,cs),
(297,320,o),
(276,321,o),
(256,322,cs),
(237,323,o),
(223,309,o),
(223,291,cs),
(223,275,o),
(235,262,o),
(254,261,cs),
(280,260,o),
(308,260,o),
(337,260,c),
(277,140,o),
(225,60,o),
(153,60,cs),
(99,60,o),
(87,103,o),
(58,103,cs),
(45,103,o),
(34,91,o),
(34,74,cs),
(34,36,o),
(90,-3,o),
(153,-3,cs),
(279,-3,o),
(348,118,o),
(415,263,c),
(543,272,l),
(542,254,o),
(542,235,o),
(542,215,cs),
(542,51,o),
(595,0,o),
(661,0,cs),
(735,0,o),
(789,109,o),
(827,212,cs),
(829,217,o),
(830,222,o),
(830,226,cs),
(830,243,o),
(818,255,o),
(805,255,cs),
(796,255,o),
(786,249,o),
(779,233,cs)
);
},
{
closed = 1;
nodes = (
(514,330,o),
(479,327,o),
(443,325,c),
(448,335,o),
(452,345,o),
(457,355,cs),
(496,441,o),
(571,609,o),
(584,609,cs),
(591,609,o),
(559,493,o),
(547,332,c)
);
}
);
width = 746;
}
);
leftKerningGroup = A2;
rightKerningGroup = A;
unicode = 65;
},
{
glyphname = B;
layers = (
{
hints = (
{
horizontal = 1;
place = (-7,60);
type = Stem;
},
{
horizontal = 1;
place = (-6,63);
type = Stem;
},
{
horizontal = 1;
place = (104,60);
type = Stem;
},
{
horizontal = 1;
place = (648,63);
type = Stem;
},
{
place = (60,64);
type = Stem;
},
{
place = (100,70);
type = Stem;
},
{
place = (288,70);
type = Stem;
},
{
place = (524,70);
type = Stem;
},
{
place = (575,70);
type = Stem;
}
);
layerId = "2F54779E-88EF-414D-815E-FD45B9A14596";
shapes = (
{
closed = 1;
nodes = (
(562,402,o),
(594,458,o),
(594,517,cs),
(594,645,o),
(482,711,o),
(364,711,cs),
(235,711,o),
(100,634,o),
(100,478,cs),
(100,429,o),
(130,349,o),
(173,349,cs),
(192,349,o),
(205,362,o),
(205,380,cs),
(205,401,o),
(170,430,o),
(170,485,cs),
(170,593,o),
(270,648,o),
(363,648,cs),
(446,648,o),
(524,603,o),
(524,514,cs),
(524,461,o),
(490,410,o),
(418,397,cs),
(399,394,o),
(390,380,o),
(390,366,cs),
(390,351,o),
(401,336,o),
(423,336,cs),
(529,336,o),
(575,271,o),
(575,201,cs),
(575,131,o),
(529,57,o),
(451,57,cs),
(407,57,o),
(362,79,o),
(316,104,c),
(344,168,o),
(358,261,o),
(358,381,cs),
(358,436,o),
(355,489,o),
(346,534,cs),
(342,555,o),
(329,568,o),
(313,568,cs),
(294,568,o),
(279,552,o),
(279,531,cs),
(279,517,o),
(288,427,o),
(288,383,cs),
(288,275,o),
(276,192,o),
(255,136,c),
(222,152,o),
(191,164,o),
(161,164,cs),
(94,164,o),
(60,122,o),
(60,79,cs),
(60,36,o),
(95,-7,o),
(166,-7,cs),
(216,-7,o),
(255,12,o),
(285,50,c),
(336,23,o),
(392,-6,o),
(451,-6,cs),
(574,-6,o),
(645,99,o),
(645,198,cs),
(645,280,o),
(599,357,o),
(497,376,c)
);
},
{
closed = 1;
nodes = (
(136,53,o),
(124,66,o),
(124,79,cs),
(124,91,o),
(136,104,o),
(161,104,cs),
(180,104,o),
(201,96,o),
(225,84,c),
(207,64,o),
(186,53,o),
(161,53,cs)
);
}
);
width = 669;
}
);
rightKerningGroup = B;
unicode = 66;
},
{
glyphname = C;
layers = (
{
anchors = (
{
name = t.uni0302_2;
position = "{411, 700}";
},
{
name = b.uni0326_1_2;
position = "{327, 0}";
}
);
hints = (
{
horizontal = 1;
place = (-9,63);
type = Stem;
},
{
horizontal = 1;
place = (648,63);
type = Stem;
},
{
place = (93,70);
type = Stem;
},
{
place = (468,65);
type = Stem;
}
);
layerId = "2F54779E-88EF-414D-815E-FD45B9A14596";
shapes = (
{
closed = 1;
nodes = (
(449,-9,o),
(548,54,o),
(611,212,cs),
(613,217,o),
(614,221,o),
(614,225,cs),
(614,241,o),
(601,253,o),
(588,253,cs),
(579,253,o),
(569,247,o),
(563,233,cs),
(508,103,o),
(430,54,o),
(346,54,cs),
(244,54,o),
(163,135,o),
(163,276,cs),
(163,452,o),
(265,648,o),
(393,648,cs),
(441,648,o),
(468,621,o),
(468,583,cs),
(468,545,o),
(447,521,o),
(447,494,cs),
(447,480,o),
(457,470,o),
(475,470,cs),
(489,470,o),
(500,480,o),
(509,494,cs),
(525,520,o),
(533,561,o),
(533,585,cs),
(533,658,o),
(479,711,o),
(394,711,cs),
(216,711,o),
(93,484,o),
(93,281,cs),
(93,93,o),
(200,-9,o),
(340,-9,cs)
);
}
);
width = 530;
}
);
leftKerningGroup = C;
unicode = 67;
},
{
glyphname = D;
layers = (
{
anchors = (
{
name = t.uni0302_2;
position = "{415, 700}";
}
);
hints = (
{
horizontal = 1;
place = (-7,60);
type = Stem;
},
{
horizontal = 1;
place = (-7,63);
type = Stem;
},
{
horizontal = 1;
place = (104,58);
type = Stem;
},
{
horizontal = 1;
place = (388,61);
type = Stem;
},
{
horizontal = 1;
place = (647,63);
type = Stem;
},
{
place = (61,64);
type = Stem;
},
{
place = (124,68);
type = Stem;
},
{
place = (312,70);
type = Stem;
},
{
place = (673,70);
type = Stem;
}
);
layerId = "2F54779E-88EF-414D-815E-FD45B9A14596";
shapes = (
{
closed = 1;
nodes = (
(239,710,o),
(124,632,o),
(124,522,cs),
(124,440,o),
(185,388,o),
(282,388,cs),
(292,388,o),
(302,388,o),
(312,389,c),
(310,311,o),
(298,207,o),
(265,136,c),
(231,151,o),
(196,162,o),
(162,162,cs),
(96,162,o),
(61,120,o),
(61,77,cs),
(61,35,o),
(94,-7,o),
(163,-7,cs),
(217,-7,o),
(258,15,o),
(290,53,c),
(346,24,o),
(409,-7,o),
(472,-7,cs),
(632,-7,o),
(743,130,o),
(743,362,cs),
(743,578,o),
(606,710,o),
(396,710,cs)
);
},
{
closed = 1;
nodes = (
(426,56,o),
(376,81,o),
(325,107,c),
(364,186,o),
(380,295,o),
(382,402,c),
(404,408,o),
(425,416,o),
(444,426,cs),
(459,434,o),
(467,446,o),
(467,459,cs),
(467,475,o),
(454,487,o),
(437,487,cs),
(426,487,o),
(407,478,o),
(381,468,c),
(381,489,o),
(379,510,o),
(377,527,cs),
(375,548,o),
(359,560,o),
(342,560,cs),
(326,560,o),
(310,548,o),
(310,522,c),
(312,451,l),
(302,450,o),
(292,449,o),
(282,449,cs),
(226,449,o),
(192,476,o),
(192,523,cs),
(192,602,o),
(273,647,o),
(396,647,cs),
(570,647,o),
(673,547,o),
(673,362,cs),
(673,166,o),
(590,56,o),
(471,56,cs)
);
},
{
closed = 1;
nodes = (
(137,53,o),
(125,66,o),
(125,79,cs),
(125,92,o),
(137,104,o),
(162,104,cs),
(181,104,o),
(204,96,o),
(230,84,c),
(212,64,o),
(189,53,o),
(162,53,cs)
);
}
);
width = 746;
}
);
leftKerningGroup = D2;
rightKerningGroup = D;
unicode = 68;
},
{
glyphname = E;
layers = (
{
anchors = (
{
name = t.uni0302_2;
position = "{341, 700}";
}
);
hints = (
{
horizontal = 1;
place = (-9,63);
type = Stem;
},
{
horizontal = 1;
place = (352,64);
type = Stem;
},
{
horizontal = 1;
place = (390,-20);
target = down;
type = TopGhost;
},
{
horizontal = 1;
place = (646,63);
type = Stem;
},
{
place = (115,70);
type = Stem;
},
{
place = (166,70);
type = Stem;
},
{
place = (428,65);
type = Stem;
}
);
layerId = "2F54779E-88EF-414D-815E-FD45B9A14596";
shapes = (
{
closed = 1;
nodes = (
(506,114,o),
(420,54,o),
(336,54,cs),
(233,54,o),
(185,122,o),
(185,195,cs),
(185,274,o),
(248,352,o),
(366,352,cs),
(390,352,o),
(406,365,o),
(406,383,cs),
(406,402,o),
(390,416,o),
(366,416,cs),
(280,416,o),
(236,481,o),
(236,540,cs),
(236,601,o),
(273,646,o),
(338,646,cs),
(390,646,o),
(428,613,o),
(428,565,cs),
(428,552,o),
(426,543,o),
(426,530,cs),
(426,515,o),
(436,505,o),
(454,505,cs),
(478,505,o),
(493,531,o),
(493,574,cs),
(493,650,o),
(426,709,o),
(339,709,cs),
(231,709,o),
(166,629,o),
(166,544,cs),
(166,487,o),
(193,427,o),
(255,390,c),
(162,348,o),
(115,270,o),
(115,191,cs),
(115,88,o),
(187,-9,o),
(328,-9,cs),
(432,-9,o),
(543,56,o),
(602,212,cs),
(604,217,o),
(605,221,o),
(605,226,cs),
(605,242,o),
(592,253,o),
(579,253,cs),
(570,253,o),
(560,247,o),
(554,233,cs)
);
}
);
width = 521;
}
);
leftKerningGroup = E;
rightKerningGroup = A;
unicode = 69;
},
{
glyphname = F;
layers = (
{
hints = (
{
horizontal = 1;
place = (-6,63);
type = Stem;
},
{
horizontal = 1;
place = (326,61);
type = Stem;
},
{
horizontal = 1;
place = (627,63);
type = Stem;
},
{
horizontal = 1;
place = (645,63);
type = Stem;
},
{
place = (79,69);
type = Stem;
},
{
place = (317,70);
type = Stem;
},
{
place = (322,70);
type = Stem;
},
{
place = (343,69);
type = Stem;
}
);
layerId = "2F54779E-88EF-414D-815E-FD45B9A14596";
shapes = (
{
closed = 1;
nodes = (
(568,627,o),
(646,643,o),
(646,682,cs),
(646,698,o),
(634,709,o),
(619,709,cs),
(596,709,o),
(578,690,o),
(515,690,cs),
(469,690,o),
(356,708,o),
(276,708,cs),
(148,708,o),
(79,637,o),
(79,565,cs),
(79,498,o),
(139,438,o),
(189,438,cs),
(208,438,o),
(222,450,o),
(222,465,cs),
(222,476,o),
(215,488,o),
(199,497,cs),
(161,518,o),
(148,539,o),
(148,567,cs),
(148,608,o),
(196,645,o),
(276,645,cs),
(293,645,o),
(317,644,o),
(343,641,c),
(336,547,o),
(329,457,o),
(322,379,c),
(296,373,o),
(269,364,o),
(240,352,cs),
(224,345,o),
(218,333,o),
(218,321,cs),
(218,306,o),
(230,294,o),
(248,294,cs),
(259,294,o),
(284,304,o),
(317,313,c),
(313,266,o),
(309,226,o),
(306,196,cs),
(298,108,o),
(269,57,o),
(220,57,cs),
(190,57,o),
(161,77,o),
(144,113,cs),
(136,130,o),
(126,138,o),
(111,138,cs),
(96,138,o),
(82,125,o),
(82,104,cs),
(82,49,o),
(144,-6,o),
(218,-6,cs),
(309,-6,o),
(365,56,o),
(376,191,cs),
(380,235,o),
(383,280,o),
(387,325,c),
(392,326,o),
(398,326,o),
(404,326,cs),
(444,326,o),
(485,316,o),
(501,316,cs),
(521,316,o),
(533,330,o),
(533,345,cs),
(533,358,o),
(524,371,o),
(504,376,cs),
(470,384,o),
(438,387,o),
(407,387,cs),
(392,387,l),
(398,470,o),
(405,553,o),
(412,635,c),
(455,631,o),
(495,627,o),
(514,627,cs)
);
}
);
width = 585;
}
);
unicode = 70;
},
{
glyphname = G;
layers = (
{
anchors = (
{
name = t.uni0302_2;
position = "{394, 700}";
},
{
name = b.uni0326_1_2;
position = "{342, 0}";
}
);
hints = (
{
horizontal = 1;
place = (-9,63);
type = Stem;
},
{
horizontal = 1;
place = (257,63);
type = Stem;
},
{
horizontal = 1;
place = (393,-20);
target = down;
type = TopGhost;
},
{
horizontal = 1;
place = (649,63);
type = Stem;
},
{
place = (80,70);
type = Stem;
},
{
place = (462,69);
type = Stem;
},
{
place = (463,65);
type = Stem;
}
);
layerId = "2F54779E-88EF-414D-815E-FD45B9A14596";
shapes = (
{
closed = 1;
nodes = (
(552,393,o),
(544,389,o),
(534,376,cs),
(496,327,o),
(457,320,o),
(391,320,cs),
(367,320,o),
(355,305,o),
(355,289,cs),
(355,264,o),
(375,257,o),
(402,257,cs),
(422,257,o),
(441,259,o),
(459,262,c),
(461,251,o),
(462,238,o),
(462,227,cs),
(462,118,o),
(400,54,o),
(316,54,cs),
(225,54,o),
(150,129,o),
(150,286,cs),
(150,519,o),
(287,649,o),
(392,649,cs),
(439,649,o),
(463,624,o),
(463,582,cs),
(463,561,o),
(456,538,o),
(443,512,cs),
(440,506,o),
(438,499,o),
(438,492,cs),
(438,477,o),
(451,464,o),
(468,464,cs),
(479,464,o),
(491,470,o),
(499,485,cs),
(518,521,o),
(528,556,o),
(528,587,cs),
(528,662,o),
(478,712,o),
(390,712,cs),
(244,712,o),
(80,552,o),
(80,290,cs),
(80,89,o),
(178,-9,o),
(316,-9,cs),
(440,-9,o),
(531,82,o),
(531,225,cs),
(531,244,o),
(528,266,o),
(524,284,c),
(546,296,o),
(565,312,o),
(580,331,cs),
(591,345,o),
(594,355,o),
(594,363,cs),
(594,379,o),
(580,393,o),
(563,393,cs)
);
}
);
width = 597;
}
);
leftKerningGroup = C;
rightKerningGroup = G;
unicode = 71;
},
{
glyphname = H;
layers = (
{
anchors = (
{
name = t.uni0302_2;
position = "{464, 700}";
},
{
name = b.uni0326_1_2;
position = "{374, 0}";
}
);
hints = (
{
horizontal = 1;
place = (-7,63);
type = Stem;
},
{
horizontal = 1;
place = (-6,63);
type = Stem;
},
{
horizontal = 1;
place = (346,58);
type = Stem;
},
{
horizontal = 1;
place = (353,60);
type = Stem;
},
{
horizontal = 1;
place = (636,63);
type = Stem;
},
{
horizontal = 1;
place = (707,-20);
target = down;
type = TopGhost;
},
{
place = (99,67);
type = Stem;
},
{
place = (327,70);
type = Stem;
},
{
place = (550,70);
type = Stem;
}
);
layerId = "2F54779E-88EF-414D-815E-FD45B9A14596";
shapes = (
{
closed = 1;
nodes = (
(735,117,o),
(694,57,o),
(660,57,cs),
(638,57,o),
(620,77,o),
(620,159,cs),
(620,200,o),
(625,272,o),
(631,349,c),
(651,348,o),
(667,346,o),
(679,346,cs),
(699,346,o),
(712,361,o),
(712,376,cs),
(712,389,o),
(703,401,o),
(682,404,cs),
(667,406,o),
(652,408,o),
(636,409,c),
(648,534,o),
(660,655,o),
(660,673,cs),
(660,693,o),
(645,707,o),
(625,707,cs),
(605,707,o),
(592,694,o),
(590,669,cs),
(584,601,o),
(575,506,o),
(567,413,c),
(550,413,ls),
(492,413,o),
(439,407,o),
(393,397,c),
(396,444,o),
(397,490,o),
(397,532,cs),
(397,656,o),
(352,699,o),
(279,699,cs),
(205,699,o),
(147,633,o),
(147,592,cs),
(147,576,o),
(160,564,o),
(175,564,cs),
(208,564,o),
(222,636,o),
(276,636,cs),
(306,636,o),
(327,615,o),
(327,542,cs),
(327,482,o),
(324,426,o),
(320,376,c),
(172,322,o),
(99,216,o),
(99,111,cs),
(99,40,o),
(143,-7,o),
(207,-7,cs),
(319,-7,o),
(368,159,o),
(387,334,c),
(435,346,o),
(492,353,o),
(557,353,cs),
(562,353,l),
(555,269,o),
(550,190,o),
(550,140,cs),
(550,41,o),
(594,-6,o),
(654,-6,cs),
(730,-6,o),
(772,67,o),
(829,212,cs),
(831,217,o),
(832,222,o),
(832,227,cs),
(832,243,o),
(820,255,o),
(807,255,cs),
(797,255,o),
(787,249,o),
(781,233,cs)
);
},
{
closed = 1;
nodes = (
(184,56,o),
(166,80,o),
(166,118,cs),
(166,189,o),
(212,263,o),
(313,308,c),
(294,153,o),
(257,56,o),
(210,56,cs)
);
}
);
width = 748;
}
);
leftKerningGroup = H;
rightKerningGroup = A;
unicode = 72;
},
{
glyphname = I;
layers = (
{
anchors = (
{
name = t.uni0302_2;
position = "{306, 700}";
},
{
name = b.uni0326_1_2;
position = "{235, 0}";
}
);
hints = (
{
horizontal = 1;
place = (-7,63);
type = Stem;
},
{
horizontal = 1;
place = (645,63);
type = Stem;
},
{
place = (112,70);
type = Stem;
},
{
place = (367,69);
type = Stem;
}
);
layerId = "2F54779E-88EF-414D-815E-FD45B9A14596";
shapes = (
{
closed = 1;
nodes = (
(366,616,o),
(367,592,o),
(367,568,cs),
(367,239,o),
(327,56,o),
(248,56,cs),
(204,56,o),
(199,84,o),
(172,84,cs),
(158,84,o),
(145,71,o),
(145,54,cs),
(145,24,o),
(188,-7,o),
(248,-7,cs),
(383,-7,o),
(436,172,o),
(436,562,cs),
(436,597,o),
(436,632,o),
(434,672,cs),
(433,689,o),
(425,697,o),
(405,700,cs),
(369,705,o),
(329,708,o),
(286,708,cs),
(173,708,o),
(112,647,o),
(112,572,cs),
(112,507,o),
(178,438,o),
(221,438,cs),
(240,438,o),
(253,451,o),
(253,470,cs),
(253,479,o),
(247,488,o),
(230,500,cs),
(199,522,o),
(182,547,o),
(182,573,cs),
(182,615,o),
(211,645,o),
(288,645,cs),
(312,645,o),
(336,644,o),
(366,641,c)
);
}
);
width = 470;
}
);
leftKerningGroup = I2;
rightKerningGroup = I;
unicode = 73;
},
{
glyphname = J;
layers = (
{
anchors = (
{
name = t.uni0302_2;
position = "{357, 700}";
},
{
name = b.uni0326_1_2;
position = "{247, 0}";
}
);
hints = (
{
horizontal = 1;
place = (-8,63);
type = Stem;
},
{
horizontal = 1;
place = (608,63);
type = Stem;
},
{
horizontal = 1;
place = (650,63);
type = Stem;
},
{
place = (84,70);
type = Stem;
},
{
place = (133,67);
type = Stem;
},
{
place = (387,70);
type = Stem;
}
);
layerId = "2F54779E-88EF-414D-815E-FD45B9A14596";
shapes = (
{
closed = 1;
nodes = (
(507,677,o),
(500,671,o),
(480,671,cs),
(432,671,o),
(359,713,o),
(288,713,cs),
(191,713,o),
(133,657,o),
(133,571,cs),
(133,544,o),
(150,529,o),
(168,529,cs),
(184,529,o),
(200,542,o),
(200,571,cs),
(200,623,o),
(226,650,o),
(292,650,cs),
(328,650,o),
(356,642,o),
(382,632,c),
(385,600,o),
(387,555,o),
(387,501,cs),
(387,204,o),
(346,55,o),
(254,55,cs),
(200,55,o),
(154,101,o),
(154,189,cs),
(154,243,o),
(161,274,o),
(161,292,cs),
(161,314,o),
(148,329,o),
(128,329,cs),
(109,329,o),
(94,315,o),
(91,293,cs),
(86,255,o),
(84,220,o),
(84,189,cs),
(84,67,o),
(156,-8,o),
(252,-8,cs),
(400,-8,o),
(457,151,o),
(457,501,cs),
(457,528,o),
(457,570,o),
(454,610,c),
(461,609,o),
(469,608,o),
(478,608,cs),
(518,608,o),
(545,624,o),
(545,650,cs),
(545,666,o),
(535,677,o),
(520,677,cs)
);
}
);
width = 494;
}
);
leftKerningGroup = J2;
rightKerningGroup = J;
unicode = 74;
},
{
glyphname = K;
layers = (
{
anchors = (
{
name = t.uni0302_2;
position = "{430, 700}";
},
{
name = b.uni0326_1_2;
position = "{402, 0}";
}
);
hints = (
{
horizontal = 1;
place = (-8,63);
type = Stem;
},
{
horizontal = 1;
place = (325,63);
type = Stem;
},
{
horizontal = 1;
place = (647,64);
type = Stem;
},
{
place = (278,70);
type = Stem;
}
);
layerId = "2F54779E-88EF-414D-815E-FD45B9A14596";
shapes = (
{
closed = 1;
nodes = (
(669,139,o),
(630,55,o),
(596,55,cs),
(566,55,o),
(544,113,o),
(527,188,cs),
(514,244,o),
(496,325,o),
(462,363,c),
(573,425,o),
(624,544,o),
(649,658,cs),
(651,667,o),
(652,671,o),
(652,676,cs),
(652,700,o),
(635,712,o),
(618,712,cs),
(602,712,o),
(586,701,o),
(582,680,cs),
(548,498,o),
(454,397,o),
(334,388,c),
(343,453,o),
(348,519,o),
(348,583,cs),
(348,661,o),
(299,711,o),
(224,711,cs),
(164,711,o),
(82,650,o),
(82,607,cs),
(82,592,o),
(92,582,o),
(109,582,cs),
(139,582,o),
(170,647,o),
(223,647,cs),
(256,647,o),
(278,625,o),
(278,588,cs),
(278,519,o),
(272,452,o),
(264,388,c),
(256,388,ls),
(233,388,o),
(221,374,o),
(221,359,cs),
(221,342,o),
(232,331,o),
(255,325,c),
(230,171,o),
(193,52,o),
(193,24,cs),
(193,5,o),
(211,-8,o),
(229,-8,cs),
(243,-8,o),
(257,1,o),
(262,22,cs),
(284,117,o),
(308,220,o),
(325,324,c),
(350,326,o),
(374,330,o),
(396,336,c),
(428,312,o),
(444,235,o),
(458,178,cs),
(481,88,o),
(505,-8,o),
(591,-8,cs),
(657,-8,o),
(699,66,o),
(756,212,cs),
(758,217,o),
(759,222,o),
(759,226,cs),
(759,243,o),
(747,256,o),
(734,256,cs),
(725,256,o),
(715,249,o),
(708,233,cs)
);
}
);
width = 675;
}
);
leftKerningGroup = K;
rightKerningGroup = A;
unicode = 75;
},
{
glyphname = L;
layers = (
{
anchors = (
{
name = t.uni0302_2;
position = "{402, 700}";
},
{
name = b.uni0326_1_2;
position = "{329, 0}";
}
);
hints = (
{
horizontal = 1;
place = (-4,63);
type = Stem;
},
{
horizontal = 1;
place = (36,65);
type = Stem;
},
{
horizontal = 1;
place = (461,63);
type = Stem;
},
{
horizontal = 1;
place = (641,64);
type = Stem;
},
{
place = (421,69);
type = Stem;
}
);
layerId = "2F54779E-88EF-414D-815E-FD45B9A14596";
shapes = (
{
closed = 1;
nodes = (
(529,111,o),
(495,59,o),
(456,59,cs),
(403,59,o),
(326,101,o),
(257,101,cs),
(242,101,o),
(216,100,o),
(192,94,c),
(255,171,o),
(274,259,o),
(295,455,c),
(295,457,o),
(295,459,o),
(296,461,c),
(308,461,ls),
(411,461,o),
(490,528,o),
(490,613,cs),
(490,667,o),
(450,705,o),
(394,705,cs),
(317,705,o),
(263,648,o),
(238,539,c),
(199,558,o),
(169,593,o),
(158,641,cs),
(153,663,o),
(141,670,o),
(127,670,cs),
(110,670,o),
(96,657,o),
(96,637,cs),
(96,573,o),
(151,506,o),
(227,477,c),
(226,471,o),
(226,466,o),
(225,461,cs),
(202,236,o),
(175,156,o),
(81,71,cs),
(71,62,o),
(65,50,o),
(65,38,cs),
(65,19,o),
(81,4,o),
(101,4,cs),
(106,4,o),
(114,6,o),
(124,10,cs),
(173,30,o),
(205,36,o),
(247,36,cs),
(304,36,o),
(402,-4,o),
(452,-4,cs),
(528,-4,o),
(572,67,o),
(626,212,cs),
(628,217,o),
(629,222,o),
(629,227,cs),
(629,244,o),
(617,254,o),
(604,254,cs),
(594,254,o),
(584,248,o),
(578,233,cs)
);
},
{
closed = 1;
nodes = (
(407,641,o),
(421,627,o),
(421,606,cs),
(421,560,o),
(371,524,o),
(307,524,cs),
(305,524,l),
(321,602,o),
(348,641,o),
(386,641,cs)
);
}
);
width = 545;
}
);
leftKerningGroup = L;
rightKerningGroup = A;
unicode = 76;
},
{
glyphname = M;
layers = (
{
hints = (
{
horizontal = 1;
place = (-7,63);
type = Stem;
},
{
horizontal = 1;
place = (549,63);
type = Stem;
},
{
horizontal = 1;
place = (654,63);
type = Stem;
},
{
horizontal = 1;
place = (657,63);
type = Stem;
},
{
place = (250,65);
type = Stem;
},
{
place = (637,69);
type = Stem;
},
{
place = (958,70);
type = Stem;
},
{
place = (974,70);
type = Stem;
}
);
layerId = "2F54779E-88EF-414D-815E-FD45B9A14596";
shapes = (
{
closed = 1;
nodes = (
(1125,115,o),
(1088,56,o),
(1058,56,cs),
(1040,56,o),
(1028,71,o),
(1028,118,cs),
(1028,148,o),
(1044,397,o),
(1044,463,cs),
(1044,563,o),
(995,612,o),
(916,612,cs),
(831,612,o),
(760,553,o),
(705,444,c),
(706,465,o),
(706,487,o),
(706,508,cs),
(706,663,o),
(648,720,o),
(566,720,cs),
(460,720,o),
(374,622,o),
(315,443,c),
(302,664,o),
(237,717,o),
(152,717,cs),
(104,717,o),
(68,695,o),
(39,653,cs),
(30,640,o),
(26,627,o),
(26,616,cs),
(26,599,o),
(37,586,o),
(51,586,cs),
(62,586,o),
(73,594,o),
(81,607,cs),
(102,640,o),
(126,654,o),
(152,654,cs),
(225,654,o),
(250,538,o),
(250,299,cs),
(250,208,o),
(228,81,o),
(228,33,cs),
(228,9,o),
(241,-6,o),
(261,-6,cs),
(281,-6,o),
(294,8,o),
(297,31,cs),
(299,47,o),
(306,110,o),
(313,177,c),
(346,448,o),
(446,657,o),
(556,657,cs),
(607,657,o),
(637,627,o),
(637,512,cs),
(637,333,o),
(611,217,o),
(598,123,cs),
(597,116,o),
(593,95,o),
(593,89,cs),
(593,67,o),
(606,53,o),
(626,53,cs),
(644,53,o),
(658,66,o),
(662,86,cs),
(670,128,o),
(678,173,o),
(685,222,c),
(723,414,o),
(820,549,o),
(913,549,cs),
(950,549,o),
(974,525,o),
(974,461,cs),
(974,386,o),
(958,168,o),
(958,125,cs),
(958,33,o),
(996,-7,o),
(1053,-7,cs),
(1122,-7,o),
(1164,67,o),
(1217,212,cs),
(1219,217,o),
(1220,222,o),
(1220,227,cs),
(1220,244,o),
(1208,255,o),
(1195,255,cs),
(1185,255,o),
(1175,248,o),
(1169,233,cs)
);
}
);
width = 1136;
}
);
leftKerningGroup = M;
rightKerningGroup = A;
unicode = 77;
},
{
glyphname = N;
layers = (
{
anchors = (
{
name = t.uni0302_2;
position = "{551, 700}";
},
{
name = b.uni0326_1_2;
position = "{503, 0}";
}
);
hints = (
{
horizontal = 1;
place = (-6,61);
type = Stem;
},
{
horizontal = 1;
place = (641,63);
type = Stem;
},
{
horizontal = 1;
place = (651,63);
type = Stem;
},
{
place = (258,65);
type = Stem;
},
{
place = (629,70);
type = Stem;
},
{
place = (645,70);
type = Stem;
}
);
layerId = "2F54779E-88EF-414D-815E-FD45B9A14596";
shapes = (
{
closed = 1;
nodes = (
(791,117,o),
(763,55,o),
(732,55,cs),
(712,55,o),
(699,76,o),
(699,122,cs),
(699,156,o),
(715,428,o),
(715,495,cs),
(715,642,o),
(658,704,o),
(564,704,cs),
(459,704,o),
(380,606,o),
(323,440,c),
(311,630,o),
(255,714,o),
(156,714,cs),
(113,714,o),
(69,696,o),
(40,652,cs),
(32,640,o),
(26,624,o),
(26,614,cs),
(26,597,o),
(39,587,o),
(53,587,cs),
(64,587,o),
(76,592,o),
(84,605,cs),
(108,644,o),
(129,651,o),
(154,651,cs),
(228,651,o),
(258,543,o),
(258,310,cs),
(258,196,o),
(235,61,o),
(235,33,cs),
(235,8,o),
(251,-5,o),
(268,-5,cs),
(285,-5,o),
(302,8,o),
(305,36,cs),
(309,74,o),
(316,129,o),
(322,190,cs),
(346,433,o),
(455,641,o),
(559,641,cs),
(610,641,o),
(645,606,o),
(645,490,cs),
(645,389,o),
(629,186,o),
(629,121,cs),
(629,38,o),
(669,-6,o),
(725,-6,cs),
(800,-6,o),
(831,67,o),
(885,212,cs),
(887,217,o),
(888,222,o),
(888,227,cs),
(888,244,o),
(876,254,o),
(863,254,cs),
(853,254,o),
(843,248,o),
(837,233,cs)
);
}
);
width = 804;
}
);
leftKerningGroup = M;
rightKerningGroup = A;
unicode = 78;
},
{
glyphname = O;
layers = (
{
anchors = (
{
name = t.uni0302_2;
position = "{455, 700}";
}
);
hints = (
{
horizontal = 1;
place = (-7,63);
type = Stem;
},
{
horizontal = 1;
place = (62,61);
type = Stem;
},
{
horizontal = 1;
place = (648,63);
type = Stem;
},
{
place = (107,70);
type = Stem;
},
{
place = (257,68);
type = Stem;
},
{
place = (584,70);
type = Stem;
}
);
layerId = "2F54779E-88EF-414D-815E-FD45B9A14596";
shapes = (
{
closed = 1;
nodes = (
(693,160,o),
(639,128,o),
(581,123,c),
(625,193,o),
(654,292,o),
(654,420,cs),
(654,602,o),
(575,711,o),
(452,711,cs),
(417,711,o),
(381,698,o),
(349,670,c),
(346,682,o),
(335,689,o),
(319,689,cs),
(309,689,o),
(299,687,o),
(288,682,cs),
(191,638,o),
(107,482,o),
(107,312,cs),
(107,116,o),
(210,-7,o),
(368,-7,cs),
(426,-7,o),
(484,16,o),
(533,63,c),
(542,63,o),
(551,62,o),
(560,62,cs),
(652,62,o),
(733,115,o),
(770,212,cs),
(772,217,o),
(773,221,o),
(773,226,cs),
(773,242,o),
(760,254,o),
(747,254,cs),
(738,254,o),
(728,248,o),
(722,233,cs)
);
},
{
closed = 1;
nodes = (
(534,648,o),
(584,563,o),
(584,423,cs),
(584,286,o),
(551,190,o),
(505,131,c),
(411,161,o),
(325,261,o),
(325,415,cs),
(325,563,o),
(379,648,o),
(456,648,cs)
);
},
{
closed = 1;
nodes = (
(251,56,o),
(177,151,o),
(177,310,cs),
(177,443,o),
(229,564,o),
(302,611,c),
(275,563,o),
(257,497,o),
(257,412,cs),
(257,243,o),
(348,129,o),
(455,84,c),
(427,65,o),
(398,56,o),
(369,56,cs)
);
}
);
width = 689;
}
);
leftKerningGroup = O;
rightKerningGroup = A;
unicode = 79;
},
{
glyphname = P;
layers = (
{
hints = (
{
horizontal = 1;
place = (-7,21);
target = up;
type = BottomGhost;
},
{
horizontal = 1;
place = (200,63);
type = Stem;
},
{
horizontal = 1;
place = (647,63);
type = Stem;
},
{
place = (24,67);
type = Stem;
},
{
place = (144,70);
type = Stem;
},
{
place = (188,70);
type = Stem;
},
{
place = (511,70);
type = Stem;
}
);
layerId = "2F54779E-88EF-414D-815E-FD45B9A14596";
shapes = (
{
closed = 1;
nodes = (
(138,710,o),
(24,601,o),
(24,463,cs),
(24,435,o),
(38,415,o),
(57,415,cs),
(77,415,o),
(91,434,o),
(91,463,cs),
(91,570,o),
(172,647,o),
(314,647,cs),
(433,647,o),
(511,574,o),
(511,459,cs),
(511,341,o),
(437,263,o),
(331,263,cs),
(303,263,o),
(272,268,o),
(247,276,c),
(253,326,o),
(258,378,o),
(258,432,cs),
(258,484,o),
(248,563,o),
(206,563,cs),
(188,563,o),
(174,549,o),
(174,529,cs),
(174,512,o),
(188,488,o),
(188,432,cs),
(188,289,o),
(144,128,o),
(144,29,cs),
(144,7,o),
(158,-7,o),
(178,-7,cs),
(199,-7,o),
(214,8,o),
(214,30,cs),
(214,78,o),
(226,142,o),
(238,216,c),
(267,206,o),
(300,200,o),
(335,200,cs),
(470,200,o),
(581,311,o),
(581,459,cs),
(581,609,o),
(474,710,o),
(314,710,cs)
);
}
);
width = 584;
}
);
leftKerningGroup = P2;
rightKerningGroup = P;
unicode = 80;
},
{
glyphname = Q;
layers = (
{
hints = (
{
horizontal = 1;
place = (-9,63);
type = Stem;
},
{
horizontal = 1;
place = (-8,63);
type = Stem;
},
{
horizontal = 1;
place = (137,61);
type = Stem;
},
{
horizontal = 1;
place = (648,63);
type = Stem;
},
{
place = (154,70);
type = Stem;
},
{
place = (208,67);
type = Stem;
},
{
place = (593,70);
type = Stem;
}
);
layerId = "2F54779E-88EF-414D-815E-FD45B9A14596";
shapes = (
{
closed = 1;
nodes = (
(703,136,o),
(651,54,o),
(610,54,cs),
(589,54,o),
(564,71,o),
(535,92,c),
(609,171,o),
(663,288,o),
(663,426,cs),
(663,611,o),
(561,711,o),
(427,711,cs),
(272,711,o),
(154,583,o),
(154,384,cs),
(154,339,o),
(159,296,o),
(174,255,cs),
(180,239,o),
(192,230,o),
(205,230,cs),
(225,230,o),
(239,245,o),
(239,266,cs),
(239,283,o),
(224,342,o),
(224,385,cs),
(224,546,o),
(305,648,o),
(424,648,cs),
(524,648,o),
(593,567,o),
(593,431,cs),
(593,305,o),
(544,200,o),
(482,133,c),
(437,167,o),
(386,198,o),
(329,198,cs),
(250,198,o),
(208,149,o),
(208,97,cs),
(208,46,o),
(249,-8,o),
(336,-8,cs),
(385,-8,o),
(438,12,o),
(486,48,c),
(525,18,o),
(565,-9,o),
(607,-9,cs),
(687,-9,o),
(748,101,o),
(789,212,cs),
(791,218,o),
(792,224,o),
(792,229,cs),
(792,246,o),
(781,257,o),
(769,257,cs),
(759,257,o),
(748,250,o),
(741,233,cs)
);
},
{
closed = 1;
nodes = (
(275,118,o),
(293,137,o),
(329,137,cs),
(365,137,o),
(400,116,o),
(434,90,c),
(401,68,o),
(367,55,o),
(336,55,cs),
(295,55,o),
(275,77,o),
(275,98,cs)
);
}
);
width = 708;
}
);
leftKerningGroup = Q;
rightKerningGroup = A;
unicode = 81;
},
{
glyphname = R;
layers = (
{
anchors = (
{
name = t.uni0302_2;
position = "{345, 700}";
},
{
name = b.uni0326_1_2;
position = "{365, 0}";
}
);
hints = (
{
horizontal = 1;
place = (-8,63);
type = Stem;
},
{
horizontal = 1;
place = (289,63);
type = Stem;
},
{
horizontal = 1;
place = (299,64);
type = Stem;
},
{
horizontal = 1;
place = (641,63);
type = Stem;
},
{
place = (42,70);
type = Stem;
},
{
place = (159,70);
type = Stem;
},
{
place = (193,70);
type = Stem;
},
{
place = (203,70);
type = Stem;
},
{
place = (501,70);
type = Stem;
}
);
layerId = "2F54779E-88EF-414D-815E-FD45B9A14596";
shapes = (
{
closed = 1;
nodes = (
(624,123,o),
(587,55,o),
(559,55,cs),
(528,55,o),
(507,98,o),
(465,185,cs),
(444,229,o),
(425,270,o),
(403,298,c),
(501,325,o),
(571,408,o),
(571,505,cs),
(571,617,o),
(482,704,o),
(334,704,cs),
(169,704,o),
(42,597,o),
(42,465,cs),
(42,435,o),
(57,416,o),
(77,416,cs),
(97,416,o),
(112,435,o),
(112,465,cs),
(112,564,o),
(209,641,o),
(334,641,cs),
(443,641,o),
(501,584,o),
(501,506,cs),
(501,416,o),
(439,352,o),
(330,352,cs),
(305,352,o),
(286,353,o),
(270,354,c),
(272,376,o),
(273,400,o),
(273,424,cs),
(273,517,o),
(257,560,o),
(223,560,cs),
(206,560,o),
(192,544,o),
(192,523,cs),
(192,504,o),
(203,481,o),
(203,424,cs),
(203,403,o),
(202,382,o),
(201,363,c),
(197,363,ls),
(175,363,o),
(164,347,o),
(164,330,cs),
(164,316,o),
(173,302,o),
(192,299,c),
(193,299,l),
(187,254,o),
(178,214,o),
(172,176,cs),
(166,138,o),
(159,85,o),
(159,24,cs),
(159,4,o),
(177,-9,o),
(194,-9,cs),
(212,-9,o),
(229,3,o),
(229,34,cs),
(229,88,o),
(236,134,o),
(245,187,cs),
(251,220,o),
(258,254,o),
(263,292,c),
(286,290,o),
(310,289,o),
(330,289,c),
(354,261,o),
(376,213,o),
(397,166,cs),
(431,87,o),
(473,-8,o),
(551,-8,cs),
(621,-8,o),
(659,68,o),
(715,212,cs),
(717,218,o),
(718,224,o),
(718,229,cs),
(718,245,o),
(707,256,o),
(694,256,cs),
(684,256,o),
(673,249,o),
(667,233,cs)
);
}
);
width = 634;
}
);
leftKerningGroup = R;
rightKerningGroup = A;
unicode = 82;
},
{
glyphname = S;
layers = (
{
anchors = (
{
name = t.uni0302_2;
position = "{321, 700}";
},
{
name = b.uni0326_1_2;
position = "{295, 0}";
}
);
hints = (
{
horizontal = 1;
place = (-9,63);
type = Stem;
},
{
horizontal = 1;
place = (647,63);
type = Stem;
},
{
place = (70,70);
type = Stem;
},
{
place = (145,70);
type = Stem;
},
{
place = (392,65);
type = Stem;
},
{
place = (425,70);
type = Stem;
}
);
layerId = "2F54779E-88EF-414D-815E-FD45B9A14596";
shapes = (
{
closed = 1;
nodes = (
(402,-9,o),
(495,77,o),
(495,189,cs),
(495,293,o),
(413,348,o),
(341,406,cs),
(277,457,o),
(215,499,o),
(215,560,cs),
(215,619,o),
(261,647,o),
(307,647,cs),
(350,647,o),
(392,622,o),
(392,573,cs),
(392,560,o),
(390,554,o),
(390,544,cs),
(390,527,o),
(403,516,o),
(421,516,cs),
(443,516,o),
(457,538,o),
(457,576,cs),
(457,666,o),
(384,710,o),
(309,710,cs),
(228,710,o),
(145,660,o),
(145,563,cs),
(145,469,o),
(225,410,o),
(300,352,cs),
(363,303,o),
(425,259,o),
(425,189,cs),
(425,111,o),
(365,54,o),
(280,54,cs),
(199,54,o),
(140,106,o),
(140,176,cs),
(140,216,o),
(158,253,o),
(158,272,cs),
(158,289,o),
(145,302,o),
(127,302,cs),
(110,302,o),
(96,290,o),
(89,271,cs),
(76,235,o),
(70,204,o),
(70,177,cs),
(70,67,o),
(156,-9,o),
(280,-9,cs)
);
}
);
width = 480;
}
);
leftKerningGroup = S2;
rightKerningGroup = S;
unicode = 83;
},
{
glyphname = T;
layers = (
{
anchors = (
{
name = t.uni0302_2;
position = "{421, 696}";
},
{
name = b.uni0326_1_2;
position = "{267, 0}";
}
);
hints = (
{
horizontal = 1;
place = (-6,63);
type = Stem;
},
{
horizontal = 1;
place = (601,63);
type = Stem;
},
{
horizontal = 1;
place = (643,63);
type = Stem;
},
{
place = (90,70);
type = Stem;
}
);
layerId = "2F54779E-88EF-414D-815E-FD45B9A14596";
shapes = (
{
closed = 1;
nodes = (
(619,737,o),
(636,664,o),
(543,664,cs),
(459,664,o),
(340,706,o),
(251,706,cs),
(153,706,o),
(90,653,o),
(90,571,cs),
(90,518,o),
(118,475,o),
(154,455,cs),
(170,446,o),
(187,438,o),
(201,438,cs),
(223,438,o),
(234,452,o),
(234,466,cs),
(234,479,o),
(227,488,o),
(213,496,cs),
(174,518,o),
(160,541,o),
(160,572,cs),
(160,614,o),
(198,643,o),
(251,643,cs),
(280,643,o),
(319,636,o),
(363,627,c),
(340,300,ls),
(328,130,o),
(297,57,o),
(240,57,cs),
(206,57,o),
(177,82,o),
(165,111,cs),
(157,130,o),
(143,138,o),
(131,138,cs),
(115,138,o),
(101,124,o),
(101,102,cs),
(101,94,o),
(103,84,o),
(108,73,cs),
(127,30,o),
(175,-6,o),
(238,-6,cs),
(342,-6,o),
(398,90,o),
(410,294,cs),
(413,341,o),
(421,471,o),
(432,614,c),
(474,607,o),
(517,601,o),
(556,601,cs),
(627,601,o),
(686,654,o),
(686,707,cs),
(686,726,o),
(674,737,o),
(659,737,cs)
);
}
);
width = 606;
}
);
leftKerningGroup = T2;
rightKerningGroup = T;
unicode = 84;
},
{
glyphname = U;
layers = (
{
anchors = (
{
name = t.uni0302_2;
position = "{408, 700}";
}
);
hints = (
{
horizontal = 1;
place = (-6,63);
type = Stem;
},
{
horizontal = 1;
place = (647,63);
type = Stem;
},
{
place = (149,70);
type = Stem;
},
{
place = (213,70);
type = Stem;
},
{
place = (516,69);
type = Stem;
},
{
place = (544,70);
type = Stem;
}
);
layerId = "2F54779E-88EF-414D-815E-FD45B9A14596";
shapes = (
{
closed = 1;
nodes = (
(698,114,o),
(669,57,o),
(636,57,cs),
(602,57,o),
(585,124,o),
(585,240,cs),
(585,351,o),
(592,421,o),
(611,557,cs),
(613,571,o),
(614,582,o),
(614,586,cs),
(614,608,o),
(600,624,o),
(581,624,cs),
(562,624,o),
(547,609,o),
(544,584,c),
(544,580,o),
(543,576,o),
(542,572,cs),
(495,285,o),
(389,57,o),
(284,57,cs),
(241,57,o),
(219,80,o),
(219,136,cs),
(219,231,o),
(283,520,o),
(283,594,cs),
(283,670,o),
(242,710,o),
(181,710,cs),
(130,710,o),
(89,678,o),
(57,622,cs),
(53,615,o),
(52,609,o),
(52,603,cs),
(52,587,o),
(65,576,o),
(80,576,cs),
(89,576,o),
(100,580,o),
(107,592,cs),
(130,632,o),
(151,647,o),
(173,647,cs),
(201,647,o),
(213,628,o),
(213,596,cs),
(213,542,o),
(149,225,o),
(149,137,cs),
(149,44,o),
(198,-6,o),
(279,-6,cs),
(384,-6,o),
(462,106,o),
(516,261,c),
(516,214,ls),
(516,57,o),
(563,-6,o),
(631,-6,cs),
(700,-6,o),
(738,67,o),
(794,212,cs),
(796,217,o),
(797,222,o),
(797,227,cs),
(797,243,o),
(785,255,o),
(772,255,cs),
(762,255,o),
(752,249,o),
(746,233,cs)
);
}
);
width = 713;
}
);
leftKerningGroup = U;
rightKerningGroup = A;
unicode = 85;
},
{
glyphname = V;
layers = (
{
hints = (
{
horizontal = 1;
place = (-9,21);
target = up;
type = BottomGhost;
},
{
horizontal = 1;
place = (646,63);
type = Stem;
},
{
horizontal = 1;
place = (706,-20);
target = down;
type = TopGhost;
},
{
place = (18,662);
type = Stem;
}
);
layerId = "2F54779E-88EF-414D-815E-FD45B9A14596";
shapes = (
{
closed = 1;
nodes = (
(636,706,o),
(625,701,o),
(615,692,cs),
(483,573,o),
(397,375,o),
(333,136,c),
(321,223,o),
(306,356,o),
(289,551,cs),
(280,653,o),
(231,709,o),
(153,709,cs),
(93,709,o),
(45,669,o),
(26,632,cs),
(21,622,o),
(18,612,o),
(18,603,cs),
(18,586,o),
(29,577,o),
(42,577,cs),
(52,577,o),
(63,582,o),
(70,594,cs),
(94,635,o),
(119,646,o),
(148,646,cs),
(189,646,o),
(213,613,o),
(219,552,cs),
(242,319,o),
(256,161,o),
(285,34,cs),
(292,3,o),
(309,-9,o),
(329,-9,cs),
(347,-9,o),
(360,2,o),
(367,28,cs),
(429,257,o),
(515,505,o),
(661,640,cs),
(674,652,o),
(680,664,o),
(680,674,cs),
(680,692,o),
(666,706,o),
(647,706,cs)
);
}
);
width = 549;
}
);
unicode = 86;
},
{
glyphname = W;
layers = (
{
anchors = (
{
name = t.uni0302_2;
position = "{584, 700}";
}
);
hints = (
{
horizontal = 1;
place = (-6,63);
type = Stem;
},
{
horizontal = 1;
place = (3,63);
type = Stem;
},
{
horizontal = 1;
place = (649,63);
type = Stem;
},
{
horizontal = 1;
place = (706,-20);
target = down;
type = TopGhost;
},
{
place = (170,70);
type = Stem;
},
{
place = (217,70);
type = Stem;
},
{
place = (525,63);
type = Stem;
},
{
place = (538,70);
type = Stem;
},
{
place = (865,70);
type = Stem;
}
);
layerId = "2F54779E-88EF-414D-815E-FD45B9A14596";
shapes = (
{
closed = 1;
nodes = (
(879,697,o),
(867,706,o),
(854,706,cs),
(835,706,o),
(820,692,o),
(820,673,cs),
(820,665,o),
(823,655,o),
(831,639,cs),
(849,604,o),
(865,530,o),
(865,457,cs),
(865,168,o),
(764,66,o),
(696,66,cs),
(634,66,o),
(588,136,o),
(588,318,cs),
(588,401,o),
(601,475,o),
(604,496,cs),
(607,514,o),
(609,525,o),
(609,531,cs),
(609,552,o),
(595,568,o),
(575,568,cs),
(557,568,o),
(542,553,o),
(539,530,c),
(538,520,l),
(489,235,o),
(405,57,o),
(313,57,cs),
(271,57,o),
(240,88,o),
(240,162,cs),
(240,257,o),
(287,534,o),
(287,598,cs),
(287,671,o),
(246,712,o),
(183,712,cs),
(131,712,o),
(91,685,o),
(69,655,cs),
(58,640,o),
(53,625,o),
(53,612,cs),
(53,597,o),
(64,586,o),
(77,586,cs),
(87,586,o),
(98,591,o),
(107,604,cs),
(128,635,o),
(149,649,o),
(175,649,cs),
(200,649,o),
(217,632,o),
(217,601,cs),
(217,542,o),
(170,263,o),
(170,155,cs),
(170,55,o),
(226,-6,o),
(312,-6,cs),
(403,-6,o),
(472,76,o),
(525,240,c),
(538,73,o),
(604,3,o),
(691,3,cs),
(803,3,o),
(935,133,o),
(935,445,cs),
(935,532,o),
(917,618,o),
(891,672,cs)
);
}
);
width = 953;
}
);
leftKerningGroup = W2;
rightKerningGroup = W;
unicode = 87;
},
{
glyphname = X;
layers = (
{
hints = (
{
horizontal = 1;
place = (0,63);
type = Stem;
},
{
horizontal = 1;
place = (699,-20);
target = down;
type = TopGhost;
},
{
horizontal = 1;
place = (706,-20);
target = down;
type = TopGhost;
},
{
place = (39,568);
type = Stem;
}
);
layerId = "2F54779E-88EF-414D-815E-FD45B9A14596";
shapes = (
{
closed = 1;
nodes = (
(566,699,o),
(554,695,o),
(542,686,cs),
(484,643,o),
(406,527,o),
(342,386,c),
(307,484,o),
(285,584,o),
(280,675,cs),
(279,693,o),
(265,706,o),
(244,706,cs),
(225,706,o),
(210,691,o),
(210,671,cs),
(210,663,o),
(211,653,o),
(212,643,cs),
(223,532,o),
(255,412,o),
(304,297,c),
(238,144,o),
(193,63,o),
(149,63,cs),
(130,63,o),
(111,76,o),
(95,92,cs),
(85,102,o),
(76,106,o),
(67,106,cs),
(51,106,o),
(39,92,o),
(39,75,cs),
(39,66,o),
(42,57,o),
(49,48,cs),
(73,17,o),
(112,0,o),
(149,0,cs),
(232,0,o),
(288,94,o),
(343,216,c),
(390,126,o),
(448,43,o),
(515,-24,cs),
(525,-34,o),
(534,-38,o),
(542,-38,cs),
(560,-38,o),
(577,-22,o),
(577,-4,cs),
(577,7,o),
(573,15,o),
(565,23,cs),
(489,99,o),
(426,195,o),
(378,299,c),
(467,503,o),
(537,593,o),
(593,642,cs),
(602,650,o),
(607,661,o),
(607,670,cs),
(607,686,o),
(592,699,o),
(575,699,cs)
);
}
);
width = 564;
}
);
unicode = 88;
},
{
glyphname = Y;
layers = (
{
anchors = (
{
name = t.uni0302_2;
position = "{444, 700}";
}
);
hints = (
{
horizontal = 1;
place = (-9,63);
type = Stem;
},
{
horizontal = 1;
place = (239,63);
type = Stem;
},
{
horizontal = 1;
place = (637,63);
type = Stem;
},
{
place = (248,70);
type = Stem;
},
{
place = (262,70);
type = Stem;
},
{
place = (580,70);
type = Stem;
}
);
layerId = "2F54779E-88EF-414D-815E-FD45B9A14596";
shapes = (
{
closed = 1;
nodes = (
(644,687,o),
(629,698,o),
(614,698,cs),
(595,698,o),
(577,684,o),
(577,660,cs),
(577,634,o),
(580,626,o),
(580,565,c),
(578,415,o),
(496,302,o),
(400,302,cs),
(349,302,o),
(318,333,o),
(318,394,cs),
(318,450,o),
(332,574,o),
(332,594,cs),
(332,655,o),
(289,700,o),
(229,700,cs),
(183,700,o),
(138,671,o),
(104,628,cs),
(96,618,o),
(93,608,o),
(93,599,cs),
(93,583,o),
(105,571,o),
(119,571,cs),
(128,571,o),
(138,575,o),
(147,585,cs),
(183,625,o),
(204,637,o),
(225,637,cs),
(248,637,o),
(262,622,o),
(262,591,cs),
(262,562,o),
(248,461,o),
(248,395,cs),
(248,294,o),
(303,239,o),
(394,239,cs),
(465,239,o),
(520,280,o),
(560,340,c),
(531,185,o),
(470,54,o),
(369,54,cs),
(337,54,o),
(310,68,o),
(282,103,cs),
(273,114,o),
(264,119,o),
(255,119,cs),
(237,119,o),
(225,106,o),
(225,90,cs),
(225,80,o),
(229,69,o),
(235,60,cs),
(263,17,o),
(312,-9,o),
(370,-9,cs),
(561,-9,o),
(641,252,o),
(650,557,cs),
(651,590,o),
(649,631,o),
(646,664,cs)
);
}
);
width = 658;
}
);
leftKerningGroup = Y2;
rightKerningGroup = Y;
unicode = 89;
},
{
glyphname = Z;
layers = (
{
anchors = (
{
name = t.uni0302_2;
position = "{359, 700}";
}
);
hints = (
{
horizontal = 1;
place = (-4,60);
type = Stem;
},
{
horizontal = 1;
place = (-4,63);
type = Stem;
},
{
horizontal = 1;
place = (108,59);
type = Stem;
},
{
horizontal = 1;
place = (608,62);
type = Stem;
},
{
horizontal = 1;
place = (639,63);
type = Stem;
},
{
horizontal = 1;
place = (699,-20);
target = down;
type = TopGhost;
},
{
place = (57,67);
type = Stem;
},
{
place = (118,67);
type = Stem;
}
);
layerId = "2F54779E-88EF-414D-815E-FD45B9A14596";
shapes = (
{
closed = 1;
nodes = (
(559,141,o),
(497,59,o),
(449,59,cs),
(414,59,o),
(373,80,o),
(330,103,c),
(339,116,o),
(348,130,o),
(357,146,cs),
(459,323,o),
(578,602,o),
(578,666,cs),
(578,686,o),
(565,699,o),
(545,699,cs),
(517,699,o),
(488,670,o),
(445,670,cs),
(369,670,o),
(298,702,o),
(232,702,cs),
(163,702,o),
(118,655,o),
(118,586,cs),
(118,535,o),
(138,497,o),
(171,497,cs),
(187,497,o),
(200,509,o),
(200,526,cs),
(200,541,o),
(185,564,o),
(185,586,cs),
(185,620,o),
(202,639,o),
(232,639,cs),
(295,639,o),
(366,608,o),
(443,608,cs),
(460,608,o),
(477,609,o),
(495,613,c),
(441,473,o),
(337,234,o),
(268,136,c),
(232,153,o),
(196,167,o),
(162,167,cs),
(93,167,o),
(57,124,o),
(57,81,cs),
(57,38,o),
(93,-4,o),
(168,-4,cs),
(214,-4,o),
(253,15,o),
(289,52,c),
(342,24,o),
(399,-4,o),
(446,-4,cs),
(517,-4,o),
(592,69,o),
(646,212,cs),
(648,217,o),
(649,222,o),
(649,227,cs),
(649,244,o),
(638,254,o),
(625,254,cs),
(615,254,o),
(604,248,o),
(598,233,cs)
);
},
{
closed = 1;
nodes = (
(137,56,o),
(124,68,o),
(124,80,cs),
(124,94,o),
(135,108,o),
(161,108,cs),
(177,108,o),
(200,99,o),
(225,86,c),
(204,66,o),
(182,56,o),
(161,56,cs)
);
}
);
width = 565;
}
);
leftKerningGroup = Z;
rightKerningGroup = A;
unicode = 90;
},
{
glyphname = bracketleft;
layers = (
{
hints = (
{
horizontal = 1;
place = (-17,59);
type = Stem;
},
{
horizontal = 1;
place = (609,58);
type = Stem;
},
{
place = (80,62);
type = Stem;
}
);
layerId = "2F54779E-88EF-414D-815E-FD45B9A14596";
shapes = (
{
closed = 1;
nodes = (
(253,-12,o),
(263,2,o),
(263,16,cs),
(263,31,o),
(251,46,o),
(226,45,c),
(211,43,o),
(195,42,o),
(181,42,cs),
(168,42,o),
(158,43,o),
(155,47,cs),
(145,58,o),
(142,209,o),
(142,332,cs),
(142,431,o),
(144,574,o),
(158,597,cs),
(166,610,o),
(196,609,o),
(233,609,cs),
(257,609,o),
(268,624,o),
(268,638,cs),
(268,652,o),
(258,665,o),
(237,666,cs),
(223,667,o),
(208,667,o),
(194,667,cs),
(155,667,o),
(120,664,o),
(109,649,cs),
(89,624,o),
(80,472,o),
(80,332,cs),
(80,320,o),
(80,307,o),
(80,295,cs),
(80,169,o),
(81,23,o),
(99,-3,cs),
(106,-13,o),
(137,-17,o),
(173,-17,cs),
(193,-17,o),
(214,-16,o),
(233,-14,cs)
);
}
);
width = 298;
}
);
unicode = 91;
},
{
glyphname = backslash;
layers = (
{
hints = (
{
horizontal = 1;
place = (2,660);
type = Stem;
},
{
place = (36,315);
type = Stem;
}
);
layerId = "2F54779E-88EF-414D-815E-FD45B9A14596";
shapes = (
{
closed = 1;
nodes = (
(339,2,o),
(351,15,o),
(351,34,cs),
(351,41,o),
(348,48,o),
(343,56,cs),
(261,174,o),
(178,538,o),
(89,646,cs),
(80,657,o),
(70,662,o),
(62,662,cs),
(48,662,o),
(36,650,o),
(36,634,cs),
(36,627,o),
(38,618,o),
(44,610,cs),
(134,482,o),
(211,144,o),
(297,20,cs),
(306,7,o),
(315,2,o),
(324,2,cs)
);
}
);
width = 382;
}
);
unicode = 92;
},
{
glyphname = bracketright;
layers = (
{
hints = (
{
horizontal = 1;
place = (-14,56);
type = Stem;
},
{
horizontal = 1;
place = (609,58);
type = Stem;
},
{
place = (156,62);
type = Stem;
}
);
layerId = "2F54779E-88EF-414D-815E-FD45B9A14596";
shapes = (
{
closed = 1;
nodes = (
(84,-16,o),
(106,-17,o),
(126,-17,cs),
(161,-17,o),
(192,-13,o),
(199,-3,cs),
(217,23,o),
(218,169,o),
(218,295,cs),
(218,307,o),
(218,320,o),
(218,332,cs),
(218,472,o),
(209,624,o),
(189,649,cs),
(177,664,o),
(142,667,o),
(104,667,cs),
(90,667,o),
(75,667,o),
(61,666,cs),
(40,665,o),
(30,652,o),
(30,638,cs),
(30,624,o),
(41,609,o),
(65,609,cs),
(102,609,o),
(132,610,o),
(140,597,cs),
(154,574,o),
(156,431,o),
(156,332,cs),
(156,209,o),
(153,58,o),
(143,47,cs),
(140,43,o),
(130,42,o),
(117,42,cs),
(103,42,o),
(87,43,o),
(72,45,cs),
(47,48,o),
(35,33,o),
(35,17,cs),
(35,3,o),
(45,-12,o),
(65,-14,cs)
);
}
);
width = 298;
}
);
unicode = 93;
},
{
glyphname = asciicircum;
layers = (
{
hints = (
{
horizontal = 1;
place = (382,295);
type = Stem;
},
{
place = (30,284);
type = Stem;
}
);
layerId = "2F54779E-88EF-414D-815E-FD45B9A14596";
shapes = (
{
closed = 1;
nodes = (
(67,382,o),
(78,388,o),
(85,403,cs),
(163,566,ls),
(166,572,o),
(169,575,o),
(173,575,cs),
(176,575,o),
(179,572,o),
(182,566,cs),
(259,403,ls),
(266,389,o),
(277,383,o),
(287,383,cs),
(301,383,o),
(314,393,o),
(314,410,cs),
(314,416,o),
(313,421,o),
(310,428,cs),
(203,656,ls),
(197,670,o),
(184,677,o),
(172,677,cs),
(160,677,o),
(148,670,o),
(141,656,cs),
(34,428,ls),
(31,422,o),
(30,416,o),
(30,410,cs),
(30,393,o),
(43,382,o),
(57,382,cs)
);
}
);
width = 344;
}
);
unicode = 94;
},
{
glyphname = underscore;
layers = (
{
hints = (
{
horizontal = 1;
place = (-14,53);
type = Stem;
},
{
place = (48,285);
type = Stem;
}
);
layerId = "2F54779E-88EF-414D-815E-FD45B9A14596";
shapes = (
{
closed = 1;
nodes = (
(321,-15,o),
(333,-2,o),
(333,11,cs),
(333,25,o),
(321,39,o),
(297,39,cs),
(236,39,o),
(129,41,o),
(84,41,cs),
(60,41,o),
(48,27,o),
(48,13,cs),
(48,0,o),
(60,-14,o),
(84,-14,cs),
(138,-14,o),
(240,-14,o),
(297,-15,c)
);
}
);
width = 356;
}
);
unicode = 95;
},
{
glyphname = grave;
layers = (
{
hints = (
{
horizontal = 1;
place = (764,127);
type = Stem;
},
{
place = (35,122);
type = Stem;
}
);
layerId = "2F54779E-88EF-414D-815E-FD45B9A14596";
shapes = (
{
closed = 1;
nodes = (
(85,877,ls),
(76,887,o),
(67,891,o),
(59,891,cs),
(45,891,o),
(35,880,o),
(35,866,cs),
(35,858,o),
(39,849,o),
(47,840,cs),
(107,777,ls),
(116,768,o),
(125,764,o),
(133,764,cs),
(147,764,o),
(157,774,o),
(157,788,cs),
(157,796,o),
(154,805,o),
(145,814,cs)
);
}
);
width = 197;
}
);
unicode = 96;
},
{
glyphname = a;
layers = (
{
anchors = (
{
name = t.uni0302_2;
position = "{224, 400}";
}
);
hints = (
{
horizontal = 1;
place = (-4,62);
type = Stem;
},
{
horizontal = 1;
place = (339,59);
type = Stem;
},
{
horizontal = 1;
place = (403,-20);
target = down;
type = TopGhost;
},
{
place = (24,66);
type = Stem;
},
{
place = (291,59);
type = Stem;
}
);
layerId = "2F54779E-88EF-414D-815E-FD45B9A14596";
shapes = (
{
closed = 1;
nodes = (
(445,114,o),
(413,58,o),
(387,58,cs),
(366,58,o),
(350,75,o),
(350,133,cs),
(350,231,o),
(364,348,o),
(364,369,cs),
(364,390,o),
(350,403,o),
(333,403,cs),
(316,403,o),
(303,390,o),
(296,370,c),
(270,389,o),
(238,398,o),
(212,398,cs),
(118,398,o),
(24,303,o),
(24,164,cs),
(24,57,o),
(84,-4,o),
(161,-4,cs),
(206,-4,o),
(251,17,o),
(291,78,c),
(306,23,o),
(338,-4,o),
(383,-4,cs),
(441,-4,o),
(486,62,o),
(541,212,cs),
(543,217,o),
(544,222,o),
(544,226,cs),
(544,242,o),
(532,253,o),
(519,253,cs),
(509,253,o),
(499,247,o),
(493,233,cs)
);
},
{
closed = 1;
nodes = (
(124,58,o),
(90,92,o),
(90,167,cs),
(90,271,o),
(157,339,o),
(224,339,cs),
(253,339,o),
(282,323,o),
(291,309,c),
(293,152,o),
(241,58,o),
(171,58,cs)
);
}
);
width = 460;
}
);
leftKerningGroup = a;
rightKerningGroup = A;
unicode = 97;
},
{
glyphname = b;
layers = (
{
hints = (
{
horizontal = 1;
place = (-2,62);
type = Stem;
},
{
horizontal = 1;
place = (334,62);
type = Stem;
},
{
horizontal = 1;
place = (434,60);
type = Stem;
},
{
horizontal = 1;
place = (648,62);
type = Stem;
},
{
place = (30,66);
type = Stem;
},
{
place = (127,62);
type = Stem;
},
{
place = (309,65);
type = Stem;
},
{
place = (311,66);
type = Stem;
}
);
layerId = "2F54779E-88EF-414D-815E-FD45B9A14596";
shapes = (
{
closed = 1;
nodes = (
(418,188,o),
(391,159,o),
(361,144,c),
(371,174,o),
(377,206,o),
(377,239,cs),
(377,342,o),
(323,396,o),
(250,396,cs),
(178,396,o),
(127,341,o),
(127,259,cs),
(127,168,o),
(183,105,o),
(252,85,c),
(237,70,o),
(218,60,o),
(198,60,cs),
(148,60,o),
(96,114,o),
(96,279,cs),
(96,336,o),
(101,388,o),
(110,435,c),
(121,434,o),
(131,434,o),
(143,434,cs),
(283,434,o),
(374,521,o),
(374,607,cs),
(374,664,o),
(329,710,o),
(263,710,cs),
(173,710,o),
(100,635,o),
(61,507,c),
(53,510,o),
(46,512,o),
(39,512,cs),
(21,512,o),
(9,498,o),
(9,483,cs),
(9,471,o),
(17,458,o),
(36,451,cs),
(39,450,o),
(43,449,o),
(46,447,c),
(36,395,o),
(30,335,o),
(30,270,cs),
(30,74,o),
(106,-2,o),
(194,-2,cs),
(249,-2,o),
(297,30,o),
(329,79,c),
(391,87,o),
(452,130,o),
(483,212,cs),
(485,217,o),
(486,221,o),
(486,225,cs),
(486,241,o),
(473,252,o),
(460,252,cs),
(450,252,o),
(440,246,o),
(435,233,cs)
);
},
{
closed = 1;
nodes = (
(290,648,o),
(309,629,o),
(309,602,cs),
(309,553,o),
(250,494,o),
(150,494,cs),
(141,494,o),
(133,494,o),
(125,495,c),
(155,589,o),
(204,648,o),
(261,648,cs)
);
},
{
closed = 1;
nodes = (
(189,303,o),
(217,334,o),
(248,334,cs),
(282,334,o),
(311,306,o),
(311,245,cs),
(311,210,o),
(302,168,o),
(286,134,c),
(232,146,o),
(189,194,o),
(189,256,cs)
);
}
);
width = 402;
}
);
leftKerningGroup = b;
rightKerningGroup = A;
unicode = 98;
},
{
glyphname = c;
layers = (
{
anchors = (
{
name = t.uni0302_2;
position = "{201, 400}";
},
{
name = b.uni0326_1_2;
position = "{196, 0}";
}
);
hints = (
{
horizontal = 1;
place = (-9,62);
type = Stem;
},
{
horizontal = 1;
place = (346,62);
type = Stem;
},
{
place = (24,66);
type = Stem;
},
{
place = (253,64);
type = Stem;
}
);
layerId = "2F54779E-88EF-414D-815E-FD45B9A14596";
shapes = (
{
closed = 1;
nodes = (
(306,-9,o),
(397,70,o),
(449,212,cs),
(451,218,o),
(452,223,o),
(452,228,cs),
(452,245,o),
(440,255,o),
(427,255,cs),
(417,255,o),
(407,248,o),
(401,233,cs),
(358,121,o),
(286,53,o),
(203,53,cs),
(125,53,o),
(90,117,o),
(90,186,cs),
(90,264,o),
(133,346,o),
(202,346,cs),
(233,346,o),
(252,327,o),
(253,298,cs),
(254,275,o),
(269,264,o),
(285,264,cs),
(301,264,o),
(317,276,o),
(317,302,cs),
(317,362,o),
(271,408,o),
(201,408,cs),
(92,408,o),
(24,295,o),
(24,187,cs),
(24,87,o),
(79,-9,o),
(200,-9,cs)
);
}
);
width = 368;
}
);
leftKerningGroup = c;
rightKerningGroup = A;
unicode = 99;
},
{
glyphname = d;
layers = (
{
hints = (
{
horizontal = 1;
place = (-2,62);
type = Stem;
},
{
horizontal = 1;
place = (1,62);
type = Stem;
},
{
horizontal = 1;
place = (353,60);
type = Stem;
},
{
horizontal = 1;
place = (397,-20);
target = down;
type = TopGhost;
},
{
horizontal = 1;
place = (647,62);
type = Stem;
},
{
place = (24,66);
type = Stem;
},
{
place = (274,64);
type = Stem;
},
{
place = (426,65);
type = Stem;
}
);
layerId = "2F54779E-88EF-414D-815E-FD45B9A14596";
shapes = (
{
closed = 1;
nodes = (
(492,139,o),
(443,63,o),
(407,63,cs),
(371,63,o),
(354,128,o),
(345,204,c),
(395,287,o),
(491,476,o),
(491,605,cs),
(491,673,o),
(457,709,o),
(407,709,cs),
(339,709,o),
(275,646,o),
(274,397,c),
(258,407,o),
(239,413,o),
(216,413,cs),
(100,413,o),
(24,268,o),
(24,149,cs),
(24,52,o),
(80,-2,o),
(151,-2,cs),
(214,-2,o),
(268,46,o),
(299,106,c),
(314,40,o),
(352,1,o),
(398,1,cs),
(478,1,o),
(535,103,o),
(579,212,cs),
(581,217,o),
(582,221,o),
(582,226,cs),
(582,242,o),
(569,255,o),
(556,255,cs),
(547,255,o),
(537,248,o),
(531,233,cs)
);
},
{
closed = 1;
nodes = (
(417,647,o),
(426,638,o),
(426,607,cs),
(426,561,o),
(392,414,o),
(339,307,c),
(338,330,o),
(338,351,o),
(338,369,cs),
(338,604,o),
(381,647,o),
(404,647,cs)
);
},
{
closed = 1;
nodes = (
(117,60,o),
(90,88,o),
(90,153,cs),
(90,239,o),
(143,353,o),
(224,353,cs),
(261,353,o),
(286,324,o),
(286,268,cs),
(286,141,o),
(211,60,o),
(157,60,cs)
);
}
);
width = 498;
}
);
leftKerningGroup = a;
rightKerningGroup = A;
unicode = 100;
},
{
glyphname = e;
layers = (
{
anchors = (
{
name = t.uni0302_2;
position = "{206, 390}";
}
);
hints = (
{
horizontal = 1;
place = (-7,62);
type = Stem;
},
{
horizontal = 1;
place = (160,55);
type = Stem;
},
{
horizontal = 1;
place = (345,62);
type = Stem;
},
{
place = (25,67);
type = Stem;
},
{
place = (269,65);
type = Stem;
}
);
layerId = "2F54779E-88EF-414D-815E-FD45B9A14596";
shapes = (
{
closed = 1;
nodes = (
(368,114,o),
(307,55,o),
(213,55,cs),
(149,55,o),
(97,99,o),
(92,183,c),
(118,169,o),
(152,160,o),
(189,160,cs),
(277,160,o),
(334,217,o),
(334,291,cs),
(334,358,o),
(283,407,o),
(206,407,cs),
(91,407,o),
(25,303,o),
(25,196,cs),
(25,63,o),
(109,-7,o),
(209,-7,cs),
(323,-7,o),
(408,65,o),
(463,212,cs),
(465,218,o),
(466,223,o),
(466,228,cs),
(466,245,o),
(454,255,o),
(442,255,cs),
(432,255,o),
(421,248,o),
(415,233,cs)
);
},
{
closed = 1;
nodes = (
(248,345,o),
(269,319,o),
(269,290,cs),
(269,249,o),
(239,215,o),
(185,215,cs),
(158,215,o),
(124,222,o),
(95,238,c),
(108,296,o),
(148,345,o),
(206,345,cs)
);
}
);
width = 382;
}
);
leftKerningGroup = c;
rightKerningGroup = A;
unicode = 101;
},
{
glyphname = f;
layers = (
{
hints = (
{
horizontal = 1;
place = (-241,62);
type = Stem;
},
{
horizontal = 1;
place = (79,54);
type = Stem;
},
{
horizontal = 1;
place = (643,62);
type = Stem;
},
{
place = (31,66);
type = Stem;
},
{
place = (222,66);
type = Stem;
},
{
place = (248,66);
type = Stem;
}
);
layerId = "2F54779E-88EF-414D-815E-FD45B9A14596";
shapes = (
{
closed = 1;
nodes = (
(312,165,o),
(283,133,o),
(255,133,cs),
(252,133,o),
(248,133,o),
(245,134,c),
(224,180,o),
(197,212,o),
(165,212,c),
(165,212,o),
(165,212,o),
(165,212,c),
(164,212,o),
(164,212,o),
(164,212,c),
(142,212,o),
(129,194,o),
(129,171,cs),
(129,143,o),
(150,106,o),
(195,89,c),
(212,44,o),
(222,-13,o),
(222,-63,cs),
(222,-155,o),
(201,-179,o),
(178,-179,cs),
(117,-179,o),
(97,-67,o),
(97,201,cs),
(97,218,o),
(97,235,o),
(98,252,c),
(249,391,o),
(314,540,o),
(314,612,cs),
(314,669,o),
(278,705,o),
(224,705,cs),
(101,705,o),
(31,528,o),
(31,183,cs),
(31,-136,o),
(72,-241,o),
(176,-241,cs),
(236,-241,o),
(288,-192,o),
(288,-67,cs),
(288,-24,o),
(280,30,o),
(266,79,c),
(311,83,o),
(353,121,o),
(387,212,cs),
(389,217,o),
(390,221,o),
(390,225,cs),
(390,241,o),
(377,251,o),
(364,251,cs),
(354,251,o),
(344,246,o),
(339,233,cs)
);
},
{
closed = 1;
nodes = (
(238,643,o),
(248,630,o),
(248,607,cs),
(248,555,o),
(192,438,o),
(103,336,c),
(118,517,o),
(165,643,o),
(219,643,cs)
);
}
);
width = 306;
}
);
leftKerningGroup = f;
rightKerningGroup = A;
unicode = 102;
},
{
glyphname = g;
layers = (
{
anchors = (
{
name = t.uni0302_2;
position = "{217, 389}";
}
);
hints = (
{
horizontal = 1;
place = (-250,62);
type = Stem;
},
{
horizontal = 1;
place = (15,62);
type = Stem;
},
{
horizontal = 1;
place = (342,62);
type = Stem;
},
{
place = (24,66);
type = Stem;
},
{
place = (105,65);
type = Stem;
},
{
place = (294,68);
type = Stem;
}
);
layerId = "2F54779E-88EF-414D-815E-FD45B9A14596";
shapes = (
{
closed = 1;
nodes = (
(417,141,o),
(389,78,o),
(345,41,c),
(355,161,o),
(362,273,o),
(362,301,cs),
(362,355,o),
(299,404,o),
(217,404,cs),
(117,404,o),
(24,311,o),
(24,173,cs),
(24,76,o),
(82,15,o),
(164,15,cs),
(206,15,o),
(248,35,o),
(282,75,c),
(281,50,o),
(279,26,o),
(277,5,c),
(169,-50,o),
(105,-94,o),
(105,-167,cs),
(105,-213,o),
(142,-250,o),
(200,-250,cs),
(296,-250,o),
(324,-166,o),
(338,-39,c),
(424,20,o),
(462,99,o),
(504,212,cs),
(506,217,o),
(507,222,o),
(507,226,cs),
(507,243,o),
(495,255,o),
(482,255,cs),
(473,255,o),
(463,248,o),
(456,233,cs)
);
},
{
closed = 1;
nodes = (
(123,77,o),
(90,111,o),
(90,174,cs),
(90,270,o),
(145,342,o),
(226,342,cs),
(255,342,o),
(285,326,o),
(294,309,c),
(290,197,o),
(273,77,o),
(170,77,cs)
);
},
{
closed = 1;
nodes = (
(182,-188,o),
(170,-177,o),
(170,-160,cs),
(170,-129,o),
(206,-98,o),
(270,-64,c),
(258,-151,o),
(238,-188,o),
(200,-188,cs)
);
}
);
width = 423;
}
);
leftKerningGroup = a;
rightKerningGroup = A;
unicode = 103;
},
{
glyphname = h;
layers = (
{
anchors = (
{
name = t.uni0302_2;
position = "{238, 700}";
}
);
hints = (
{
horizontal = 1;
place = (1,62);
type = Stem;
},
{
horizontal = 1;
place = (356,59);
type = Stem;
},
{
horizontal = 1;
place = (432,60);
type = Stem;
},
{
horizontal = 1;
place = (647,62);
type = Stem;
},
{
place = (35,67);
type = Stem;
},
{
place = (251,66);
type = Stem;
},
{
place = (280,65);
type = Stem;
},
{
place = (300,66);
type = Stem;
}
);
layerId = "2F54779E-88EF-414D-815E-FD45B9A14596";
shapes = (
{
closed = 1;
nodes = (
(427,111,o),
(387,63,o),
(351,63,cs),
(330,63,o),
(317,76,o),
(317,97,cs),
(317,140,o),
(366,250,o),
(366,318,cs),
(366,375,o),
(323,415,o),
(263,415,cs),
(203,415,o),
(141,374,o),
(101,297,c),
(103,347,o),
(106,392,o),
(112,432,c),
(123,432,ls),
(262,432,o),
(345,513,o),
(345,598,cs),
(345,662,o),
(299,709,o),
(232,709,cs),
(148,709,o),
(87,636,o),
(57,500,c),
(46,502,o),
(40,504,o),
(34,504,cs),
(17,504,o),
(7,491,o),
(7,476,cs),
(7,463,o),
(15,449,o),
(34,444,cs),
(46,441,l),
(39,390,o),
(35,332,o),
(35,267,cs),
(35,249,o),
(35,230,o),
(35,212,cs),
(35,156,o),
(36,99,o),
(40,39,cs),
(42,13,o),
(58,0,o),
(74,0,cs),
(91,0,o),
(109,15,o),
(107,41,cs),
(105,72,o),
(103,100,o),
(102,127,c),
(109,273,o),
(200,356,o),
(255,356,cs),
(284,356,o),
(300,340,o),
(300,310,cs),
(300,255,o),
(251,157,o),
(251,94,cs),
(251,38,o),
(288,1,o),
(345,1,cs),
(405,1,o),
(462,46,o),
(525,212,cs),
(527,217,o),
(528,221,o),
(528,226,cs),
(528,242,o),
(515,253,o),
(502,253,cs),
(493,253,o),
(483,247,o),
(477,233,cs)
);
},
{
closed = 1;
nodes = (
(260,647,o),
(280,627,o),
(280,596,cs),
(280,546,o),
(228,492,o),
(133,492,cs),
(122,492,l),
(144,595,o),
(181,647,o),
(229,647,cs)
);
}
);
width = 444;
}
);
leftKerningGroup = h;
rightKerningGroup = A;
unicode = 104;
},
{
glyphname = i;
layers = (
{
hints = (
{
horizontal = 1;
place = (-4,62);
type = Stem;
},
{
horizontal = 1;
place = (399,-20);
target = down;
type = TopGhost;
},
{
horizontal = 1;
place = (451,78);
type = Stem;
},
{
place = (29,66);
type = Stem;
},
{
place = (62,78);
type = Stem;
}
);
layerId = "2F54779E-88EF-414D-815E-FD45B9A14596";
shapes = (
{
closed = 1;
nodes = (
(123,451,o),
(140,468,o),
(140,490,cs),
(140,512,o),
(123,529,o),
(101,529,cs),
(79,529,o),
(62,512,o),
(62,490,cs),
(62,468,o),
(79,451,o),
(101,451,cs)
);
},
{
closed = 1;
nodes = (
(193,-4,o),
(245,60,o),
(301,212,cs),
(303,217,o),
(304,222,o),
(304,226,cs),
(304,243,o),
(292,255,o),
(279,255,cs),
(269,255,o),
(259,248,o),
(253,233,cs),
(204,112,o),
(173,58,o),
(140,58,cs),
(116,58,o),
(95,79,o),
(95,150,cs),
(95,193,o),
(100,246,o),
(117,358,cs),
(121,384,o),
(104,399,o),
(87,399,cs),
(71,399,o),
(55,388,o),
(50,361,cs),
(40,305,o),
(29,208,o),
(29,156,cs),
(29,39,o),
(74,-4,o),
(132,-4,cs)
);
}
);
width = 220;
}
);
leftKerningGroup = i;
rightKerningGroup = A;
unicode = 105;
},
{
glyphname = j;
layers = (
{
hints = (
{
horizontal = 1;
place = (-250,62);
type = Stem;
},
{
horizontal = 1;
place = (403,-20);
target = down;
type = TopGhost;
},
{
horizontal = 1;
place = (450,78);
type = Stem;
},
{
place = (-156,65);
type = Stem;
},
{
place = (18,67);
type = Stem;
},
{
place = (44,78);
type = Stem;
}
);
layerId = "2F54779E-88EF-414D-815E-FD45B9A14596";
shapes = (
{
closed = 1;
nodes = (
(105,450,o),
(122,467,o),
(122,489,cs),
(122,511,o),
(105,528,o),
(83,528,cs),
(61,528,o),
(44,511,o),
(44,489,cs),
(44,467,o),
(61,450,o),
(83,450,cs)
);
},
{
closed = 1;
nodes = (
(176,175,o),
(134,84,o),
(84,40,c),
(87,73,ls),
(94,161,o),
(101,277,o),
(110,367,cs),
(112,388,o),
(98,403,o),
(77,403,cs),
(59,403,o),
(46,391,o),
(44,372,cs),
(35,282,o),
(28,166,o),
(21,73,cs),
(15,4,l),
(-92,-51,o),
(-156,-94,o),
(-156,-167,cs),
(-156,-213,o),
(-119,-250,o),
(-61,-250,cs),
(19,-250,o),
(64,-172,o),
(75,-57,c),
(75,-52,o),
(76,-46,o),
(77,-40,c),
(163,20,o),
(207,106,o),
(247,212,cs),
(249,217,o),
(250,222,o),
(250,226,cs),
(250,243,o),
(238,253,o),
(225,253,cs),
(215,253,o),
(204,247,o),
(199,233,cs)
);
},
{
closed = 1;
nodes = (
(-79,-188,o),
(-91,-177,o),
(-91,-160,cs),
(-91,-129,o),
(-56,-98,o),
(7,-65,c),
(-5,-151,o),
(-23,-188,o),
(-61,-188,cs)
);
}
);
width = 166;
}
);
leftKerningGroup = j;
rightKerningGroup = A;
unicode = 106;
},
{
glyphname = k;
layers = (
{
anchors = (
{
name = b.uni0326_1_2;
position = "{167, 0}";
}
);
hints = (
{
horizontal = 1;
place = (-3,62);
type = Stem;
},
{
horizontal = 1;
place = (336,61);
type = Stem;
},
{
horizontal = 1;
place = (432,61);
type = Stem;
},
{
horizontal = 1;
place = (647,62);
type = Stem;
},
{
place = (33,67);
type = Stem;
},
{
place = (162,69);
type = Stem;
},
{
place = (278,65);
type = Stem;
},
{
place = (291,66);
type = Stem;
}
);
layerId = "2F54779E-88EF-414D-815E-FD45B9A14596";
shapes = (
{
closed = 1;
nodes = (
(393,110,o),
(352,59,o),
(305,59,cs),
(269,59,o),
(231,96,o),
(231,136,cs),
(231,152,o),
(242,158,o),
(269,174,cs),
(311,199,o),
(357,225,o),
(357,296,cs),
(357,355,o),
(315,397,o),
(249,397,cs),
(199,397,o),
(140,368,o),
(100,307,c),
(101,354,o),
(105,395,o),
(110,432,c),
(121,432,ls),
(261,432,o),
(343,513,o),
(343,598,cs),
(343,662,o),
(297,709,o),
(230,709,cs),
(148,709,o),
(86,636,o),
(55,499,c),
(46,501,o),
(39,503,o),
(32,503,cs),
(15,503,o),
(5,489,o),
(5,474,cs),
(5,461,o),
(13,447,o),
(32,442,cs),
(44,439,l),
(37,388,o),
(33,331,o),
(33,267,cs),
(33,249,o),
(33,230,o),
(33,211,cs),
(33,155,o),
(34,96,o),
(38,36,cs),
(40,9,o),
(56,-3,o),
(72,-3,cs),
(90,-3,o),
(107,12,o),
(105,38,cs),
(103,71,o),
(101,102,o),
(100,132,c),
(101,285,o),
(194,336,o),
(238,336,cs),
(272,336,o),
(291,319,o),
(291,294,cs),
(291,260,o),
(266,240,o),
(214,212,cs),
(173,190,o),
(162,180,o),
(162,150,cs),
(162,62,o),
(227,-3,o),
(300,-3,cs),
(368,-3,o),
(427,46,o),
(490,212,cs),
(492,218,o),
(493,223,o),
(493,228,cs),
(493,245,o),
(481,255,o),
(469,255,cs),
(459,255,o),
(448,248,o),
(442,233,cs)
);
},
{
closed = 1;
nodes = (
(258,647,o),
(278,627,o),
(278,596,cs),
(278,546,o),
(226,493,o),
(131,493,cs),
(121,493,l),
(143,597,o),
(181,647,o),
(227,647,cs)
);
}
);
width = 409;
}
);
leftKerningGroup = k;
rightKerningGroup = A;
unicode = 107;
},
{
glyphname = l;
layers = (
{
anchors = (
{
name = t.uni0302_2;
position = "{202, 688}";
},
{
name = b.uni0326_1_2;
position = "{177, 0}";
}
);
hints = (
{
horizontal = 1;
place = (1,62);
type = Stem;
},
{
horizontal = 1;
place = (641,62);
type = Stem;
},
{
place = (31,66);
type = Stem;
},
{
place = (221,66);
type = Stem;
}
);
layerId = "2F54779E-88EF-414D-815E-FD45B9A14596";
shapes = (
{
closed = 1;
nodes = (
(287,172,o),
(231,63,o),
(178,63,cs),
(139,63,o),
(106,114,o),
(99,214,c),
(234,359,o),
(287,483,o),
(287,594,cs),
(287,663,o),
(252,703,o),
(202,703,cs),
(89,703,o),
(31,549,o),
(31,259,cs),
(31,84,o),
(92,1,o),
(178,1,cs),
(240,1,o),
(299,60,o),
(358,212,cs),
(360,217,o),
(361,222,o),
(361,226,cs),
(361,243,o),
(349,255,o),
(336,255,cs),
(326,255,o),
(316,248,o),
(310,233,cs)
);
},
{
closed = 1;
nodes = (
(210,641,o),
(221,628,o),
(221,594,cs),
(221,505,o),
(177,402,o),
(97,300,c),
(102,498,o),
(141,641,o),
(193,641,cs)
);
}
);
width = 277;
}
);
leftKerningGroup = l;
rightKerningGroup = A;
unicode = 108;
},
{
glyphname = m;
layers = (
{
hints = (
{
horizontal = 1;
place = (0,62);
type = Stem;
},
{
horizontal = 1;
place = (310,62);
type = Stem;
},
{
horizontal = 1;
place = (336,61);
type = Stem;
},
{
place = (25,66);
type = Stem;
},
{
place = (247,66);
type = Stem;
},
{
place = (467,66);
type = Stem;
},
{
place = (483,66);
type = Stem;
}
);
layerId = "2F54779E-88EF-414D-815E-FD45B9A14596";
shapes = (
{
closed = 1;
nodes = (
(613,111,o),
(585,62,o),
(558,62,cs),
(543,62,o),
(533,72,o),
(533,96,cs),
(533,160,o),
(549,258,o),
(549,305,cs),
(549,360,o),
(512,397,o),
(457,397,cs),
(408,397,o),
(364,370,o),
(330,320,c),
(317,350,o),
(286,372,o),
(245,372,cs),
(189,372,o),
(137,338,o),
(98,271,c),
(102,324,o),
(106,351,o),
(106,362,cs),
(106,386,o),
(91,397,o),
(75,397,cs),
(60,397,o),
(43,385,o),
(41,364,cs),
(33,280,o),
(25,169,o),
(25,36,cs),
(25,11,o),
(38,-2,o),
(57,-2,cs),
(77,-2,o),
(91,11,o),
(91,36,cs),
(91,92,l),
(99,228,o),
(180,310,o),
(233,310,cs),
(258,310,o),
(270,298,o),
(270,274,cs),
(270,239,o),
(247,170,o),
(247,74,cs),
(247,42,o),
(248,-1,o),
(285,-1,cs),
(301,-1,o),
(316,10,o),
(316,33,cs),
(316,46,o),
(313,73,o),
(313,103,cs),
(313,111,o),
(313,118,o),
(314,125,c),
(320,245,o),
(384,336,o),
(441,336,cs),
(468,336,o),
(483,320,o),
(483,289,cs),
(483,255,o),
(467,164,o),
(467,97,cs),
(467,33,o),
(500,0,o),
(548,0,cs),
(606,0,o),
(653,60,o),
(709,212,cs),
(711,217,o),
(712,221,o),
(712,225,cs),
(712,242,o),
(699,253,o),
(686,253,cs),
(677,253,o),
(667,247,o),
(661,233,cs)
);
}
);
width = 628;
}
);
leftKerningGroup = m;
rightKerningGroup = A;
unicode = 109;
},
{
glyphname = n;
layers = (
{
anchors = (
{
name = t.uni0302_2;
position = "{226, 400}";
},
{
name = b.uni0326_1_2;
position = "{193, 0}";
}
);
hints = (
{
horizontal = 1;
place = (0,62);
type = Stem;
},
{
horizontal = 1;
place = (336,61);
type = Stem;
},
{
place = (25,66);
type = Stem;
},
{
place = (254,66);
type = Stem;
},
{
place = (270,66);
type = Stem;
}
);
layerId = "2F54779E-88EF-414D-815E-FD45B9A14596";
shapes = (
{
closed = 1;
nodes = (
(397,111,o),
(371,62,o),
(345,62,cs),
(330,62,o),
(320,72,o),
(320,96,cs),
(320,160,o),
(336,258,o),
(336,305,cs),
(336,360,o),
(299,397,o),
(244,397,cs),
(192,397,o),
(143,367,o),
(105,310,c),
(107,331,o),
(109,350,o),
(109,363,cs),
(109,385,o),
(94,396,o),
(78,396,cs),
(62,396,o),
(45,384,o),
(43,362,cs),
(36,283,o),
(25,111,o),
(25,32,cs),
(25,10,o),
(41,-1,o),
(57,-1,cs),
(74,-1,o),
(91,10,o),
(91,32,cs),
(91,67,o),
(92,105,o),
(94,144,c),
(107,255,o),
(174,336,o),
(228,336,cs),
(255,336,o),
(270,320,o),
(270,289,cs),
(270,255,o),
(254,164,o),
(254,102,cs),
(254,33,o),
(287,0,o),
(335,0,cs),
(392,0,o),
(431,48,o),
(496,212,cs),
(498,217,o),
(499,222,o),
(499,226,cs),
(499,242,o),
(487,253,o),
(474,253,cs),
(464,253,o),
(454,247,o),
(448,233,cs)
);
}
);
width = 415;
}
);
leftKerningGroup = m;
rightKerningGroup = A;
unicode = 110;
},
{
glyphname = o;
layers = (
{
anchors = (
{
name = t.uni0302_2;
position = "{232, 382}";
},
{
name = b.uni0326_1_2;
position = "{173, 0}";
}
);
hints = (
{
horizontal = 1;
place = (-2,62);
type = Stem;
},
{
horizontal = 1;
place = (338,70);
type = Stem;
},
{
place = (22,66);
type = Stem;
},
{
place = (145,60);
type = Stem;
},
{
place = (301,66);
type = Stem;
}
);
layerId = "2F54779E-88EF-414D-815E-FD45B9A14596";
shapes = (
{
closed = 1;
nodes = (
(414,186,o),
(388,157,o),
(354,146,c),
(363,172,o),
(367,202,o),
(367,233,cs),
(367,316,o),
(330,375,o),
(281,394,cs),
(263,401,o),
(236,408,o),
(212,408,cs),
(106,408,o),
(22,304,o),
(22,170,cs),
(22,64,o),
(81,-2,o),
(173,-2,cs),
(237,-2,o),
(291,31,o),
(326,84,c),
(389,89,o),
(450,131,o),
(482,212,cs),
(484,218,o),
(485,224,o),
(485,229,cs),
(485,246,o),
(474,257,o),
(461,257,cs),
(452,257,o),
(441,250,o),
(434,233,cs)
);
},
{
closed = 1;
nodes = (
(241,155,o),
(205,195,o),
(205,259,cs),
(205,310,o),
(221,338,o),
(247,338,cs),
(281,338,o),
(301,297,o),
(301,232,cs),
(301,199,o),
(295,168,o),
(285,143,c)
);
},
{
closed = 1;
nodes = (
(114,60,o),
(88,113,o),
(88,173,cs),
(88,235,o),
(115,305,o),
(164,334,c),
(152,312,o),
(145,285,o),
(145,255,cs),
(145,171,o),
(192,115,o),
(253,93,c),
(232,72,o),
(205,60,o),
(175,60,cs)
);
}
);
width = 401;
}
);
rightKerningGroup = A;
unicode = 111;
},
{
glyphname = p;
layers = (
{
hints = (
{
horizontal = 1;
place = (-249,21);
target = up;
type = BottomGhost;
},
{
horizontal = 1;
place = (-5,81);
type = Stem;
},
{
horizontal = 1;
place = (342,62);
type = Stem;
},
{
place = (32,66);
type = Stem;
},
{
place = (303,66);
type = Stem;
}
);
layerId = "2F54779E-88EF-414D-815E-FD45B9A14596";
shapes = (
{
closed = 1;
nodes = (
(414,168,o),
(373,126,o),
(317,102,c),
(348,149,o),
(369,207,o),
(369,261,cs),
(369,347,o),
(320,404,o),
(246,404,cs),
(184,404,o),
(129,363,o),
(92,306,c),
(89,335,o),
(85,361,o),
(81,384,cs),
(78,400,o),
(65,408,o),
(51,408,cs),
(34,408,o),
(18,397,o),
(18,376,cs),
(18,350,o),
(32,315,o),
(32,189,cs),
(32,15,o),
(-4,-178,o),
(-4,-212,cs),
(-4,-236,o),
(13,-249,o),
(29,-249,cs),
(44,-249,o),
(59,-239,o),
(62,-217,cs),
(83,-56,o),
(98,78,o),
(98,189,c),
(116,271,o),
(180,342,o),
(239,342,cs),
(278,342,o),
(303,311,o),
(303,263,cs),
(303,196,o),
(265,118,o),
(216,78,c),
(200,77,o),
(184,76,o),
(167,76,cs),
(139,76,o),
(123,55,o),
(123,34,cs),
(123,14,o),
(138,-5,o),
(169,-5,cs),
(196,-5,o),
(225,8,o),
(252,30,c),
(370,49,o),
(449,108,o),
(487,212,cs),
(489,217,o),
(490,222,o),
(490,227,cs),
(490,244,o),
(478,254,o),
(465,254,cs),
(455,254,o),
(444,247,o),
(439,233,cs)
);
}
);
width = 406;
}
);
leftKerningGroup = p;
rightKerningGroup = A;
unicode = 112;
},
{
glyphname = q;
layers = (
{
anchors = (
{
name = t.uni0302_2;
position = "{219, 390}";
},
{
name = b.uni0326_1_2;
position = "{219, 0}";
}
);
hints = (
{
horizontal = 1;
place = (-245,62);
type = Stem;
},
{
horizontal = 1;
place = (16,62);
type = Stem;
},
{
horizontal = 1;
place = (341,62);
type = Stem;
},
{
place = (24,66);
type = Stem;
},
{
place = (239,66);
type = Stem;
},
{
place = (299,65);
type = Stem;
},
{
place = (374,65);
type = Stem;
}
);
layerId = "2F54779E-88EF-414D-815E-FD45B9A14596";
shapes = (
{
closed = 1;
nodes = (
(395,-245,o),
(439,-189,o),
(439,-112,cs),
(439,-25,o),
(395,39,o),
(391,61,c),
(452,92,o),
(491,143,o),
(518,212,cs),
(520,217,o),
(521,222,o),
(521,226,cs),
(521,242,o),
(509,253,o),
(496,253,cs),
(486,253,o),
(476,247,o),
(470,233,cs),
(436,154,o),
(405,122,o),
(334,93,c),
(349,182,o),
(364,267,o),
(364,296,cs),
(364,350,o),
(297,403,o),
(221,403,cs),
(109,403,o),
(24,300,o),
(24,167,cs),
(24,81,o),
(79,16,o),
(162,16,cs),
(194,16,o),
(229,28,o),
(261,56,c),
(250,-12,o),
(239,-88,o),
(239,-135,cs),
(239,-207,o),
(278,-245,o),
(336,-245,cs)
);
},
{
closed = 1;
nodes = (
(118,78,o),
(90,112,o),
(90,171,cs),
(90,267,o),
(151,341,o),
(227,341,cs),
(263,341,o),
(290,323,o),
(299,303,c),
(287,193,o),
(273,78,o),
(167,78,cs)
);
},
{
closed = 1;
nodes = (
(318,-183,o),
(305,-170,o),
(305,-144,cs),
(305,-99,o),
(316,-22,o),
(328,56,c),
(343,25,o),
(374,-32,o),
(374,-108,cs),
(374,-156,o),
(360,-183,o),
(335,-183,cs)
);
}
);
width = 437;
}
);
leftKerningGroup = a;
rightKerningGroup = A;
unicode = 113;
},
{
glyphname = r;
layers = (
{
anchors = (
{
name = t.uni0302_2;
position = "{214, 391}";
},
{
name = b.uni0326_1_2;
position = "{268, 0}";
}
);
hints = (
{
horizontal = 1;
place = (-4,62);
type = Stem;
},
{
horizontal = 1;
place = (332,53);
type = Stem;
},
{
horizontal = 1;
place = (394,-20);
target = down;
type = TopGhost;
},
{
place = (141,66);
type = Stem;
}
);
layerId = "2F54779E-88EF-414D-815E-FD45B9A14596";
shapes = (
{
closed = 1;
nodes = (
(356,139,o),
(318,58,o),
(265,58,cs),
(233,58,o),
(207,84,o),
(207,138,cs),
(207,206,o),
(244,275,o),
(283,333,cs),
(289,342,o),
(294,353,o),
(294,363,cs),
(294,382,o),
(280,394,o),
(264,394,cs),
(246,394,o),
(238,385,o),
(212,385,cs),
(185,385,o),
(153,398,o),
(142,428,cs),
(137,442,o),
(125,449,o),
(113,449,cs),
(98,449,o),
(83,437,o),
(83,414,cs),
(83,408,o),
(85,396,o),
(86,390,c),
(83,367,o),
(53,283,o),
(33,233,cs),
(31,228,o),
(30,224,o),
(30,220,cs),
(30,203,o),
(43,193,o),
(56,193,cs),
(66,193,o),
(76,199,o),
(81,212,cs),
(97,256,o),
(116,307,o),
(132,356,c),
(147,345,o),
(186,334,o),
(209,332,c),
(167,262,o),
(141,195,o),
(141,133,cs),
(141,47,o),
(192,-4,o),
(260,-4,cs),
(354,-4,o),
(403,104,o),
(443,212,cs),
(445,217,o),
(446,222,o),
(446,226,cs),
(446,243,o),
(434,255,o),
(421,255,cs),
(412,255,o),
(402,249,o),
(395,233,cs)
);
}
);
width = 362;
}
);
leftKerningGroup = r;
rightKerningGroup = A;
unicode = 114;
},
{
glyphname = s;
layers = (
{
anchors = (
{
name = t.uni0302_2;
position = "{159, 400}";
},
{
name = b.uni0326_1_2;
position = "{167, 0}";
}
);
hints = (
{
horizontal = 1;
place = (-3,73);
type = Stem;
},
{
place = (223,66);
type = Stem;
}
);
layerId = "2F54779E-88EF-414D-815E-FD45B9A14596";
shapes = (
{
closed = 1;
nodes = (
(347,186,o),
(323,143,o),
(288,113,c),
(289,118,o),
(289,123,o),
(289,128,cs),
(289,223,o),
(178,323,o),
(178,364,cs),
(178,383,o),
(197,391,o),
(197,412,cs),
(197,437,o),
(173,451,o),
(149,451,cs),
(122,451,o),
(93,432,o),
(92,389,c),
(73,334,o),
(50,274,o),
(33,233,cs),
(31,229,o),
(30,224,o),
(30,220,cs),
(30,205,o),
(43,193,o),
(57,193,cs),
(66,193,o),
(76,199,o),
(81,212,cs),
(94,244,o),
(107,279,o),
(122,320,c),
(161,260,o),
(223,182,o),
(223,128,cs),
(223,102,o),
(213,82,o),
(196,72,c),
(187,71,o),
(178,70,o),
(169,70,cs),
(148,70,o),
(131,74,o),
(111,82,cs),
(105,84,o),
(100,85,o),
(95,85,cs),
(76,85,o),
(64,71,o),
(64,54,cs),
(64,42,o),
(70,29,o),
(84,19,cs),
(104,5,o),
(132,-3,o),
(160,-3,cs),
(190,-3,o),
(220,6,o),
(244,24,c),
(316,49,o),
(372,106,o),
(415,212,cs),
(417,217,o),
(418,222,o),
(418,227,cs),
(418,243,o),
(406,254,o),
(393,254,cs),
(383,254,o),
(373,248,o),
(367,233,cs)
);
}
);
width = 334;
}
);
leftKerningGroup = r;
rightKerningGroup = A;
unicode = 115;
},
{
glyphname = t;
layers = (
{
anchors = (
{
name = b.uni0326_1_2;
position = "{155, -1}";
}
);
hints = (
{
horizontal = 1;
place = (1,62);
type = Stem;
},
{
horizontal = 1;
place = (427,57);
type = Stem;
},
{
place = (25,66);
type = Stem;
},
{
place = (78,66);
type = Stem;
}
);
layerId = "2F54779E-88EF-414D-815E-FD45B9A14596";
shapes = (
{
closed = 1;
nodes = (
(267,139,o),
(220,63,o),
(160,63,cs),
(114,63,o),
(91,94,o),
(91,162,cs),
(91,203,o),
(99,273,o),
(110,340,cs),
(113,356,o),
(117,386,o),
(122,422,c),
(172,417,o),
(207,410,o),
(219,410,cs),
(235,410,o),
(245,424,o),
(245,438,cs),
(245,450,o),
(238,461,o),
(222,465,cs),
(191,473,o),
(161,477,o),
(130,480,c),
(137,538,o),
(144,595,o),
(144,615,cs),
(144,635,o),
(132,648,o),
(113,648,cs),
(93,648,o),
(79,636,o),
(78,616,cs),
(76,572,o),
(71,527,o),
(65,484,c),
(31,484,ls),
(8,484,o),
(-3,470,o),
(-3,456,cs),
(-3,441,o),
(8,427,o),
(29,427,cs),
(57,427,l),
(53,399,o),
(49,373,o),
(45,350,cs),
(34,280,o),
(25,212,o),
(25,167,cs),
(25,60,o),
(70,1,o),
(155,1,cs),
(253,1,o),
(314,107,o),
(352,212,cs),
(354,218,o),
(355,223,o),
(355,228,cs),
(355,245,o),
(344,256,o),
(331,256,cs),
(321,256,o),
(310,249,o),
(304,233,cs)
);
}
);
width = 271;
}
);
leftKerningGroup = t;
rightKerningGroup = A;
unicode = 116;
},
{
glyphname = u;
layers = (
{
anchors = (
{
name = t.uni0302_2;
position = "{202, 390}";
}
);
hints = (
{
horizontal = 1;
place = (-3,62);
type = Stem;
},
{
horizontal = 1;
place = (403,-20);
target = down;
type = TopGhost;
},
{
place = (21,66);
type = Stem;
},
{
place = (44,67);
type = Stem;
}
);
layerId = "2F54779E-88EF-414D-815E-FD45B9A14596";
shapes = (
{
closed = 1;
nodes = (
(423,118,o),
(392,59,o),
(368,59,cs),
(343,59,o),
(333,95,o),
(333,181,cs),
(333,226,o),
(336,284,o),
(349,368,cs),
(352,388,o),
(338,403,o),
(319,403,cs),
(300,403,o),
(287,392,o),
(285,374,cs),
(281,336,o),
(276,294,o),
(273,251,c),
(257,119,o),
(195,59,o),
(138,59,cs),
(104,59,o),
(87,77,o),
(87,114,cs),
(87,172,o),
(111,276,o),
(111,349,cs),
(111,386,o),
(82,418,o),
(47,418,cs),
(28,418,o),
(15,406,o),
(15,389,cs),
(15,363,o),
(44,369,o),
(44,331,cs),
(44,280,o),
(21,187,o),
(21,110,cs),
(21,42,o),
(67,-3,o),
(133,-3,cs),
(189,-3,o),
(239,29,o),
(276,97,c),
(290,24,o),
(324,-3,o),
(362,-3,cs),
(418,-3,o),
(457,52,o),
(517,212,cs),
(519,217,o),
(520,221,o),
(520,225,cs),
(520,242,o),
(507,253,o),
(494,253,cs),
(485,253,o),
(475,247,o),
(469,233,cs)
);
}
);
width = 436;
}
);
leftKerningGroup = u;
rightKerningGroup = A;
unicode = 117;
},
{
glyphname = v;
layers = (
{
hints = (
{
horizontal = 1;
place = (-3,62);
type = Stem;
},
{
horizontal = 1;
place = (127,55);
type = Stem;
},
{
horizontal = 1;
place = (398,-20);
target = down;
type = TopGhost;
},
{
horizontal = 1;
place = (400,-20);
target = down;
type = TopGhost;
},
{
place = (25,66);
type = Stem;
},
{
place = (43,66);
type = Stem;
},
{
place = (245,98);
type = Stem;
}
);
layerId = "2F54779E-88EF-414D-815E-FD45B9A14596";
shapes = (
{
closed = 1;
nodes = (
(406,198,o),
(387,182,o),
(369,182,cs),
(355,182,o),
(341,191,o),
(331,208,c),
(339,238,o),
(343,270,o),
(343,304,cs),
(343,371,o),
(323,400,o),
(294,400,cs),
(268,400,o),
(245,374,o),
(245,308,cs),
(245,270,o),
(251,237,o),
(262,211,c),
(235,109,o),
(162,59,o),
(128,59,cs),
(106,59,o),
(91,76,o),
(91,120,cs),
(91,202,o),
(109,259,o),
(109,362,cs),
(109,386,o),
(98,398,o),
(77,398,cs),
(57,398,o),
(43,383,o),
(43,360,cs),
(43,259,o),
(25,215,o),
(25,124,cs),
(25,41,o),
(61,-3,o),
(125,-3,cs),
(192,-3,o),
(267,57,o),
(309,148,c),
(327,134,o),
(348,127,o),
(369,127,cs),
(406,127,o),
(446,153,o),
(469,212,cs),
(471,216,o),
(471,220,o),
(471,224,cs),
(471,240,o),
(459,254,o),
(446,254,cs),
(437,254,o),
(427,248,o),
(421,233,cs)
);
}
);
width = 387;
}
);
leftKerningGroup = v;
rightKerningGroup = A;
unicode = 118;
},
{
glyphname = w;
layers = (
{
anchors = (
{
name = t.uni0302_2;
position = "{290, 390}";
}
);
hints = (
{
horizontal = 1;
place = (-4,62);
type = Stem;
},
{
horizontal = 1;
place = (5,62);
type = Stem;
},
{
horizontal = 1;
place = (126,54);
type = Stem;
},
{
horizontal = 1;
place = (400,-20);
target = down;
type = TopGhost;
},
{
horizontal = 1;
place = (405,-20);
target = down;
type = TopGhost;
},
{
place = (20,66);
type = Stem;
},
{
place = (43,66);
type = Stem;
},
{
place = (258,66);
type = Stem;
},
{
place = (454,97);
type = Stem;
}
);
layerId = "2F54779E-88EF-414D-815E-FD45B9A14596";
shapes = (
{
closed = 1;
nodes = (
(616,203,o),
(600,180,o),
(577,180,cs),
(562,180,o),
(548,191,o),
(537,212,c),
(546,243,o),
(551,277,o),
(551,311,cs),
(551,369,o),
(530,400,o),
(502,400,cs),
(475,400,o),
(454,370,o),
(454,311,cs),
(454,272,o),
(461,238,o),
(472,211,c),
(445,120,o),
(382,67,o),
(348,67,cs),
(321,67,o),
(306,89,o),
(306,129,cs),
(306,180,o),
(324,231,o),
(324,332,cs),
(324,356,o),
(313,368,o),
(292,368,cs),
(272,368,o),
(258,353,o),
(258,330,cs),
(258,297,o),
(256,269,o),
(254,245,c),
(233,99,o),
(163,58,o),
(132,58,cs),
(105,58,o),
(86,76,o),
(86,128,cs),
(86,180,o),
(109,298,o),
(109,359,cs),
(109,392,o),
(100,405,o),
(78,405,cs),
(54,405,o),
(43,390,o),
(43,359,cs),
(43,304,o),
(20,200,o),
(20,127,cs),
(20,43,o),
(67,-4,o),
(123,-4,cs),
(176,-4,o),
(218,28,o),
(249,74,c),
(262,29,o),
(293,5,o),
(340,5,cs),
(409,5,o),
(476,66,o),
(515,150,c),
(534,134,o),
(556,126,o),
(577,126,cs),
(620,126,o),
(656,156,o),
(676,212,cs),
(678,217,o),
(679,221,o),
(679,225,cs),
(679,242,o),
(666,252,o),
(653,252,cs),
(643,252,o),
(633,246,o),
(628,233,cs)
);
}
);
width = 595;
}
);
leftKerningGroup = v;
rightKerningGroup = A;
unicode = 119;
},
{
glyphname = x;
layers = (
{
hints = (
{
horizontal = 1;
place = (-4,62);
type = Stem;
},
{
horizontal = 1;
place = (341,62);
type = Stem;
},
{
horizontal = 1;
place = (395,-20);
target = down;
type = TopGhost;
},
{
place = (30,507);
type = Stem;
}
);
layerId = "2F54779E-88EF-414D-815E-FD45B9A14596";
shapes = (
{
closed = 1;
nodes = (
(438,110,o),
(407,58,o),
(388,58,cs),
(370,58,o),
(349,87,o),
(315,163,cs),
(312,170,o),
(309,178,o),
(305,186,c),
(341,237,o),
(373,289,o),
(397,343,cs),
(401,352,o),
(403,360,o),
(403,366,cs),
(403,384,o),
(390,395,o),
(375,395,cs),
(363,395,o),
(349,387,o),
(340,369,cs),
(322,332,o),
(300,294,o),
(276,257,c),
(253,316,ls),
(228,381,o),
(198,403,o),
(159,403,cs),
(114,403,o),
(89,369,o),
(72,328,cs),
(33,233,ls),
(31,228,o),
(30,223,o),
(30,218,cs),
(30,203,o),
(42,193,o),
(55,193,cs),
(65,193,o),
(75,198,o),
(81,212,cs),
(109,280,ls),
(120,307,o),
(131,341,o),
(154,341,cs),
(174,341,o),
(180,321,o),
(219,222,cs),
(223,213,o),
(226,204,o),
(229,196,c),
(191,142,o),
(151,92,o),
(116,53,cs),
(107,43,o),
(104,33,o),
(104,25,cs),
(104,8,o),
(117,-4,o),
(133,-4,cs),
(144,-4,o),
(153,-1,o),
(163,10,cs),
(193,43,o),
(226,83,o),
(258,126,c),
(261,121,o),
(264,115,o),
(266,110,cs),
(302,35,o),
(336,-4,o),
(383,-4,cs),
(437,-4,o),
(473,51,o),
(534,212,cs),
(536,217,o),
(537,221,o),
(537,226,cs),
(537,242,o),
(524,254,o),
(511,254,cs),
(502,254,o),
(492,248,o),
(486,233,cs)
);
}
);
width = 453;
}
);
leftKerningGroup = r;
rightKerningGroup = A;
unicode = 120;
},
{
glyphname = y;
layers = (
{
anchors = (
{
name = t.uni0302_2;
position = "{195, 391}";
}
);
hints = (
{
horizontal = 1;
place = (-250,62);
type = Stem;
},
{
horizontal = 1;
place = (-1,62);
type = Stem;
},
{
horizontal = 1;
place = (404,-20);
target = down;
type = TopGhost;
},
{
place = (21,66);
type = Stem;
},
{
place = (44,67);
type = Stem;
},
{
place = (89,65);
type = Stem;
},
{
place = (265,64);
type = Stem;
},
{
place = (287,66);
type = Stem;
}
);
layerId = "2F54779E-88EF-414D-815E-FD45B9A14596";
shapes = (
{
closed = 1;
nodes = (
(419,170,o),
(374,86,o),
(329,43,c),
(329,47,o),
(330,50,o),
(330,53,c),
(338,139,o),
(345,261,o),
(353,367,cs),
(355,392,o),
(338,404,o),
(321,404,cs),
(305,404,o),
(288,393,o),
(287,372,cs),
(285,334,o),
(282,292,o),
(279,248,c),
(262,120,o),
(189,61,o),
(138,61,cs),
(104,61,o),
(87,79,o),
(87,116,cs),
(87,174,o),
(111,273,o),
(111,346,cs),
(111,383,o),
(82,415,o),
(47,415,cs),
(28,415,o),
(15,403,o),
(15,386,cs),
(15,360,o),
(44,363,o),
(44,326,cs),
(44,277,o),
(21,189,o),
(21,112,cs),
(21,44,o),
(67,-1,o),
(133,-1,cs),
(176,-1,o),
(225,26,o),
(265,86,c),
(265,74,o),
(264,64,o),
(263,53,cs),
(262,35,o),
(260,19,o),
(259,3,c),
(152,-51,o),
(89,-95,o),
(89,-167,cs),
(89,-213,o),
(126,-250,o),
(184,-250,cs),
(264,-250,o),
(308,-172,o),
(320,-57,cs),
(321,-51,o),
(321,-45,o),
(322,-38,c),
(401,22,o),
(455,114,o),
(491,212,cs),
(493,217,o),
(494,221,o),
(494,225,cs),
(494,242,o),
(481,253,o),
(468,253,cs),
(459,253,o),
(449,247,o),
(443,233,cs)
);
},
{
closed = 1;
nodes = (
(166,-188,o),
(154,-177,o),
(154,-160,cs),
(154,-129,o),
(189,-99,o),
(251,-66,c),
(240,-152,o),
(222,-188,o),
(184,-188,cs)
);
}
);
width = 410;
}
);
leftKerningGroup = u;
rightKerningGroup = A;
unicode = 121;
},
{
glyphname = z;
layers = (
{
anchors = (
{
name = t.uni0302_2;
position = "{227, 391}";
}
);
hints = (
{
horizontal = 1;
place = (-7,62);
type = Stem;
},
{
horizontal = 1;
place = (-4,21);
target = up;
type = BottomGhost;
},
{
horizontal = 1;
place = (304,63);
type = Stem;
},
{
place = (30,448);
type = Stem;
}
);
layerId = "2F54779E-88EF-414D-815E-FD45B9A14596";
shapes = (
{
closed = 1;
nodes = (
(379,113,o),
(340,55,o),
(301,55,cs),
(280,55,o),
(246,65,o),
(204,65,cs),
(197,65,o),
(191,65,o),
(183,64,c),
(245,121,o),
(323,248,o),
(340,325,cs),
(342,334,o),
(343,342,o),
(343,349,cs),
(343,365,o),
(332,375,o),
(319,375,cs),
(306,375,o),
(285,367,o),
(260,367,cs),
(192,367,o),
(166,399,o),
(150,422,cs),
(138,439,o),
(130,450,o),
(111,450,cs),
(91,450,o),
(77,436,o),
(77,418,cs),
(77,409,o),
(78,400,o),
(79,388,c),
(67,337,o),
(51,282,o),
(33,233,cs),
(31,228,o),
(30,224,o),
(30,219,cs),
(30,202,o),
(43,190,o),
(56,190,cs),
(66,190,o),
(75,197,o),
(81,212,cs),
(100,264,o),
(112,300,o),
(127,351,c),
(166,324,o),
(207,309,o),
(265,304,c),
(233,212,o),
(151,114,o),
(99,70,cs),
(87,60,o),
(81,45,o),
(81,31,cs),
(81,13,o),
(93,-4,o),
(118,-4,cs),
(135,-4,o),
(163,5,o),
(198,5,cs),
(232,5,o),
(274,-7,o),
(315,-7,cs),
(365,-7,o),
(414,53,o),
(475,212,cs),
(477,217,o),
(478,222,o),
(478,226,cs),
(478,242,o),
(466,252,o),
(453,252,cs),
(443,252,o),
(432,246,o),
(427,233,cs)
);
}
);
width = 394;
}
);
leftKerningGroup = r;
rightKerningGroup = A;
unicode = 122;
},
{
glyphname = braceleft;
layers = (
{
hints = (
{
horizontal = 1;
place = (-10,56);
type = Stem;
},
{
horizontal = 1;
place = (612,56);
type = Stem;
},
{
place = (132,60);
type = Stem;
}
);
layerId = "2F54779E-88EF-414D-815E-FD45B9A14596";
shapes = (
{
closed = 1;
nodes = (
(255,51,o),
(242,46,o),
(232,46,cs),
(208,46,o),
(193,61,o),
(193,86,cs),
(193,120,o),
(201,224,o),
(201,242,cs),
(201,280,o),
(183,313,o),
(154,334,c),
(180,350,o),
(192,369,o),
(192,394,cs),
(192,439,o),
(186,522,o),
(186,547,cs),
(186,594,o),
(202,612,o),
(235,612,cs),
(246,612,o),
(260,608,o),
(272,602,cs),
(279,599,o),
(285,597,o),
(290,597,cs),
(307,597,o),
(318,610,o),
(318,624,cs),
(318,633,o),
(313,642,o),
(302,649,cs),
(282,661,o),
(257,668,o),
(235,668,cs),
(169,668,o),
(126,624,o),
(126,547,cs),
(126,520,o),
(132,436,o),
(132,398,cs),
(132,381,o),
(113,364,o),
(86,357,cs),
(71,353,o),
(60,345,o),
(60,332,cs),
(60,319,o),
(71,310,o),
(87,306,cs),
(122,297,o),
(140,273,o),
(140,242,cs),
(140,224,o),
(132,117,o),
(132,84,cs),
(132,27,o),
(169,-10,o),
(232,-10,cs),
(259,-10,o),
(287,4,o),
(303,23,cs),
(308,29,o),
(311,36,o),
(311,43,cs),
(311,56,o),
(301,68,o),
(288,68,cs),
(282,68,o),
(276,66,o),
(269,61,cs)
);
}
);
width = 348;
}
);
unicode = 123;
},
{
glyphname = bar;
layers = (
{
hints = (
{
horizontal = 1;
place = (708,-20);
target = down;
type = TopGhost;
},
{
place = (62,65);
type = Stem;
}
);
layerId = "2F54779E-88EF-414D-815E-FD45B9A14596";
shapes = (
{
closed = 1;
nodes = (
(101,-262,o),
(117,-251,o),
(118,-227,cs),
(124,-124,o),
(127,24,o),
(127,175,cs),
(127,364,o),
(123,556,o),
(116,670,cs),
(115,695,o),
(99,708,o),
(83,708,cs),
(66,708,o),
(50,695,o),
(50,669,cs),
(50,612,o),
(62,542,o),
(62,264,cs),
(62,-30,o),
(52,-194,o),
(52,-225,cs),
(52,-249,o),
(69,-262,o),
(85,-262,cs)
);
}
);
width = 177;
}
);
unicode = 124;
},
{
glyphname = braceright;
layers = (
{
hints = (
{
horizontal = 1;
place = (-10,56);
type = Stem;
},
{
horizontal = 1;
place = (612,56);
type = Stem;
},
{
place = (156,60);
type = Stem;
}
);
layerId = "2F54779E-88EF-414D-815E-FD45B9A14596";
shapes = (
{
closed = 1;
nodes = (
(226,361,o),
(208,385,o),
(208,416,cs),
(208,434,o),
(216,541,o),
(216,574,cs),
(216,631,o),
(179,668,o),
(116,668,cs),
(89,668,o),
(61,654,o),
(45,635,cs),
(40,629,o),
(37,622,o),
(37,615,cs),
(37,602,o),
(47,590,o),
(60,590,cs),
(66,590,o),
(72,592,o),
(79,597,cs),
(93,607,o),
(106,612,o),
(116,612,cs),
(140,612,o),
(155,597,o),
(155,572,cs),
(155,538,o),
(147,434,o),
(147,416,cs),
(147,378,o),
(165,348,o),
(194,327,c),
(168,311,o),
(156,289,o),
(156,264,cs),
(156,219,o),
(162,136,o),
(162,111,cs),
(162,64,o),
(146,46,o),
(113,46,cs),
(102,46,o),
(88,50,o),
(76,56,cs),
(69,59,o),
(63,61,o),
(58,61,cs),
(41,61,o),
(30,48,o),
(30,34,cs),
(30,25,o),
(35,16,o),
(46,9,cs),
(66,-3,o),
(91,-10,o),
(113,-10,cs),
(179,-10,o),
(222,34,o),
(222,111,cs),
(222,138,o),
(216,222,o),
(216,260,cs),
(216,277,o),
(236,294,o),
(262,301,cs),
(277,305,o),
(288,313,o),
(288,326,cs),
(288,339,o),
(277,348,o),
(261,352,cs)
);
}
);
width = 348;
}
);
unicode = 125;
},
{
glyphname = asciitilde;
layers = (
{
hints = (
{
horizontal = 1;
place = (295,56);
type = Stem;
},
{
horizontal = 1;
place = (328,56);
type = Stem;
},
{
place = (30,276);
type = Stem;
}
);
layerId = "2F54779E-88EF-414D-815E-FD45B9A14596";
shapes = (
{
closed = 1;
nodes = (
(249,354,o),
(238,351,o),
(225,351,cs),
(188,351,o),
(152,384,o),
(110,384,cs),
(88,384,o),
(63,375,o),
(41,350,cs),
(33,341,o),
(30,331,o),
(30,323,cs),
(30,309,o),
(41,298,o),
(54,298,cs),
(61,298,o),
(69,301,o),
(75,308,cs),
(84,319,o),
(94,328,o),
(108,328,cs),
(148,328,o),
(177,295,o),
(225,295,cs),
(253,295,o),
(283,304,o),
(301,336,cs),
(305,343,o),
(306,349,o),
(306,354,cs),
(306,370,o),
(294,380,o),
(281,380,cs),
(273,380,o),
(264,377,o),
(258,368,cs)
);
}
);
width = 336;
}
);
unicode = 126;
},
{
glyphname = exclamdown;
layers = (
{
hints = (
{
horizontal = 1;
place = (-249,21);
target = up;
type = BottomGhost;
},
{
horizontal = 1;
place = (377,95);
type = Stem;
},
{
place = (30,95);
type = Stem;
},
{
place = (55,66);
type = Stem;
}
);
layerId = "2F54779E-88EF-414D-815E-FD45B9A14596";
shapes = (
{
closed = 1;
nodes = (
(51,472,o),
(30,451,o),
(30,424,cs),
(30,398,o),
(51,377,o),
(78,377,cs),
(104,377,o),
(125,398,o),
(125,424,cs),
(125,451,o),
(104,472,o),
(78,472,cs)
);
},
{
closed = 1;
nodes = (
(58,307,o),
(46,291,o),
(46,270,cs),
(46,257,o),
(55,159,o),
(55,20,cs),
(55,-65,o),
(52,-148,o),
(48,-208,cs),
(46,-231,o),
(60,-249,o),
(81,-249,cs),
(98,-249,o),
(111,-238,o),
(113,-220,cs),
(118,-159,o),
(121,-74,o),
(121,13,cs),
(121,107,o),
(118,204,o),
(112,272,cs),
(110,294,o),
(96,307,o),
(79,307,cs)
);
}
);
width = 155;
}
);
leftKerningGroup = colon;
unicode = 161;
},
{
glyphname = cent;
layers = (
{
hints = (
{
horizontal = 1;
place = (-89,684);
type = Stem;
},
{
place = (23,66);
type = Stem;
},
{
place = (193,62);
type = Stem;
},
{
place = (306,63);
type = Stem;
}
);
layerId = "2F54779E-88EF-414D-815E-FD45B9A14596";
shapes = (
{
closed = 1;
nodes = (
(444,261,o),
(431,253,o),
(423,237,cs),
(370,131,o),
(316,78,o),
(250,66,c),
(253,150,o),
(255,235,o),
(255,315,cs),
(255,359,o),
(254,400,o),
(253,439,c),
(288,433,o),
(306,413,o),
(306,366,cs),
(306,338,o),
(321,324,o),
(337,324,cs),
(353,324,o),
(369,339,o),
(369,366,cs),
(369,450,o),
(321,494,o),
(250,501,c),
(249,523,o),
(248,542,o),
(246,560,cs),
(244,584,o),
(229,595,o),
(215,595,cs),
(200,595,o),
(185,583,o),
(185,559,cs),
(185,553,o),
(186,532,o),
(189,495,c),
(107,468,o),
(23,366,o),
(23,234,cs),
(23,111,o),
(88,21,o),
(183,4,c),
(181,-24,o),
(180,-44,o),
(180,-52,cs),
(180,-77,o),
(195,-89,o),
(210,-89,cs),
(225,-89,o),
(240,-77,o),
(242,-52,cs),
(243,-34,o),
(245,-16,o),
(246,3,c),
(340,13,o),
(412,78,o),
(477,209,cs),
(481,217,o),
(483,225,o),
(483,231,cs),
(483,250,o),
(470,261,o),
(455,261,cs)
);
},
{
closed = 1;
nodes = (
(89,331,o),
(140,403,o),
(191,429,c),
(192,396,o),
(193,357,o),
(193,312,cs),
(193,214,o),
(190,130,o),
(186,67,c),
(128,84,o),
(89,147,o),
(89,234,cs)
);
}
);
width = 512;
}
);
unicode = 162;
},
{
glyphname = sterling;
layers = (
{
hints = (
{
horizontal = 1;
place = (-10,62);
type = Stem;
},
{
horizontal = 1;
place = (317,58);
type = Stem;
},
{
horizontal = 1;
place = (625,62);
type = Stem;
},
{
place = (108,66);
type = Stem;
},
{
place = (127,66);
type = Stem;
},
{
place = (374,63);
type = Stem;
}
);
layerId = "2F54779E-88EF-414D-815E-FD45B9A14596";
shapes = (
{
closed = 1;
nodes = (
(395,170,o),
(381,160,o),
(377,139,cs),
(366,84,o),
(338,52,o),
(302,52,cs),
(268,52,o),
(220,66,o),
(170,87,c),
(185,114,o),
(193,140,o),
(193,182,cs),
(193,217,o),
(189,267,o),
(185,317,c),
(239,317,ls),
(262,317,o),
(274,332,o),
(274,346,cs),
(274,361,o),
(262,375,o),
(239,375,cs),
(180,375,l),
(176,414,o),
(174,449,o),
(174,475,cs),
(174,574,o),
(215,625,o),
(290,625,cs),
(338,625,o),
(374,598,o),
(374,563,cs),
(374,541,o),
(361,515,o),
(361,502,cs),
(361,482,o),
(375,471,o),
(390,471,cs),
(402,471,o),
(414,478,o),
(421,495,cs),
(431,519,o),
(437,544,o),
(437,565,cs),
(437,633,o),
(372,687,o),
(290,687,cs),
(174,687,o),
(108,609,o),
(108,475,cs),
(108,448,o),
(110,413,o),
(113,376,c),
(91,376,ls),
(69,376,o),
(58,362,o),
(58,347,cs),
(58,333,o),
(69,318,o),
(91,318,cs),
(118,318,l),
(123,266,o),
(127,215,o),
(127,182,cs),
(127,120,o),
(109,106,o),
(56,76,cs),
(38,66,o),
(30,50,o),
(30,36,cs),
(30,19,o),
(43,3,o),
(63,3,cs),
(72,3,o),
(81,6,o),
(92,12,cs),
(114,25,o),
(125,32,o),
(134,32,cs),
(153,32,o),
(241,-10,o),
(305,-10,cs),
(386,-10,o),
(437,79,o),
(437,137,cs),
(437,159,o),
(424,170,o),
(409,170,cs)
);
}
);
width = 466;
}
);
unicode = 163;
},
{
glyphname = currency;
layers = (
{
hints = (
{
horizontal = 1;
place = (63,61);
type = Stem;
},
{
horizontal = 1;
place = (472,62);
type = Stem;
},
{
place = (32,65);
type = Stem;
},
{
place = (344,65);
type = Stem;
}
);
layerId = "2F54779E-88EF-414D-815E-FD45B9A14596";
shapes = (
{
closed = 1;
nodes = (
(356,135,l),
(388,177,o),
(409,234,o),
(409,302,cs),
(409,380,o),
(392,437,o),
(361,475,c),
(388,511,ls),
(395,520,o),
(398,529,o),
(398,536,cs),
(398,552,o),
(385,564,o),
(370,564,cs),
(359,564,o),
(348,559,o),
(339,547,cs),
(315,514,l),
(290,527,o),
(260,534,o),
(228,534,cs),
(195,534,o),
(162,525,o),
(134,507,c),
(101,547,ls),
(92,558,o),
(82,562,o),
(72,562,cs),
(56,562,o),
(43,550,o),
(43,533,cs),
(43,525,o),
(47,516,o),
(54,507,cs),
(87,466,l),
(53,425,o),
(32,367,o),
(32,295,cs),
(32,219,o),
(50,162,o),
(82,123,c),
(39,69,ls),
(32,60,o),
(29,50,o),
(29,42,cs),
(29,25,o),
(42,13,o),
(57,13,cs),
(66,13,o),
(77,18,o),
(86,30,cs),
(129,84,l),
(155,70,o),
(184,63,o),
(217,63,cs),
(249,63,o),
(280,73,o),
(307,91,c),
(349,33,ls),
(358,20,o),
(369,15,o),
(379,15,cs),
(396,15,o),
(410,29,o),
(410,46,cs),
(410,53,o),
(407,61,o),
(402,69,cs)
);
},
{
closed = 1;
nodes = (
(142,124,o),
(97,168,o),
(97,295,cs),
(97,414,o),
(155,472,o),
(228,472,cs),
(298,472,o),
(344,426,o),
(344,305,cs),
(344,183,o),
(285,124,o),
(217,124,cs)
);
}
);
width = 444;
}
);
unicode = 164;
},
{
glyphname = yen;
layers = (
{
hints = (
{
horizontal = 1;
place = (-3,21);
target = up;
type = BottomGhost;
},
{
horizontal = 1;
place = (171,51);
type = Stem;
},
{
horizontal = 1;
place = (267,51);
type = Stem;
},
{
place = (165,64);
type = Stem;
}
);
layerId = "2F54779E-88EF-414D-815E-FD45B9A14596";
shapes = (
{
closed = 1;
nodes = (
(408,649,o),
(395,661,o),
(379,661,cs),
(367,661,o),
(354,654,o),
(344,636,cs),
(298,553,o),
(243,445,o),
(201,356,c),
(157,428,o),
(112,538,o),
(94,633,cs),
(90,654,o),
(74,664,o),
(60,664,cs),
(44,664,o),
(28,651,o),
(28,629,cs),
(28,578,o),
(88,415,o),
(146,318,c),
(105,318,ls),
(81,318,o),
(69,306,o),
(69,293,cs),
(69,280,o),
(81,267,o),
(105,267,c),
(165,266,l),
(163,251,o),
(162,237,o),
(160,223,c),
(99,224,l),
(75,224,o),
(63,212,o),
(63,199,cs),
(63,187,o),
(75,173,o),
(99,173,c),
(154,172,l),
(142,76,o),
(138,43,o),
(138,31,cs),
(138,9,o),
(153,-3,o),
(169,-3,cs),
(184,-3,o),
(200,8,o),
(203,30,cs),
(220,172,l),
(288,171,l),
(312,171,o),
(323,184,o),
(323,197,cs),
(323,209,o),
(312,222,o),
(289,222,c),
(227,223,l),
(232,266,l),
(294,265,l),
(318,265,o),
(329,278,o),
(329,291,cs),
(329,303,o),
(318,316,o),
(295,316,cs),
(254,316,l),
(298,410,o),
(353,520,o),
(400,605,cs),
(405,614,o),
(408,623,o),
(408,631,cs)
);
}
);
width = 441;
}
);
unicode = 165;
},
{
glyphname = brokenbar;
layers = (
{
hints = (
{
horizontal = 1;
place = (704,-20);
target = down;
type = TopGhost;
},
{
place = (62,66);
type = Stem;
}
);
layerId = "2F54779E-88EF-414D-815E-FD45B9A14596";
shapes = (
{
closed = 1;
nodes = (
(112,293,o),
(129,305,o),
(129,329,cs),
(129,472,o),
(124,584,o),
(115,671,cs),
(113,694,o),
(98,704,o),
(83,704,cs),
(67,704,o),
(50,691,o),
(50,667,cs),
(50,605,o),
(63,541,o),
(63,328,cs),
(63,305,o),
(79,293,o),
(95,293,cs)
);
},
{
closed = 1;
nodes = (
(99,-260,o),
(115,-250,o),
(116,-227,cs),
(122,-125,o),
(128,4,o),
(128,115,cs),
(128,143,o),
(112,156,o),
(96,156,cs),
(79,156,o),
(62,142,o),
(62,115,cs),
(62,-33,o),
(50,-195,o),
(50,-225,cs),
(50,-248,o),
(67,-260,o),
(84,-260,cs)
);
}
);
width = 179;
}
);
unicode = 166;
},
{
glyphname = section;
layers = (
{
hints = (
{
horizontal = 1;
place = (-14,58);
type = Stem;
},
{
horizontal = 1;
place = (596,58);
type = Stem;
},
{
place = (44,59);
type = Stem;
},
{
place = (63,58);
type = Stem;
},
{
place = (75,59);
type = Stem;
},
{
place = (244,59);
type = Stem;
},
{
place = (253,59);
type = Stem;
}
);
layerId = "2F54779E-88EF-414D-815E-FD45B9A14596";
shapes = (
{
closed = 1;
nodes = (
(312,443,o),
(134,475,o),
(134,555,cs),
(134,582,o),
(156,596,o),
(183,596,cs),
(207,596,o),
(236,584,o),
(255,561,cs),
(263,552,o),
(271,548,o),
(279,548,cs),
(293,548,o),
(305,560,o),
(305,575,cs),
(305,582,o),
(302,590,o),
(296,598,cs),
(266,637,o),
(222,654,o),
(182,654,cs),
(126,654,o),
(75,619,o),
(75,558,cs),
(75,520,o),
(92,491,o),
(116,467,c),
(80,440,o),
(63,405,o),
(63,367,cs),
(63,255,o),
(244,207,o),
(244,116,cs),
(244,66,o),
(210,44,o),
(176,44,cs),
(140,44,o),
(103,68,o),
(103,112,cs),
(103,129,o),
(107,138,o),
(107,149,cs),
(107,167,o),
(94,176,o),
(81,176,cs),
(52,176,o),
(44,140,o),
(44,110,cs),
(44,29,o),
(111,-14,o),
(177,-14,cs),
(241,-14,o),
(303,26,o),
(303,108,cs),
(303,146,o),
(289,177,o),
(268,203,c),
(297,236,o),
(312,272,o),
(312,309,cs)
);
},
{
closed = 1;
nodes = (
(121,392,o),
(133,413,o),
(159,430,c),
(205,395,o),
(253,362,o),
(253,308,cs),
(253,283,o),
(248,262,o),
(233,241,c),
(182,289,o),
(121,325,o),
(121,368,cs)
);
}
);
width = 357;
}
);
unicode = 167;
},
{
glyphname = dieresis;
layers = (
{
hints = (
{
horizontal = 1;
place = (769,70);
type = Stem;
},
{
place = (35,69);
type = Stem;
},
{
place = (158,69);
type = Stem;
}
);
layerId = "2F54779E-88EF-414D-815E-FD45B9A14596";
shapes = (
{
closed = 1;
nodes = (
(89,769,o),
(104,785,o),
(104,804,cs),
(104,823,o),
(89,839,o),
(70,839,cs),
(50,839,o),
(35,823,o),
(35,804,cs),
(35,785,o),
(50,769,o),
(70,769,cs)
);
},
{
closed = 1;
nodes = (
(212,769,o),
(227,785,o),
(227,804,cs),
(227,823,o),
(212,839,o),
(193,839,cs),
(173,839,o),
(158,823,o),
(158,804,cs),
(158,785,o),
(173,769,o),
(193,769,cs)
);
}
);
width = 264;
}
);
unicode = 168;
},
{
glyphname = copyright;
layers = (
{
hints = (
{
horizontal = 1;
place = (67,55);
type = Stem;
},
{
horizontal = 1;
place = (182,48);
type = Stem;
},
{
horizontal = 1;
place = (422,45);
type = Stem;
},
{
horizontal = 1;
place = (529,53);
type = Stem;
},
{
place = (25,57);
type = Stem;
},
{
place = (161,53);
type = Stem;
},
{
place = (318,44);
type = Stem;
},
{
place = (479,58);
type = Stem;
}
);
layerId = "2F54779E-88EF-414D-815E-FD45B9A14596";
shapes = (
{
closed = 1;
nodes = (
(142,582,o),
(25,465,o),
(25,305,cs),
(25,160,o),
(118,67,o),
(280,67,cs),
(423,67,o),
(537,181,o),
(537,352,cs),
(537,485,o),
(440,582,o),
(296,582,cs)
);
},
{
closed = 1;
nodes = (
(405,529,o),
(479,456,o),
(479,352,cs),
(479,209,o),
(393,122,o),
(273,122,cs),
(150,122,o),
(82,190,o),
(82,305,cs),
(82,441,o),
(170,529,o),
(301,529,cs)
);
},
{
closed = 1;
nodes = (
(341,247,o),
(311,230,o),
(280,230,cs),
(242,230,o),
(214,258,o),
(214,319,cs),
(214,384,o),
(252,422,o),
(282,422,cs),
(307,422,o),
(318,411,o),
(318,389,cs),
(318,373,o),
(329,365,o),
(339,365,cs),
(351,365,o),
(362,374,o),
(362,391,cs),
(362,438,o),
(333,467,o),
(282,467,cs),
(222,467,o),
(161,406,o),
(161,319,cs),
(161,230,o),
(209,182,o),
(280,182,cs),
(328,182,o),
(372,208,o),
(396,247,cs),
(401,255,o),
(403,262,o),
(403,268,cs),
(403,280,o),
(395,288,o),
(385,288,cs),
(378,288,o),
(370,284,o),
(363,275,cs)
);
}
);
width = 565;
}
);
unicode = 169;
},
{
glyphname = guillemotleft;
layers = (
{
hints = (
{
horizontal = 1;
place = (165,251);
type = Stem;
},
{
place = (77,75);
type = Stem;
},
{
place = (77,287);
type = Stem;
},
{
place = (223,75);
type = Stem;
}
);
layerId = "2F54779E-88EF-414D-815E-FD45B9A14596";
shapes = (
{
closed = 1;
nodes = (
(215,175,o),
(218,182,o),
(218,190,cs),
(218,200,o),
(214,211,o),
(205,222,cs),
(190,240,o),
(176,259,o),
(161,277,cs),
(155,284,o),
(152,290,o),
(152,297,cs),
(152,304,o),
(156,310,o),
(163,318,cs),
(177,333,o),
(190,347,o),
(203,362,cs),
(212,373,o),
(217,383,o),
(217,391,cs),
(217,398,o),
(214,404,o),
(209,409,cs),
(204,414,o),
(199,416,o),
(192,416,cs),
(183,416,o),
(173,411,o),
(162,400,cs),
(137,375,o),
(114,350,o),
(89,325,cs),
(81,317,o),
(77,308,o),
(77,298,cs),
(77,290,o),
(80,282,o),
(86,275,cs),
(161,186,ls),
(173,172,o),
(184,165,o),
(195,165,cs),
(200,165,o),
(205,166,o),
(209,170,cs)
);
},
{
closed = 1;
nodes = (
(361,175,o),
(364,182,o),
(364,190,cs),
(364,200,o),
(360,211,o),
(351,222,cs),
(336,240,o),
(322,259,o),
(307,277,cs),
(301,284,o),
(298,290,o),
(298,297,cs),
(298,304,o),
(302,310,o),
(309,318,cs),
(323,333,o),
(336,347,o),
(349,362,cs),
(358,373,o),
(363,383,o),
(363,391,cs),
(363,398,o),
(360,404,o),
(355,409,cs),
(350,414,o),
(345,416,o),
(338,416,cs),
(329,416,o),
(319,411,o),
(308,400,cs),
(283,375,o),
(260,350,o),
(235,325,cs),
(227,317,o),
(223,308,o),
(223,298,cs),
(223,290,o),
(226,282,o),
(232,275,cs),
(307,186,ls),
(319,172,o),
(330,165,o),
(341,165,cs),
(346,165,o),
(351,166,o),
(355,170,cs)
);
}
);
width = 406;
}
);
leftKerningGroup = guillemotleft2;
rightKerningGroup = guillemotleft;
unicode = 171;
},
{
glyphname = logicalnot;
layers = (
{
hints = (
{
horizontal = 1;
place = (304,62);
type = Stem;
},
{
place = (274,60);
type = Stem;
}
);
layerId = "2F54779E-88EF-414D-815E-FD45B9A14596";
shapes = (
{
closed = 1;
nodes = (
(334,334,ls),
(334,354,o),
(322,366,o),
(302,366,cs),
(68,366,ls),
(44,366,o),
(31,351,o),
(31,335,cs),
(31,320,o),
(44,304,o),
(68,304,cs),
(259,304,ls),
(268,304,o),
(274,298,o),
(274,289,cs),
(274,257,ls),
(274,233,o),
(289,220,o),
(304,220,cs),
(319,220,o),
(334,233,o),
(334,257,cs)
);
}
);
width = 361;
}
);
unicode = 172;
},
{
glyphname = uni00AD;
layers = (
{
hints = (
{
horizontal = 1;
place = (219,53);
type = Stem;
},
{
place = (100,238);
type = Stem;
}
);
layerId = "2F54779E-88EF-414D-815E-FD45B9A14596";
shapes = (
{
closed = 1;
nodes = (
(326,218,o),
(338,231,o),
(338,244,cs),
(338,258,o),
(326,272,o),
(302,272,cs),
(241,272,o),
(181,274,o),
(136,274,cs),
(112,274,o),
(100,260,o),
(100,246,cs),
(100,233,o),
(112,219,o),
(136,219,cs),
(190,219,o),
(245,219,o),
(302,218,c)
);
}
);
width = 403;
}
);
leftKerningGroup = endash;
unicode = 173;
},
{
glyphname = registered;
layers = (
{
hints = (
{
horizontal = 1;
place = (295,46);
type = Stem;
},
{
horizontal = 1;
place = (464,31);
type = Stem;
},
{
horizontal = 1;
place = (552,30);
type = Stem;
},
{
horizontal = 1;
place = (624,46);
type = Stem;
},
{
place = (25,48);
type = Stem;
},
{
place = (158,30);
type = Stem;
},
{
place = (234,33);
type = Stem;
},
{
place = (350,48);
type = Stem;
}
);
layerId = "2F54779E-88EF-414D-815E-FD45B9A14596";
shapes = (
{
closed = 1;
nodes = (
(113,670,o),
(25,583,o),
(25,472,cs),
(25,360,o),
(90,295,o),
(209,295,cs),
(313,295,o),
(398,378,o),
(398,503,cs),
(398,604,o),
(331,670,o),
(222,670,cs)
);
},
{
closed = 1;
nodes = (
(120,341,o),
(73,387,o),
(73,472,cs),
(73,558,o),
(139,624,o),
(222,624,cs),
(304,624,o),
(350,578,o),
(350,503,cs),
(350,402,o),
(289,341,o),
(212,341,cs)
);
},
{
closed = 1;
nodes = (
(255,484,o),
(267,503,o),
(267,524,cs),
(267,559,o),
(243,582,o),
(210,582,cs),
(193,582,o),
(175,576,o),
(161,566,c),
(155,412,ls),
(154,399,o),
(163,392,o),
(171,392,cs),
(179,392,o),
(186,398,o),
(187,411,cs),
(190,468,l),
(196,466,o),
(203,464,o),
(209,464,c),
(210,464,l),
(215,445,o),
(226,418,o),
(245,399,cs),
(250,394,o),
(255,392,o),
(260,392,cs),
(268,392,o),
(275,398,o),
(275,406,cs),
(275,411,o),
(274,416,o),
(270,421,cs),
(255,439,o),
(246,452,o),
(239,474,c)
);
},
{
closed = 1;
nodes = (
(193,546,l),
(199,550,o),
(206,552,o),
(212,552,cs),
(224,552,o),
(234,542,o),
(234,526,cs),
(234,506,o),
(223,495,o),
(209,495,cs),
(204,495,o),
(197,497,o),
(191,501,c)
);
}
);
width = 425;
}
);
unicode = 174;
},
{
glyphname = macron;
layers = (
{
hints = (
{
horizontal = 1;
place = (784,48);
type = Stem;
},
{
place = (34,206);
type = Stem;
}
);
layerId = "2F54779E-88EF-414D-815E-FD45B9A14596";
shapes = (
{
closed = 1;
nodes = (
(208,782,l),
(229,782,o),
(240,794,o),
(240,806,cs),
(240,818,o),
(229,830,o),
(208,830,c),
(67,832,l),
(45,832,o),
(34,820,o),
(34,808,cs),
(34,796,o),
(45,784,o),
(67,784,c)
);
}
);
width = 273;
}
);
unicode = 175;
},
{
glyphname = degree;
layers = (
{
hints = (
{
horizontal = 1;
place = (477,53);
type = Stem;
},
{
horizontal = 1;
place = (617,53);
type = Stem;
},
{
place = (29,55);
type = Stem;
},
{
place = (173,54);
type = Stem;
}
);
layerId = "2F54779E-88EF-414D-815E-FD45B9A14596";
shapes = (
{
closed = 1;
nodes = (
(180,477,o),
(227,525,o),
(227,585,cs),
(227,635,o),
(192,670,o),
(140,670,cs),
(78,670,o),
(29,623,o),
(29,563,cs),
(29,512,o),
(65,477,o),
(119,477,cs)
);
},
{
closed = 1;
nodes = (
(99,530,o),
(84,543,o),
(84,565,cs),
(84,594,o),
(107,617,o),
(137,617,cs),
(159,617,o),
(173,604,o),
(173,584,cs),
(173,555,o),
(150,530,o),
(122,530,cs)
);
}
);
width = 257;
}
);
unicode = 176;
},
{
glyphname = plusminus;
layers = (
{
hints = (
{
horizontal = 1;
place = (168,55);
type = Stem;
},
{
horizontal = 1;
place = (340,54);
type = Stem;
},
{
horizontal = 1;
place = (341,54);
type = Stem;
},
{
place = (206,56);
type = Stem;
}
);
layerId = "2F54779E-88EF-414D-815E-FD45B9A14596";
shapes = (
{
closed = 1;
nodes = (
(205,341,l),
(205,285,ls),
(205,264,o),
(219,253,o),
(233,253,cs),
(247,253,o),
(261,264,o),
(261,284,cs),
(261,340,l),
(332,340,ls),
(353,340,o),
(364,354,o),
(364,367,cs),
(364,381,o),
(353,394,o),
(333,394,cs),
(262,394,l),
(262,456,ls),
(262,477,o),
(248,488,o),
(234,488,cs),
(220,488,o),
(206,477,o),
(206,457,cs),
(206,395,l),
(126,395,ls),
(105,395,o),
(94,381,o),
(94,368,cs),
(94,354,o),
(105,341,o),
(125,341,cs)
);
},
{
closed = 1;
nodes = (
(128,223,l),
(107,223,o),
(96,209,o),
(96,196,cs),
(96,182,o),
(107,169,o),
(127,169,c),
(331,168,l),
(352,168,o),
(363,182,o),
(363,195,cs),
(363,209,o),
(352,222,o),
(332,222,c)
);
}
);
width = 396;
}
);
unicode = 177;
},
{
glyphname = uni00B2;
layers = (
{
hints = (
{
horizontal = 1;
place = (379,45);
type = Stem;
},
{
horizontal = 1;
place = (660,49);
type = Stem;
},
{
place = (54,45);
type = Stem;
},
{
place = (163,50);
type = Stem;
}
);
layerId = "2F54779E-88EF-414D-815E-FD45B9A14596";
shapes = (
{
closed = 1;
nodes = (
(234,379,o),
(263,431,o),
(263,453,cs),
(263,465,o),
(253,473,o),
(242,473,cs),
(235,473,o),
(227,469,o),
(222,459,cs),
(210,435,o),
(199,424,o),
(184,424,cs),
(167,424,o),
(152,432,o),
(132,433,c),
(182,485,o),
(213,563,o),
(213,615,cs),
(213,677,o),
(181,709,o),
(132,709,cs),
(88,709,o),
(54,675,o),
(54,624,cs),
(54,606,o),
(66,597,o),
(77,597,cs),
(88,597,o),
(99,606,o),
(99,623,cs),
(99,645,o),
(114,660,o),
(132,660,cs),
(151,660,o),
(163,648,o),
(163,615,cs),
(163,561,o),
(137,493,o),
(88,450,cs),
(79,442,o),
(67,436,o),
(59,433,cs),
(46,428,o),
(39,417,o),
(39,407,cs),
(39,395,o),
(48,383,o),
(65,383,cs),
(80,383,o),
(96,392,o),
(115,392,cs),
(140,392,o),
(161,379,o),
(188,379,cs)
);
}
);
width = 301;
}
);
leftKerningGroup = uni00B2;
unicode = 178;
},
{
glyphname = uni00B3;
layers = (
{
hints = (
{
horizontal = 1;
place = (378,46);
type = Stem;
},
{
horizontal = 1;
place = (661,46);
type = Stem;
},
{
place = (42,45);
type = Stem;
},
{
place = (155,49);
type = Stem;
},
{
place = (178,49);
type = Stem;
}
);
layerId = "2F54779E-88EF-414D-815E-FD45B9A14596";
shapes = (
{
closed = 1;
nodes = (
(192,580,o),
(204,603,o),
(204,629,cs),
(204,673,o),
(170,707,o),
(126,707,cs),
(77,707,o),
(42,670,o),
(42,616,cs),
(42,597,o),
(53,587,o),
(65,587,cs),
(76,587,o),
(87,597,o),
(87,616,cs),
(87,645,o),
(106,661,o),
(125,661,cs),
(140,661,o),
(155,649,o),
(155,627,cs),
(155,605,o),
(146,587,o),
(121,579,cs),
(108,575,o),
(102,564,o),
(102,555,cs),
(102,543,o),
(110,533,o),
(125,533,cs),
(162,533,o),
(178,505,o),
(178,477,cs),
(178,450,o),
(161,424,o),
(128,424,cs),
(110,424,o),
(92,432,o),
(83,449,cs),
(77,460,o),
(69,465,o),
(61,465,cs),
(50,465,o),
(40,455,o),
(40,441,cs),
(40,408,o),
(85,378,o),
(128,378,cs),
(177,378,o),
(227,409,o),
(227,474,cs),
(227,509,o),
(209,545,o),
(172,563,c)
);
}
);
width = 267;
}
);
leftKerningGroup = uni00B2;
unicode = 179;
},
{
glyphname = acute;
layers = (
{
hints = (
{
horizontal = 1;
place = (764,127);
type = Stem;
},
{
place = (35,122);
type = Stem;
}
);
layerId = "2F54779E-88EF-414D-815E-FD45B9A14596";
shapes = (
{
closed = 1;
nodes = (
(47,814,ls),
(38,805,o),
(35,796,o),
(35,788,cs),
(35,774,o),
(45,764,o),
(59,764,cs),
(67,764,o),
(76,768,o),
(85,777,cs),
(145,840,ls),
(153,849,o),
(157,858,o),
(157,866,cs),
(157,880,o),
(147,891,o),
(133,891,cs),
(125,891,o),
(116,887,o),
(107,877,cs)
);
}
);
width = 198;
}
);
unicode = 180;
},
{
glyphname = paragraph;
layers = (
{
hints = (
{
horizontal = 1;
place = (-16,61);
type = Stem;
},
{
horizontal = 1;
place = (572,58);
type = Stem;
},
{
horizontal = 1;
place = (603,64);
type = Stem;
},
{
place = (30,191);
type = Stem;
},
{
place = (285,66);
type = Stem;
}
);
layerId = "2F54779E-88EF-414D-815E-FD45B9A14596";
shapes = (
{
closed = 1;
nodes = (
(423,630,o),
(409,628,o),
(401,628,cs),
(332,628,o),
(265,667,o),
(184,667,cs),
(93,667,o),
(30,604,o),
(30,478,cs),
(30,284,o),
(66,248,o),
(127,248,cs),
(191,248,o),
(221,278,o),
(221,569,cs),
(221,591,o),
(233,603,o),
(251,603,cs),
(261,603,o),
(272,600,o),
(285,596,c),
(285,560,o),
(281,415,o),
(276,264,cs),
(271,112,o),
(230,45,o),
(178,45,cs),
(144,45,o),
(123,68,o),
(108,118,cs),
(103,137,o),
(89,145,o),
(77,145,cs),
(61,145,o),
(47,133,o),
(47,113,cs),
(47,63,o),
(94,-16,o),
(179,-16,cs),
(274,-16,o),
(335,77,o),
(342,262,cs),
(345,326,o),
(350,507,o),
(351,578,c),
(369,574,o),
(389,572,o),
(413,572,cs),
(437,572,o),
(463,583,o),
(463,605,cs),
(463,618,o),
(453,630,o),
(437,630,cs)
);
}
);
width = 413;
}
);
unicode = 182;
},
{
glyphname = periodcentered;
layers = (
{
hints = (
{
horizontal = 1;
place = (261,95);
type = Stem;
},
{
place = (30,95);
type = Stem;
}
);
layerId = "2F54779E-88EF-414D-815E-FD45B9A14596";
shapes = (
{
closed = 1;
nodes = (
(104,261,o),
(125,282,o),
(125,309,cs),
(125,335,o),
(104,356,o),
(78,356,cs),
(51,356,o),
(30,335,o),
(30,309,cs),
(30,282,o),
(51,261,o),
(78,261,cs)
);
}
);
width = 155;
}
);
unicode = 183;
},
{
glyphname = cedilla;
layers = (
{
hints = (
{
horizontal = 1;
place = (-189,50);
type = Stem;
},
{
place = (82,49);
type = Stem;
},
{
place = (126,53);
type = Stem;
}
);
layerId = "2F54779E-88EF-414D-815E-FD45B9A14596";
shapes = (
{
closed = 1;
nodes = (
(67,-185,o),
(85,-189,o),
(102,-189,cs),
(152,-189,o),
(179,-155,o),
(179,-121,cs),
(179,-100,o),
(169,-80,o),
(149,-65,cs),
(135,-55,o),
(131,-51,o),
(131,-45,cs),
(131,-38,o),
(142,-7,o),
(143,-3,cs),
(144,0,o),
(145,4,o),
(145,7,cs),
(145,19,o),
(135,26,o),
(125,26,cs),
(116,26,o),
(105,20,o),
(100,7,cs),
(92,-13,o),
(82,-50,o),
(82,-61,cs),
(82,-72,o),
(93,-80,o),
(107,-90,cs),
(119,-99,o),
(126,-107,o),
(126,-117,cs),
(126,-129,o),
(116,-139,o),
(100,-139,cs),
(90,-139,o),
(78,-135,o),
(68,-130,cs),
(63,-127,o),
(58,-126,o),
(54,-126,cs),
(41,-126,o),
(32,-137,o),
(32,-150,cs),
(32,-159,o),
(38,-170,o),
(50,-176,cs)
);
}
);
width = 216;
}
);
unicode = 184;
},
{
glyphname = uni00B9;
layers = (
{
hints = (
{
horizontal = 1;
place = (701,-20);
target = down;
type = TopGhost;
},
{
place = (93,63);
type = Stem;
}
);
layerId = "2F54779E-88EF-414D-815E-FD45B9A14596";
shapes = (
{
closed = 1;
nodes = (
(130,385,o),
(141,394,o),
(144,415,cs),
(152,470,o),
(156,539,o),
(156,603,cs),
(156,628,o),
(155,652,o),
(154,675,cs),
(153,692,o),
(141,701,o),
(128,701,cs),
(117,701,o),
(106,693,o),
(99,677,cs),
(87,649,o),
(73,637,o),
(52,618,cs),
(43,610,o),
(39,602,o),
(39,595,cs),
(39,583,o),
(48,574,o),
(60,574,cs),
(75,574,o),
(94,595,o),
(105,609,c),
(107,486,o),
(93,428,o),
(93,413,cs),
(93,394,o),
(104,385,o),
(118,385,cs)
);
}
);
width = 195;
}
);
unicode = 185;
},
{
glyphname = guillemotright;
layers = (
{
hints = (
{
horizontal = 1;
place = (165,251);
type = Stem;
},
{
place = (76,287);
type = Stem;
}
);
layerId = "2F54779E-88EF-414D-815E-FD45B9A14596";
shapes = (
{
closed = 1;
nodes = (
(89,166,o),
(94,165,o),
(99,165,cs),
(110,165,o),
(121,172,o),
(133,186,cs),
(208,275,ls),
(214,282,o),
(217,290,o),
(217,298,cs),
(217,308,o),
(213,317,o),
(205,325,cs),
(180,350,o),
(157,375,o),
(132,400,cs),
(121,411,o),
(111,416,o),
(102,416,cs),
(95,416,o),
(90,414,o),
(85,409,cs),
(80,404,o),
(77,397,o),
(77,390,cs),
(77,382,o),
(81,372,o),
(91,362,cs),
(105,348,o),
(118,333,o),
(131,318,cs),
(138,310,o),
(142,303,o),
(142,296,cs),
(142,290,o),
(139,284,o),
(133,277,cs),
(118,259,o),
(104,240,o),
(89,222,cs),
(80,211,o),
(76,200,o),
(76,190,cs),
(76,182,o),
(79,175,o),
(85,170,cs)
);
},
{
closed = 1;
nodes = (
(235,166,o),
(240,165,o),
(245,165,cs),
(256,165,o),
(267,172,o),
(279,186,cs),
(354,275,ls),
(360,282,o),
(363,290,o),
(363,298,cs),
(363,308,o),
(359,317,o),
(351,325,cs),
(326,350,o),
(303,375,o),
(278,400,cs),
(267,411,o),
(257,416,o),
(248,416,cs),
(241,416,o),
(236,414,o),
(231,409,cs),
(226,404,o),
(223,397,o),
(223,390,cs),
(223,382,o),
(227,372,o),
(237,362,cs),
(251,348,o),
(264,333,o),
(277,318,cs),
(284,310,o),
(288,303,o),
(288,296,cs),
(288,290,o),
(285,284,o),
(279,277,cs),
(264,259,o),
(250,240,o),
(235,222,cs),
(226,211,o),
(222,200,o),
(222,190,cs),
(222,182,o),
(225,175,o),
(231,170,cs)
);
}
);
width = 413;
}
);
leftKerningGroup = guillemotright;
unicode = 187;
},
{
glyphname = onequarter;
layers = (
{
hints = (
{
horizontal = 1;
place = (-3,21);
target = up;
type = BottomGhost;
},
{
horizontal = 1;
place = (131,48);
type = Stem;
},
{
place = (103,63);
type = Stem;
},
{
place = (342,51);
type = Stem;
},
{
place = (428,48);
type = Stem;
}
);
layerId = "2F54779E-88EF-414D-815E-FD45B9A14596";
shapes = (
{
closed = 1;
nodes = (
(445,652,o),
(435,662,o),
(422,662,cs),
(414,662,o),
(403,657,o),
(393,646,cs),
(292,535,o),
(152,176,o),
(56,56,cs),
(48,46,o),
(45,36,o),
(45,27,cs),
(45,12,o),
(55,2,o),
(68,2,cs),
(77,2,o),
(87,7,o),
(97,20,cs),
(195,148,o),
(328,479,o),
(433,610,cs),
(441,620,o),
(445,630,o),
(445,638,cs)
);
},
{
closed = 1;
nodes = (
(85,534,o),
(104,555,o),
(115,569,c),
(117,446,o),
(103,388,o),
(103,373,cs),
(103,354,o),
(114,345,o),
(128,345,cs),
(140,345,o),
(151,354,o),
(154,375,cs),
(162,430,o),
(166,499,o),
(166,563,cs),
(166,588,o),
(165,612,o),
(164,635,cs),
(163,652,o),
(151,661,o),
(138,661,cs),
(127,661,o),
(116,653,o),
(109,637,cs),
(97,609,o),
(83,597,o),
(62,578,cs),
(53,570,o),
(49,562,o),
(49,555,cs),
(49,543,o),
(58,534,o),
(70,534,cs)
);
},
{
closed = 1;
nodes = (
(508,161,o),
(497,165,o),
(487,169,c),
(493,208,o),
(499,238,o),
(499,251,cs),
(499,270,o),
(488,281,o),
(476,281,cs),
(465,281,o),
(453,271,o),
(449,251,cs),
(445,230,o),
(441,205,o),
(437,178,c),
(431,179,o),
(424,179,o),
(418,179,cs),
(405,179,o),
(393,178,o),
(381,176,c),
(389,204,o),
(393,243,o),
(393,275,cs),
(393,302,o),
(392,339,o),
(366,339,cs),
(353,339,o),
(342,329,o),
(342,314,cs),
(342,299,o),
(345,274,o),
(345,261,cs),
(345,223,o),
(338,185,o),
(320,162,cs),
(315,155,o),
(312,147,o),
(312,140,cs),
(312,126,o),
(323,114,o),
(339,114,cs),
(355,114,o),
(375,131,o),
(418,131,cs),
(423,131,o),
(427,131,o),
(432,130,c),
(428,94,o),
(427,57,o),
(428,26,c),
(428,7,o),
(441,-3,o),
(453,-3,cs),
(465,-3,o),
(477,7,o),
(477,27,cs),
(477,35,o),
(476,44,o),
(476,54,cs),
(476,75,o),
(478,97,o),
(480,119,c),
(497,112,o),
(508,105,o),
(518,105,cs),
(531,105,o),
(540,115,o),
(540,126,cs),
(540,135,o),
(534,147,o),
(519,155,cs)
);
}
);
width = 583;
}
);
leftKerningGroup = onehalf;
unicode = 188;
},
{
glyphname = onehalf;
layers = (
{
hints = (
{
horizontal = 1;
place = (-1,45);
type = Stem;
},
{
horizontal = 1;
place = (12,32);
type = Stem;
},
{
horizontal = 1;
place = (280,49);
type = Stem;
},
{
place = (103,63);
type = Stem;
},
{
place = (318,45);
type = Stem;
},
{
place = (427,50);
type = Stem;
}
);
layerId = "2F54779E-88EF-414D-815E-FD45B9A14596";
shapes = (
{
closed = 1;
nodes = (
(193,148,o),
(326,479,o),
(431,610,cs),
(439,620,o),
(443,630,o),
(443,638,cs),
(443,652,o),
(433,662,o),
(420,662,cs),
(412,662,o),
(401,657,o),
(391,646,cs),
(290,535,o),
(150,176,o),
(54,56,cs),
(46,46,o),
(43,36,o),
(43,27,cs),
(43,12,o),
(53,2,o),
(66,2,cs),
(75,2,o),
(85,7,o),
(95,20,cs)
);
},
{
closed = 1;
nodes = (
(140,345,o),
(151,354,o),
(154,375,cs),
(162,430,o),
(166,499,o),
(166,563,cs),
(166,588,o),
(165,612,o),
(164,635,cs),
(163,652,o),
(151,661,o),
(138,661,cs),
(127,661,o),
(116,653,o),
(109,637,cs),
(97,609,o),
(83,597,o),
(62,578,cs),
(53,570,o),
(49,562,o),
(49,555,cs),
(49,543,o),
(58,534,o),
(70,534,cs),
(85,534,o),
(104,555,o),
(115,569,c),
(117,446,o),
(103,388,o),
(103,373,cs),
(103,354,o),
(114,345,o),
(128,345,cs)
);
},
{
closed = 1;
nodes = (
(498,-1,o),
(527,51,o),
(527,73,cs),
(527,85,o),
(517,93,o),
(506,93,cs),
(499,93,o),
(491,89,o),
(486,79,cs),
(474,55,o),
(463,44,o),
(448,44,cs),
(431,44,o),
(416,52,o),
(396,53,c),
(446,105,o),
(477,183,o),
(477,235,cs),
(477,297,o),
(445,329,o),
(396,329,cs),
(352,329,o),
(318,295,o),
(318,244,cs),
(318,226,o),
(330,217,o),
(341,217,cs),
(352,217,o),
(363,226,o),
(363,243,cs),
(363,265,o),
(378,280,o),
(396,280,cs),
(415,280,o),
(427,268,o),
(427,235,cs),
(427,181,o),
(401,113,o),
(352,70,cs),
(343,62,o),
(331,56,o),
(323,53,cs),
(310,48,o),
(303,37,o),
(303,27,cs),
(303,15,o),
(312,3,o),
(329,3,cs),
(344,3,o),
(360,12,o),
(379,12,cs),
(404,12,o),
(425,-1,o),
(452,-1,cs)
);
}
);
width = 565;
}
);
leftKerningGroup = onehalf;
unicode = 189;
},
{
glyphname = threequarters;
layers = (
{
hints = (
{
horizontal = 1;
place = (-3,21);
target = up;
type = BottomGhost;
},
{
horizontal = 1;
place = (131,48);
type = Stem;
},
{
horizontal = 1;
place = (338,46);
type = Stem;
},
{
horizontal = 1;
place = (621,46);
type = Stem;
},
{
place = (11,45);
type = Stem;
},
{
place = (124,49);
type = Stem;
},
{
place = (147,49);
type = Stem;
},
{
place = (342,51);
type = Stem;
},
{
place = (427,50);
type = Stem;
}
);
layerId = "2F54779E-88EF-414D-815E-FD45B9A14596";
shapes = (
{
closed = 1;
nodes = (
(196,469,o),
(178,505,o),
(141,523,c),
(161,540,o),
(173,563,o),
(173,589,cs),
(173,633,o),
(139,667,o),
(95,667,cs),
(46,667,o),
(11,630,o),
(11,576,cs),
(11,557,o),
(22,547,o),
(34,547,cs),
(45,547,o),
(56,557,o),
(56,576,cs),
(56,605,o),
(75,621,o),
(94,621,cs),
(109,621,o),
(124,609,o),
(124,587,cs),
(124,565,o),
(115,547,o),
(90,539,cs),
(77,535,o),
(71,524,o),
(71,515,cs),
(71,503,o),
(79,493,o),
(94,493,cs),
(131,493,o),
(147,465,o),
(147,437,cs),
(147,410,o),
(130,384,o),
(97,384,cs),
(79,384,o),
(61,392,o),
(52,409,cs),
(46,420,o),
(38,425,o),
(30,425,cs),
(19,425,o),
(9,415,o),
(9,401,cs),
(9,368,o),
(54,338,o),
(97,338,cs),
(146,338,o),
(196,369,o),
(196,434,cs)
);
},
{
closed = 1;
nodes = (
(443,652,o),
(433,662,o),
(420,662,cs),
(412,662,o),
(401,657,o),
(391,646,cs),
(290,535,o),
(150,176,o),
(54,56,cs),
(46,46,o),
(43,36,o),
(43,27,cs),
(43,12,o),
(53,2,o),
(66,2,cs),
(75,2,o),
(85,7,o),
(95,20,cs),
(193,148,o),
(326,479,o),
(431,610,cs),
(439,620,o),
(443,630,o),
(443,638,cs)
);
},
{
closed = 1;
nodes = (
(508,161,o),
(498,165,o),
(487,169,c),
(493,208,o),
(499,238,o),
(499,251,cs),
(499,270,o),
(488,281,o),
(476,281,cs),
(465,281,o),
(453,271,o),
(449,251,cs),
(445,230,o),
(440,205,o),
(437,178,c),
(430,179,o),
(424,179,o),
(418,179,cs),
(405,179,o),
(393,178,o),
(381,176,c),
(389,204,o),
(393,243,o),
(393,275,cs),
(393,302,o),
(392,339,o),
(366,339,cs),
(353,339,o),
(342,329,o),
(342,314,cs),
(342,299,o),
(345,274,o),
(345,261,cs),
(345,223,o),
(337,186,o),
(320,162,cs),
(315,155,o),
(312,147,o),
(312,140,cs),
(312,126,o),
(323,114,o),
(339,114,cs),
(355,114,o),
(375,131,o),
(418,131,cs),
(423,131,o),
(427,131,o),
(431,130,c),
(429,104,o),
(427,78,o),
(427,53,cs),
(427,44,o),
(427,35,o),
(428,26,cs),
(429,7,o),
(441,-3,o),
(453,-3,cs),
(465,-3,o),
(477,7,o),
(477,27,cs),
(477,56,o),
(478,88,o),
(481,118,c),
(497,112,o),
(508,105,o),
(518,105,cs),
(531,105,o),
(540,115,o),
(540,126,cs),
(540,135,o),
(534,147,o),
(519,155,cs)
);
}
);
width = 630;
}
);
unicode = 190;
},
{
glyphname = questiondown;
layers = (
{
hints = (
{
horizontal = 1;
place = (-255,62);
type = Stem;
},
{
horizontal = 1;
place = (368,95);
type = Stem;
},
{
place = (32,66);
type = Stem;
},
{
place = (174,95);
type = Stem;
},
{
place = (191,63);
type = Stem;
},
{
place = (287,65);
type = Stem;
}
);
layerId = "2F54779E-88EF-414D-815E-FD45B9A14596";
shapes = (
{
closed = 1;
nodes = (
(195,463,o),
(174,442,o),
(174,415,cs),
(174,389,o),
(195,368,o),
(221,368,cs),
(248,368,o),
(269,389,o),
(269,415,cs),
(269,442,o),
(248,463,o),
(221,463,cs)
);
},
{
closed = 1;
nodes = (
(207,293,o),
(191,280,o),
(191,254,cs),
(191,170,o),
(156,125,o),
(119,83,cs),
(77,36,o),
(32,-8,o),
(32,-100,cs),
(32,-203,o),
(115,-255,o),
(196,-255,cs),
(275,-255,o),
(352,-207,o),
(352,-111,cs),
(352,-80,o),
(340,-43,o),
(312,-43,cs),
(297,-43,o),
(283,-54,o),
(283,-74,cs),
(283,-82,o),
(287,-94,o),
(287,-106,cs),
(287,-164,o),
(240,-193,o),
(193,-193,cs),
(146,-193,o),
(98,-163,o),
(98,-100,cs),
(98,-36,o),
(129,0,o),
(164,38,c),
(206,86,o),
(254,139,o),
(254,254,cs),
(254,280,o),
(238,293,o),
(222,293,cs)
);
}
);
width = 377;
}
);
unicode = 191;
},
{
glyphname = Agrave;
layers = (
{
anchors = (
{
name = t.uni0302_2;
position = "{620, 700}";
}
);
hints = (
{
horizontal = 1;
place = (-3,63);
type = Stem;
},
{
horizontal = 1;
place = (0,63);
type = Stem;
},
{
horizontal = 1;
place = (260,60);
type = Stem;
},
{
horizontal = 1;
place = (267,57);
type = Stem;
},
{
horizontal = 1;
place = (609,98);
type = Stem;
},
{
horizontal = 1;
place = (707,-20);
target = down;
type = TopGhost;
},
{
place = (542,70);
type = Stem;
}
);
layerId = "2F54779E-88EF-414D-815E-FD45B9A14596";
shapes = (
{
closed = 1;
nodes = (
(602,777,ls),
(611,768,o),
(620,764,o),
(628,764,cs),
(642,764,o),
(652,774,o),
(652,788,cs),
(652,796,o),
(649,805,o),
(640,814,cs),
(580,877,ls),
(571,887,o),
(562,891,o),
(554,891,cs),
(540,891,o),
(530,880,o),
(530,866,cs),
(530,858,o),
(534,849,o),
(542,840,cs)
);
},
{
closed = 1;
nodes = (
(744,148,o),
(698,63,o),
(660,63,cs),
(629,63,o),
(612,110,o),
(612,238,cs),
(612,418,o),
(662,617,o),
(662,671,cs),
(662,692,o),
(646,707,o),
(621,707,cs),
(552,707,o),
(477,561,o),
(388,369,cs),
(380,353,o),
(373,337,o),
(366,321,c),
(350,321,o),
(334,320,o),
(319,320,cs),
(297,320,o),
(276,321,o),
(256,322,cs),
(237,323,o),
(223,309,o),
(223,291,cs),
(223,275,o),
(235,262,o),
(254,261,cs),
(280,260,o),
(308,260,o),
(337,260,c),
(277,140,o),
(225,60,o),
(153,60,cs),
(99,60,o),
(87,103,o),
(58,103,cs),
(45,103,o),
(34,91,o),
(34,74,cs),
(34,36,o),
(90,-3,o),
(153,-3,cs),
(279,-3,o),
(348,118,o),
(415,263,c),
(543,272,l),
(542,254,o),
(542,235,o),
(542,215,cs),
(542,51,o),
(595,0,o),
(661,0,cs),
(735,0,o),
(789,109,o),
(827,212,cs),
(829,217,o),
(830,222,o),
(830,226,cs),
(830,243,o),
(818,255,o),
(805,255,cs),
(796,255,o),
(786,249,o),
(779,233,cs)
);
},
{
closed = 1;
nodes = (
(514,330,o),
(479,327,o),
(443,325,c),
(448,335,o),
(452,345,o),
(457,355,cs),
(496,441,o),
(571,609,o),
(584,609,cs),
(591,609,o),
(559,493,o),
(547,332,c)
);
}
);
width = 746;
}
);
leftKerningGroup = A2;
rightKerningGroup = A;
unicode = 192;
},
{
glyphname = Aacute;
layers = (
{
anchors = (
{
name = t.uni0302_2;
position = "{620, 700}";
}
);
hints = (
{
horizontal = 1;
place = (-3,63);
type = Stem;
},
{
horizontal = 1;
place = (0,63);
type = Stem;
},
{
horizontal = 1;
place = (260,60);
type = Stem;
},
{
horizontal = 1;
place = (267,57);
type = Stem;
},
{
horizontal = 1;
place = (609,98);
type = Stem;
},
{
horizontal = 1;
place = (707,-20);
target = down;
type = TopGhost;
},
{
place = (542,70);
type = Stem;
}
);
layerId = "2F54779E-88EF-414D-815E-FD45B9A14596";
shapes = (
{
closed = 1;
nodes = (
(701,840,ls),
(709,849,o),
(713,858,o),
(713,866,cs),
(713,880,o),
(703,891,o),
(689,891,cs),
(681,891,o),
(672,887,o),
(663,877,cs),
(603,814,ls),
(594,805,o),
(591,796,o),
(591,788,cs),
(591,774,o),
(601,764,o),
(615,764,cs),
(623,764,o),
(632,768,o),
(641,777,cs)
);
},
{
closed = 1;
nodes = (
(744,148,o),
(698,63,o),
(660,63,cs),
(629,63,o),
(612,110,o),
(612,238,cs),
(612,418,o),
(662,617,o),
(662,671,cs),
(662,692,o),
(646,707,o),
(621,707,cs),
(552,707,o),
(477,561,o),
(388,369,cs),
(380,353,o),
(373,337,o),
(366,321,c),
(350,321,o),
(334,320,o),
(319,320,cs),
(297,320,o),
(276,321,o),
(256,322,cs),
(237,323,o),
(223,309,o),
(223,291,cs),
(223,275,o),
(235,262,o),
(254,261,cs),
(280,260,o),
(308,260,o),
(337,260,c),
(277,140,o),
(225,60,o),
(153,60,cs),
(99,60,o),
(87,103,o),
(58,103,cs),
(45,103,o),
(34,91,o),
(34,74,cs),
(34,36,o),
(90,-3,o),
(153,-3,cs),
(279,-3,o),
(348,118,o),
(415,263,c),
(543,272,l),
(542,254,o),
(542,235,o),
(542,215,cs),
(542,51,o),
(595,0,o),
(661,0,cs),
(735,0,o),
(789,109,o),
(827,212,cs),
(829,217,o),
(830,222,o),
(830,226,cs),
(830,243,o),
(818,255,o),
(805,255,cs),
(796,255,o),
(786,249,o),
(779,233,cs)
);
},
{
closed = 1;
nodes = (
(514,330,o),
(479,327,o),
(443,325,c),
(448,335,o),
(452,345,o),
(457,355,cs),
(496,441,o),
(571,609,o),
(584,609,cs),
(591,609,o),
(559,493,o),
(547,332,c)
);
}
);
width = 746;
}
);
leftKerningGroup = A2;
rightKerningGroup = A;
unicode = 193;
},
{
glyphname = Acircumflex;
layers = (
{
anchors = (
{
name = t.uni0302_2;
position = "{620, 700}";
}
);
hints = (
{
horizontal = 1;
place = (-3,63);
type = Stem;
},
{
horizontal = 1;
place = (0,63);
type = Stem;
},
{
horizontal = 1;
place = (260,60);
type = Stem;
},
{
horizontal = 1;
place = (267,57);
type = Stem;
},
{
horizontal = 1;
place = (609,98);
type = Stem;
},
{
horizontal = 1;
place = (707,-20);
target = down;
type = TopGhost;
},
{
place = (542,70);
type = Stem;
}
);
layerId = "2F54779E-88EF-414D-815E-FD45B9A14596";
shapes = (
{
closed = 1;
nodes = (
(616,807,ls),
(623,812,o),
(629,815,o),
(634,815,cs),
(639,815,o),
(644,812,o),
(649,806,cs),
(677,775,ls),
(685,766,o),
(694,762,o),
(702,762,cs),
(716,762,o),
(727,773,o),
(727,787,cs),
(727,795,o),
(724,802,o),
(717,810,cs),
(660,875,ls),
(654,881,o),
(650,884,o),
(644,884,cs),
(639,884,o),
(634,882,o),
(628,878,cs),
(539,818,ls),
(526,809,o),
(521,799,o),
(521,790,cs),
(521,777,o),
(532,766,o),
(546,766,cs),
(553,766,o),
(560,768,o),
(567,773,cs)
);
},
{
closed = 1;
nodes = (
(744,148,o),
(698,63,o),
(660,63,cs),
(629,63,o),
(612,110,o),
(612,238,cs),
(612,418,o),
(662,617,o),
(662,671,cs),
(662,692,o),
(646,707,o),
(621,707,cs),
(552,707,o),
(477,561,o),
(388,369,cs),
(380,353,o),
(373,337,o),
(366,321,c),
(350,321,o),
(334,320,o),
(319,320,cs),
(297,320,o),
(276,321,o),
(256,322,cs),
(237,323,o),
(223,309,o),
(223,291,cs),
(223,275,o),
(235,262,o),
(254,261,cs),
(280,260,o),
(308,260,o),
(337,260,c),
(277,140,o),
(225,60,o),
(153,60,cs),
(99,60,o),
(87,103,o),
(58,103,cs),
(45,103,o),
(34,91,o),
(34,74,cs),
(34,36,o),
(90,-3,o),
(153,-3,cs),
(279,-3,o),
(348,118,o),
(415,263,c),
(543,272,l),
(542,254,o),
(542,235,o),
(542,215,cs),
(542,51,o),
(595,0,o),
(661,0,cs),
(735,0,o),
(789,109,o),
(827,212,cs),
(829,217,o),
(830,222,o),
(830,226,cs),
(830,243,o),
(818,255,o),
(805,255,cs),
(796,255,o),
(786,249,o),
(779,233,cs)
);
},
{
closed = 1;
nodes = (
(514,330,o),
(479,327,o),
(443,325,c),
(448,335,o),
(452,345,o),
(457,355,cs),
(496,441,o),
(571,609,o),
(584,609,cs),
(591,609,o),
(559,493,o),
(547,332,c)
);
}
);
width = 746;
}
);
leftKerningGroup = A2;
rightKerningGroup = A;
unicode = 194;
},
{
glyphname = Atilde;
layers = (
{
anchors = (
{
name = t.uni0302_2;
position = "{620, 700}";
}
);
hints = (
{
horizontal = 1;
place = (-3,63);
type = Stem;
},
{
horizontal = 1;
place = (0,63);
type = Stem;
},
{
horizontal = 1;
place = (260,60);
type = Stem;
},
{
horizontal = 1;
place = (267,57);
type = Stem;
},
{
horizontal = 1;
place = (609,98);
type = Stem;
},
{
horizontal = 1;
place = (707,-20);
target = down;
type = TopGhost;
},
{
horizontal = 1;
place = (774,48);
type = Stem;
},
{
horizontal = 1;
place = (807,47);
type = Stem;
},
{
place = (542,70);
type = Stem;
}
);
layerId = "2F54779E-88EF-414D-815E-FD45B9A14596";
shapes = (
{
closed = 1;
nodes = (
(572,804,o),
(578,807,o),
(585,807,cs),
(612,807,o),
(635,774,o),
(676,774,cs),
(696,774,o),
(716,782,o),
(731,802,cs),
(738,811,o),
(740,819,o),
(740,827,cs),
(740,840,o),
(731,848,o),
(720,848,cs),
(713,848,o),
(705,844,o),
(698,836,cs),
(690,826,o),
(684,822,o),
(677,822,cs),
(652,822,o),
(630,854,o),
(586,854,cs),
(562,854,o),
(541,844,o),
(528,825,cs),
(522,817,o),
(519,808,o),
(519,801,cs),
(519,788,o),
(528,779,o),
(539,779,cs),
(546,779,o),
(554,783,o),
(561,791,cs)
);
},
{
closed = 1;
nodes = (
(744,148,o),
(698,63,o),
(660,63,cs),
(629,63,o),
(612,110,o),
(612,238,cs),
(612,418,o),
(662,617,o),
(662,671,cs),
(662,692,o),
(646,707,o),
(621,707,cs),
(552,707,o),
(477,561,o),
(388,369,cs),
(380,353,o),
(373,337,o),
(366,321,c),
(350,321,o),
(334,320,o),
(319,320,cs),
(297,320,o),
(276,321,o),
(256,322,cs),
(237,323,o),
(223,309,o),
(223,291,cs),
(223,275,o),
(235,262,o),
(254,261,cs),
(280,260,o),
(308,260,o),
(337,260,c),
(277,140,o),
(225,60,o),
(153,60,cs),
(99,60,o),
(87,103,o),
(58,103,cs),
(45,103,o),
(34,91,o),
(34,74,cs),
(34,36,o),
(90,-3,o),
(153,-3,cs),
(279,-3,o),
(348,118,o),
(415,263,c),
(543,272,l),
(542,254,o),
(542,235,o),
(542,215,cs),
(542,51,o),
(595,0,o),
(661,0,cs),
(735,0,o),
(789,109,o),
(827,212,cs),
(829,217,o),
(830,222,o),
(830,226,cs),
(830,243,o),
(818,255,o),
(805,255,cs),
(796,255,o),
(786,249,o),
(779,233,cs)
);
},
{
closed = 1;
nodes = (
(514,330,o),
(479,327,o),
(443,325,c),
(448,335,o),
(452,345,o),
(457,355,cs),
(496,441,o),
(571,609,o),
(584,609,cs),
(591,609,o),
(559,493,o),
(547,332,c)
);
}
);
width = 746;
}
);
leftKerningGroup = A2;
rightKerningGroup = A;
unicode = 195;
},
{
glyphname = Adieresis;
layers = (
{
anchors = (
{
name = t.uni0302_2;
position = "{620, 700}";
}
);
hints = (
{
horizontal = 1;
place = (-3,63);
type = Stem;
},
{
horizontal = 1;
place = (0,63);
type = Stem;
},
{
horizontal = 1;
place = (260,60);
type = Stem;
},
{
horizontal = 1;
place = (267,57);
type = Stem;
},
{
horizontal = 1;
place = (609,98);
type = Stem;
},
{
horizontal = 1;
place = (707,-20);
target = down;
type = TopGhost;
},
{
horizontal = 1;
place = (769,70);
type = Stem;
},
{
place = (535,69);
type = Stem;
},
{
place = (542,70);
type = Stem;
},
{
place = (658,69);
type = Stem;
}
);
layerId = "2F54779E-88EF-414D-815E-FD45B9A14596";
shapes = (
{
closed = 1;
nodes = (
(589,769,o),
(604,785,o),
(604,804,cs),
(604,823,o),
(589,839,o),
(570,839,cs),
(550,839,o),
(535,823,o),
(535,804,cs),
(535,785,o),
(550,769,o),
(570,769,cs)
);
},
{
closed = 1;
nodes = (
(712,769,o),
(727,785,o),
(727,804,cs),
(727,823,o),
(712,839,o),
(693,839,cs),
(673,839,o),
(658,823,o),
(658,804,cs),
(658,785,o),
(673,769,o),
(693,769,cs)
);
},
{
closed = 1;
nodes = (
(744,148,o),
(698,63,o),
(660,63,cs),
(629,63,o),
(612,110,o),
(612,238,cs),
(612,418,o),
(662,617,o),
(662,671,cs),
(662,692,o),
(646,707,o),
(621,707,cs),
(552,707,o),
(477,561,o),
(388,369,cs),
(380,353,o),
(373,337,o),
(366,321,c),
(350,321,o),
(334,320,o),
(319,320,cs),
(297,320,o),
(276,321,o),
(256,322,cs),
(237,323,o),
(223,309,o),
(223,291,cs),
(223,275,o),
(235,262,o),
(254,261,cs),
(280,260,o),
(308,260,o),
(337,260,c),
(277,140,o),
(225,60,o),
(153,60,cs),
(99,60,o),
(87,103,o),
(58,103,cs),
(45,103,o),
(34,91,o),
(34,74,cs),
(34,36,o),
(90,-3,o),
(153,-3,cs),
(279,-3,o),
(348,118,o),
(415,263,c),
(543,272,l),
(542,254,o),
(542,235,o),
(542,215,cs),
(542,51,o),
(595,0,o),
(661,0,cs),
(735,0,o),
(789,109,o),
(827,212,cs),
(829,217,o),
(830,222,o),
(830,226,cs),
(830,243,o),
(818,255,o),
(805,255,cs),
(796,255,o),
(786,249,o),
(779,233,cs)
);
},
{
closed = 1;
nodes = (
(514,330,o),
(479,327,o),
(443,325,c),
(448,335,o),
(452,345,o),
(457,355,cs),
(496,441,o),
(571,609,o),
(584,609,cs),
(591,609,o),
(559,493,o),
(547,332,c)
);
}
);
width = 746;
}
);
leftKerningGroup = A2;
rightKerningGroup = A;
unicode = 196;
},
{
glyphname = Aring;
layers = (
{
anchors = (
{
name = t.uni0302_2;
position = "{620, 700}";
}
);
hints = (
{
horizontal = 1;
place = (-3,63);
type = Stem;
},
{
horizontal = 1;
place = (0,63);
type = Stem;
},
{
horizontal = 1;
place = (260,60);
type = Stem;
},
{
horizontal = 1;
place = (267,57);
type = Stem;
},
{
horizontal = 1;
place = (609,98);
type = Stem;
},
{
horizontal = 1;
place = (707,-20);
target = down;
type = TopGhost;
},
{
horizontal = 1;
place = (749,42);
type = Stem;
},
{
horizontal = 1;
place = (852,42);
type = Stem;
},
{
place = (542,70);
type = Stem;
},
{
place = (557,43);
type = Stem;
},
{
place = (663,43);
type = Stem;
}
);
layerId = "2F54779E-88EF-414D-815E-FD45B9A14596";
shapes = (
{
closed = 1;
nodes = (
(679,749,o),
(706,788,o),
(706,825,cs),
(706,860,o),
(684,894,o),
(639,894,cs),
(586,894,o),
(557,853,o),
(557,814,cs),
(557,781,o),
(580,749,o),
(628,749,cs)
);
},
{
closed = 1;
nodes = (
(654,852,o),
(663,839,o),
(663,825,cs),
(663,809,o),
(651,791,o),
(629,791,cs),
(610,791,o),
(600,804,o),
(600,818,cs),
(600,834,o),
(613,852,o),
(636,852,cs)
);
},
{
closed = 1;
nodes = (
(744,148,o),
(698,63,o),
(660,63,cs),
(629,63,o),
(612,110,o),
(612,238,cs),
(612,418,o),
(662,617,o),
(662,671,cs),
(662,692,o),
(646,707,o),
(621,707,cs),
(552,707,o),
(477,561,o),
(388,369,cs),
(380,353,o),
(373,337,o),
(366,321,c),
(350,321,o),
(334,320,o),
(319,320,cs),
(297,320,o),
(276,321,o),
(256,322,cs),
(237,323,o),
(223,309,o),
(223,291,cs),
(223,275,o),
(235,262,o),
(254,261,cs),
(280,260,o),
(308,260,o),
(337,260,c),
(277,140,o),
(225,60,o),
(153,60,cs),
(99,60,o),
(87,103,o),
(58,103,cs),
(45,103,o),
(34,91,o),
(34,74,cs),
(34,36,o),
(90,-3,o),
(153,-3,cs),
(279,-3,o),
(348,118,o),
(415,263,c),
(543,272,l),
(542,254,o),
(542,235,o),
(542,215,cs),
(542,51,o),
(595,0,o),
(661,0,cs),
(735,0,o),
(789,109,o),
(827,212,cs),
(829,217,o),
(830,222,o),
(830,226,cs),
(830,243,o),
(818,255,o),
(805,255,cs),
(796,255,o),
(786,249,o),
(779,233,cs)
);
},
{
closed = 1;
nodes = (
(514,330,o),
(479,327,o),
(443,325,c),
(448,335,o),
(452,345,o),
(457,355,cs),
(496,441,o),
(571,609,o),
(584,609,cs),
(591,609,o),
(559,493,o),
(547,332,c)
);
}
);
width = 746;
}
);
leftKerningGroup = A2;
rightKerningGroup = A;
unicode = 197;
},
{
glyphname = AE;
layers = (
{
anchors = (
{
name = t.uni0302_2;
position = "{660, 700}";
}
);
hints = (
{
horizontal = 1;
place = (-4,63);
type = Stem;
},
{
horizontal = 1;
place = (-3,63);
type = Stem;
},
{
horizontal = 1;
place = (260,61);
type = Stem;
},
{
horizontal = 1;
place = (263,62);
type = Stem;
},
{
horizontal = 1;
place = (609,98);
type = Stem;
},
{
horizontal = 1;
place = (643,63);
type = Stem;
},
{
place = (542,71);
type = Stem;
},
{
place = (673,70);
type = Stem;
},
{
place = (933,65);
type = Stem;
}
);
layerId = "2F54779E-88EF-414D-815E-FD45B9A14596";
shapes = (
{
closed = 1;
nodes = (
(952,129,o),
(885,59,o),
(779,59,cs),
(666,59,o),
(613,122,o),
(613,190,cs),
(613,288,o),
(690,364,o),
(829,364,cs),
(851,364,o),
(864,378,o),
(864,393,cs),
(864,405,o),
(855,418,o),
(837,425,cs),
(773,450,o),
(743,487,o),
(743,542,cs),
(743,602,o),
(784,643,o),
(843,643,cs),
(894,643,o),
(933,608,o),
(933,562,cs),
(933,554,o),
(931,547,o),
(931,538,cs),
(931,522,o),
(942,511,o),
(963,511,cs),
(978,511,o),
(988,521,o),
(993,534,cs),
(997,544,o),
(998,558,o),
(998,571,cs),
(998,647,o),
(932,706,o),
(844,706,cs),
(744,706,o),
(673,634,o),
(673,544,cs),
(673,498,o),
(690,456,o),
(736,418,c),
(693,409,o),
(649,385,o),
(619,356,c),
(631,498,o),
(662,629,o),
(662,671,cs),
(662,692,o),
(646,707,o),
(621,707,cs),
(552,707,o),
(477,561,o),
(388,369,cs),
(380,353,o),
(373,337,o),
(366,322,c),
(347,321,o),
(327,321,o),
(309,321,cs),
(290,321,o),
(272,321,o),
(255,322,cs),
(236,323,o),
(222,309,o),
(222,291,cs),
(222,275,o),
(234,262,o),
(253,261,cs),
(279,260,o),
(308,260,o),
(337,260,c),
(277,140,o),
(225,60,o),
(153,60,cs),
(99,60,o),
(87,103,o),
(58,103,cs),
(45,103,o),
(34,91,o),
(34,74,cs),
(34,36,o),
(90,-3,o),
(153,-3,cs),
(279,-3,o),
(348,118,o),
(415,263,c),
(460,266,o),
(504,269,o),
(543,273,c),
(542,254,o),
(542,235,o),
(542,215,cs),
(542,77,o),
(623,-4,o),
(771,-4,cs),
(896,-4,o),
(989,74,o),
(1040,212,cs),
(1042,218,o),
(1043,224,o),
(1043,229,cs),
(1043,246,o),
(1032,257,o),
(1020,257,cs),
(1009,257,o),
(999,250,o),
(992,233,cs)
);
},
{
closed = 1;
nodes = (
(514,330,o),
(479,327,o),
(443,325,c),
(448,335,o),
(452,345,o),
(457,355,cs),
(496,441,o),
(571,609,o),
(584,609,cs),
(591,609,o),
(559,493,o),
(547,332,c)
);
}
);
width = 959;
}
);
leftKerningGroup = A2;
unicode = 198;
},
{
glyphname = Ccedilla;
layers = (
{
anchors = (
{
name = t.uni0302_2;
position = "{411, 700}";
},
{
name = b.uni0326_1_2;
position = "{327, 0}";
}
);
hints = (
{
horizontal = 1;
place = (-188,50);
type = Stem;
},
{
horizontal = 1;
place = (-9,63);
type = Stem;
},
{
horizontal = 1;
place = (-9,21);
target = up;
type = BottomGhost;
},
{
horizontal = 1;
place = (-6,21);
target = up;
type = BottomGhost;
},
{
horizontal = 1;
place = (648,63);
type = Stem;
},
{
place = (93,70);
type = Stem;
},
{
place = (334,53);
type = Stem;
},
{
place = (468,65);
type = Stem;
}
);
layerId = "2F54779E-88EF-414D-815E-FD45B9A14596";
shapes = (
{
closed = 1;
nodes = (
(508,103,o),
(430,54,o),
(346,54,cs),
(244,54,o),
(163,135,o),
(163,276,cs),
(163,452,o),
(265,648,o),
(393,648,cs),
(441,648,o),
(468,621,o),
(468,583,cs),
(468,545,o),
(447,521,o),
(447,494,cs),
(447,480,o),
(457,470,o),
(475,470,cs),
(489,470,o),
(500,480,o),
(509,494,cs),
(525,520,o),
(533,561,o),
(533,585,cs),
(533,658,o),
(479,711,o),
(394,711,cs),
(216,711,o),
(93,484,o),
(93,281,cs),
(93,110,o),
(181,10,o),
(303,-6,c),
(296,-26,o),
(290,-51,o),
(290,-60,cs),
(290,-71,o),
(301,-79,o),
(315,-89,cs),
(327,-98,o),
(334,-106,o),
(334,-116,cs),
(334,-128,o),
(324,-138,o),
(308,-138,cs),
(298,-138,o),
(286,-134,o),
(276,-129,cs),
(271,-126,o),
(266,-125,o),
(262,-125,cs),
(249,-125,o),
(240,-136,o),
(240,-149,cs),
(240,-158,o),
(246,-169,o),
(258,-175,cs),
(275,-184,o),
(293,-188,o),
(310,-188,cs),
(360,-188,o),
(387,-154,o),
(387,-120,cs),
(387,-99,o),
(377,-79,o),
(357,-64,cs),
(343,-54,o),
(339,-50,o),
(339,-44,cs),
(339,-39,o),
(345,-20,o),
(349,-9,c),
(454,-6,o),
(550,58,o),
(611,212,cs),
(613,217,o),
(614,221,o),
(614,225,cs),
(614,241,o),
(601,253,o),
(588,253,cs),
(579,253,o),
(569,247,o),
(563,233,cs)
);
}
);
width = 530;
}
);
leftKerningGroup = C;
rightKerningGroup = A;
unicode = 199;
},
{
glyphname = Egrave;
layers = (
{
anchors = (
{
name = t.uni0302_2;
position = "{341, 700}";
}
);
hints = (
{
horizontal = 1;
place = (-9,63);
type = Stem;
},
{
horizontal = 1;
place = (352,64);
type = Stem;
},
{
horizontal = 1;
place = (390,-20);
target = down;
type = TopGhost;
},
{
horizontal = 1;
place = (646,63);
type = Stem;
},
{
place = (115,70);
type = Stem;
},
{
place = (166,70);
type = Stem;
},
{
place = (428,65);
type = Stem;
}
);
layerId = "2F54779E-88EF-414D-815E-FD45B9A14596";
shapes = (
{
closed = 1;
nodes = (
(323,777,ls),
(332,768,o),
(341,764,o),
(349,764,cs),
(363,764,o),
(373,774,o),
(373,788,cs),
(373,796,o),
(370,805,o),
(361,814,cs),
(301,877,ls),
(292,887,o),
(283,891,o),
(275,891,cs),
(261,891,o),
(251,880,o),
(251,866,cs),
(251,858,o),
(255,849,o),
(263,840,cs)
);
},
{
closed = 1;
nodes = (
(506,114,o),
(420,54,o),
(336,54,cs),
(233,54,o),
(185,122,o),
(185,195,cs),
(185,274,o),
(248,352,o),
(366,352,cs),
(390,352,o),
(406,365,o),
(406,383,cs),
(406,402,o),
(390,416,o),
(366,416,cs),
(280,416,o),
(236,481,o),
(236,540,cs),
(236,601,o),
(273,646,o),
(338,646,cs),
(390,646,o),
(428,613,o),
(428,565,cs),
(428,552,o),
(426,543,o),
(426,530,cs),
(426,515,o),
(436,505,o),
(454,505,cs),
(478,505,o),
(493,531,o),
(493,574,cs),
(493,650,o),
(426,709,o),
(339,709,cs),
(231,709,o),
(166,629,o),
(166,544,cs),
(166,487,o),
(193,427,o),
(255,390,c),
(162,348,o),
(115,270,o),
(115,191,cs),
(115,88,o),
(187,-9,o),
(328,-9,cs),
(432,-9,o),
(543,56,o),
(602,212,cs),
(604,217,o),
(605,221,o),
(605,226,cs),
(605,242,o),
(592,253,o),
(579,253,cs),
(570,253,o),
(560,247,o),
(554,233,cs)
);
}
);
width = 521;
}
);
leftKerningGroup = E;
rightKerningGroup = A;
unicode = 200;
},
{
glyphname = Eacute;
layers = (
{
anchors = (
{
name = t.uni0302_2;
position = "{341, 700}";
}
);
hints = (
{
horizontal = 1;
place = (-9,63);
type = Stem;
},
{
horizontal = 1;
place = (352,64);
type = Stem;
},
{
horizontal = 1;
place = (390,-20);
target = down;
type = TopGhost;
},
{
horizontal = 1;
place = (646,63);
type = Stem;
},
{
place = (115,70);
type = Stem;
},
{
place = (166,70);
type = Stem;
},
{
place = (428,65);
type = Stem;
}
);
layerId = "2F54779E-88EF-414D-815E-FD45B9A14596";
shapes = (
{
closed = 1;
nodes = (
(422,840,ls),
(430,849,o),
(434,858,o),
(434,866,cs),
(434,880,o),
(424,891,o),
(410,891,cs),
(402,891,o),
(393,887,o),
(384,877,cs),
(324,814,ls),
(315,805,o),
(312,796,o),
(312,788,cs),
(312,774,o),
(322,764,o),
(336,764,cs),
(344,764,o),
(353,768,o),
(362,777,cs)
);
},
{
closed = 1;
nodes = (
(506,114,o),
(420,54,o),
(336,54,cs),
(233,54,o),
(185,122,o),
(185,195,cs),
(185,274,o),
(248,352,o),
(366,352,cs),
(390,352,o),
(406,365,o),
(406,383,cs),
(406,402,o),
(390,416,o),
(366,416,cs),
(280,416,o),
(236,481,o),
(236,540,cs),
(236,601,o),
(273,646,o),
(338,646,cs),
(390,646,o),
(428,613,o),
(428,565,cs),
(428,552,o),
(426,543,o),
(426,530,cs),
(426,515,o),
(436,505,o),
(454,505,cs),
(478,505,o),
(493,531,o),
(493,574,cs),
(493,650,o),
(426,709,o),
(339,709,cs),
(231,709,o),
(166,629,o),
(166,544,cs),
(166,487,o),
(193,427,o),
(255,390,c),
(162,348,o),
(115,270,o),
(115,191,cs),
(115,88,o),
(187,-9,o),
(328,-9,cs),
(432,-9,o),
(543,56,o),
(602,212,cs),
(604,217,o),
(605,221,o),
(605,226,cs),
(605,242,o),
(592,253,o),
(579,253,cs),
(570,253,o),
(560,247,o),
(554,233,cs)
);
}
);
width = 521;
}
);
leftKerningGroup = E;
rightKerningGroup = A;
unicode = 201;
},
{
glyphname = Ecircumflex;
layers = (
{
anchors = (
{
name = t.uni0302_2;
position = "{341, 700}";
}
);
hints = (
{
horizontal = 1;
place = (-9,63);
type = Stem;
},
{
horizontal = 1;
place = (352,64);
type = Stem;
},
{
horizontal = 1;
place = (390,-20);
target = down;
type = TopGhost;
},
{
horizontal = 1;
place = (646,63);
type = Stem;
},
{
place = (115,70);
type = Stem;
},
{
place = (166,70);
type = Stem;
},
{
place = (428,65);
type = Stem;
}
);
layerId = "2F54779E-88EF-414D-815E-FD45B9A14596";
shapes = (
{
closed = 1;
nodes = (
(337,807,ls),
(344,812,o),
(350,815,o),
(355,815,cs),
(360,815,o),
(365,812,o),
(370,806,cs),
(398,775,ls),
(406,766,o),
(415,762,o),
(423,762,cs),
(437,762,o),
(448,773,o),
(448,787,cs),
(448,795,o),
(445,802,o),
(438,810,cs),
(381,875,ls),
(375,881,o),
(371,884,o),
(365,884,cs),
(360,884,o),
(355,882,o),
(349,878,cs),
(260,818,ls),
(247,809,o),
(242,799,o),
(242,790,cs),
(242,777,o),
(253,766,o),
(267,766,cs),
(274,766,o),
(281,768,o),
(288,773,cs)
);
},
{
closed = 1;
nodes = (
(506,114,o),
(420,54,o),
(336,54,cs),
(233,54,o),
(185,122,o),
(185,195,cs),
(185,274,o),
(248,352,o),
(366,352,cs),
(390,352,o),
(406,365,o),
(406,383,cs),
(406,402,o),
(390,416,o),
(366,416,cs),
(280,416,o),
(236,481,o),
(236,540,cs),
(236,601,o),
(273,646,o),
(338,646,cs),
(390,646,o),
(428,613,o),
(428,565,cs),
(428,552,o),
(426,543,o),
(426,530,cs),
(426,515,o),
(436,505,o),
(454,505,cs),
(478,505,o),
(493,531,o),
(493,574,cs),
(493,650,o),
(426,709,o),
(339,709,cs),
(231,709,o),
(166,629,o),
(166,544,cs),
(166,487,o),
(193,427,o),
(255,390,c),
(162,348,o),
(115,270,o),
(115,191,cs),
(115,88,o),
(187,-9,o),
(328,-9,cs),
(432,-9,o),
(543,56,o),
(602,212,cs),
(604,217,o),
(605,221,o),
(605,226,cs),
(605,242,o),
(592,253,o),
(579,253,cs),
(570,253,o),
(560,247,o),
(554,233,cs)
);
}
);
width = 521;
}
);
leftKerningGroup = E;
rightKerningGroup = A;
unicode = 202;
},
{
glyphname = Edieresis;
layers = (
{
anchors = (
{
name = t.uni0302_2;
position = "{341, 700}";
}
);
hints = (
{
horizontal = 1;
place = (-9,63);
type = Stem;
},
{
horizontal = 1;
place = (352,64);
type = Stem;
},
{
horizontal = 1;
place = (390,-20);
target = down;
type = TopGhost;
},
{
horizontal = 1;
place = (646,63);
type = Stem;
},
{
horizontal = 1;
place = (769,70);
type = Stem;
},
{
place = (115,70);
type = Stem;
},
{
place = (166,70);
type = Stem;
},
{
place = (256,69);
type = Stem;
},
{
place = (379,69);
type = Stem;
},
{
place = (428,65);
type = Stem;
}
);
layerId = "2F54779E-88EF-414D-815E-FD45B9A14596";
shapes = (
{
closed = 1;
nodes = (
(310,769,o),
(325,785,o),
(325,804,cs),
(325,823,o),
(310,839,o),
(291,839,cs),
(271,839,o),
(256,823,o),
(256,804,cs),
(256,785,o),
(271,769,o),
(291,769,cs)
);
},
{
closed = 1;
nodes = (
(433,769,o),
(448,785,o),
(448,804,cs),
(448,823,o),
(433,839,o),
(414,839,cs),
(394,839,o),
(379,823,o),
(379,804,cs),
(379,785,o),
(394,769,o),
(414,769,cs)
);
},
{
closed = 1;
nodes = (
(506,114,o),
(420,54,o),
(336,54,cs),
(233,54,o),
(185,122,o),
(185,195,cs),
(185,274,o),
(248,352,o),
(366,352,cs),
(390,352,o),
(406,365,o),
(406,383,cs),
(406,402,o),
(390,416,o),
(366,416,cs),
(280,416,o),
(236,481,o),
(236,540,cs),
(236,601,o),
(273,646,o),
(338,646,cs),
(390,646,o),
(428,613,o),
(428,565,cs),
(428,552,o),
(426,543,o),
(426,530,cs),
(426,515,o),
(436,505,o),
(454,505,cs),
(478,505,o),
(493,531,o),
(493,574,cs),
(493,650,o),
(426,709,o),
(339,709,cs),
(231,709,o),
(166,629,o),
(166,544,cs),
(166,487,o),
(193,427,o),
(255,390,c),
(162,348,o),
(115,270,o),
(115,191,cs),
(115,88,o),
(187,-9,o),
(328,-9,cs),
(432,-9,o),
(543,56,o),
(602,212,cs),
(604,217,o),
(605,221,o),
(605,226,cs),
(605,242,o),
(592,253,o),
(579,253,cs),
(570,253,o),
(560,247,o),
(554,233,cs)
);
}
);
width = 521;
}
);
leftKerningGroup = E;
rightKerningGroup = A;
unicode = 203;
},
{
glyphname = Igrave;
layers = (
{
anchors = (
{
name = t.uni0302_2;
position = "{306, 700}";
},
{
name = b.uni0326_1_2;
position = "{235, 0}";
}
);
hints = (
{
horizontal = 1;
place = (-7,63);
type = Stem;
},
{
horizontal = 1;
place = (645,63);
type = Stem;
},
{
place = (112,70);
type = Stem;
},
{
place = (367,69);
type = Stem;
}
);
layerId = "2F54779E-88EF-414D-815E-FD45B9A14596";
shapes = (
{
closed = 1;
nodes = (
(266,877,ls),
(257,887,o),
(248,891,o),
(240,891,cs),
(226,891,o),
(216,880,o),
(216,866,cs),
(216,858,o),
(220,849,o),
(228,840,cs),
(288,777,ls),
(297,768,o),
(306,764,o),
(314,764,cs),
(328,764,o),
(338,774,o),
(338,788,cs),
(338,796,o),
(335,805,o),
(326,814,cs)
);
},
{
closed = 1;
nodes = (
(366,616,o),
(367,592,o),
(367,568,cs),
(367,239,o),
(327,56,o),
(248,56,cs),
(204,56,o),
(199,84,o),
(172,84,cs),
(158,84,o),
(145,71,o),
(145,54,cs),
(145,24,o),
(188,-7,o),
(248,-7,cs),
(383,-7,o),
(436,172,o),
(436,562,cs),
(436,597,o),
(436,632,o),
(434,672,cs),
(433,689,o),
(425,697,o),
(405,700,cs),
(369,705,o),
(329,708,o),
(286,708,cs),
(173,708,o),
(112,647,o),
(112,572,cs),
(112,507,o),
(178,438,o),
(221,438,cs),
(240,438,o),
(253,451,o),
(253,470,cs),
(253,479,o),
(247,488,o),
(230,500,cs),
(199,522,o),
(182,547,o),
(182,573,cs),
(182,615,o),
(211,645,o),
(288,645,cs),
(312,645,o),
(336,644,o),
(366,641,c)
);
}
);
width = 470;
}
);
leftKerningGroup = I2;
rightKerningGroup = I;
unicode = 204;
},
{
glyphname = Iacute;
layers = (
{
anchors = (
{
name = t.uni0302_2;
position = "{306, 700}";
},
{
name = b.uni0326_1_2;
position = "{235, 0}";
}
);
hints = (
{
horizontal = 1;
place = (-7,63);
type = Stem;
},
{
horizontal = 1;
place = (645,63);
type = Stem;
},
{
place = (112,70);
type = Stem;
},
{
place = (367,69);
type = Stem;
}
);
layerId = "2F54779E-88EF-414D-815E-FD45B9A14596";
shapes = (
{
closed = 1;
nodes = (
(289,814,ls),
(280,805,o),
(277,796,o),
(277,788,cs),
(277,774,o),
(287,764,o),
(301,764,cs),
(309,764,o),
(318,768,o),
(327,777,cs),
(387,840,ls),
(395,849,o),
(399,858,o),
(399,866,cs),
(399,880,o),
(389,891,o),
(375,891,cs),
(367,891,o),
(358,887,o),
(349,877,cs)
);
},
{
closed = 1;
nodes = (
(366,616,o),
(367,592,o),
(367,568,cs),
(367,239,o),
(327,56,o),
(248,56,cs),
(204,56,o),
(199,84,o),
(172,84,cs),
(158,84,o),
(145,71,o),
(145,54,cs),
(145,24,o),
(188,-7,o),
(248,-7,cs),
(383,-7,o),
(436,172,o),
(436,562,cs),
(436,597,o),
(436,632,o),
(434,672,cs),
(433,689,o),
(425,697,o),
(405,700,cs),
(369,705,o),
(329,708,o),
(286,708,cs),
(173,708,o),
(112,647,o),
(112,572,cs),
(112,507,o),
(178,438,o),
(221,438,cs),
(240,438,o),
(253,451,o),
(253,470,cs),
(253,479,o),
(247,488,o),
(230,500,cs),
(199,522,o),
(182,547,o),
(182,573,cs),
(182,615,o),
(211,645,o),
(288,645,cs),
(312,645,o),
(336,644,o),
(366,641,c)
);
}
);
width = 470;
}
);
leftKerningGroup = I2;
rightKerningGroup = I;
unicode = 205;
},
{
glyphname = Icircumflex;
layers = (
{
anchors = (
{
name = t.uni0302_2;
position = "{306, 700}";
},
{
name = b.uni0326_1_2;
position = "{235, 0}";
}
);
hints = (
{
horizontal = 1;
place = (-7,63);
type = Stem;
},
{
horizontal = 1;
place = (645,63);
type = Stem;
},
{
place = (112,70);
type = Stem;
},
{
place = (367,69);
type = Stem;
}
);
layerId = "2F54779E-88EF-414D-815E-FD45B9A14596";
shapes = (
{
closed = 1;
nodes = (
(302,807,ls),
(309,812,o),
(315,815,o),
(320,815,cs),
(325,815,o),
(330,812,o),
(335,806,cs),
(363,775,ls),
(371,766,o),
(380,762,o),
(388,762,cs),
(402,762,o),
(413,773,o),
(413,787,cs),
(413,795,o),
(410,802,o),
(403,810,cs),
(346,875,ls),
(340,881,o),
(336,884,o),
(330,884,cs),
(325,884,o),
(320,882,o),
(314,878,cs),
(225,818,ls),
(212,809,o),
(207,799,o),
(207,790,cs),
(207,777,o),
(218,766,o),
(232,766,cs),
(239,766,o),
(246,768,o),
(253,773,cs)
);
},
{
closed = 1;
nodes = (
(366,616,o),
(367,592,o),
(367,568,cs),
(367,239,o),
(327,56,o),
(248,56,cs),
(204,56,o),
(199,84,o),
(172,84,cs),
(158,84,o),
(145,71,o),
(145,54,cs),
(145,24,o),
(188,-7,o),
(248,-7,cs),
(383,-7,o),
(436,172,o),
(436,562,cs),
(436,597,o),
(436,632,o),
(434,672,cs),
(433,689,o),
(425,697,o),
(405,700,cs),
(369,705,o),
(329,708,o),
(286,708,cs),
(173,708,o),
(112,647,o),
(112,572,cs),
(112,507,o),
(178,438,o),
(221,438,cs),
(240,438,o),
(253,451,o),
(253,470,cs),
(253,479,o),
(247,488,o),
(230,500,cs),
(199,522,o),
(182,547,o),
(182,573,cs),
(182,615,o),
(211,645,o),
(288,645,cs),
(312,645,o),
(336,644,o),
(366,641,c)
);
}
);
width = 470;
}
);
leftKerningGroup = I2;
rightKerningGroup = I;
unicode = 206;
},
{
glyphname = Idieresis;
layers = (
{
anchors = (
{
name = t.uni0302_2;
position = "{306, 700}";
},
{
name = b.uni0326_1_2;
position = "{235, 0}";
}
);
hints = (
{
horizontal = 1;
place = (-7,63);
type = Stem;
},
{
horizontal = 1;
place = (645,63);
type = Stem;
},
{
horizontal = 1;
place = (769,70);
type = Stem;
},
{
place = (112,70);
type = Stem;
},
{
place = (221,69);
type = Stem;
},
{
place = (344,69);
type = Stem;
},
{
place = (367,69);
type = Stem;
}
);
layerId = "2F54779E-88EF-414D-815E-FD45B9A14596";
shapes = (
{
closed = 1;
nodes = (
(275,769,o),
(290,785,o),
(290,804,cs),
(290,823,o),
(275,839,o),
(256,839,cs),
(236,839,o),
(221,823,o),
(221,804,cs),
(221,785,o),
(236,769,o),
(256,769,cs)
);
},
{
closed = 1;
nodes = (
(398,769,o),
(413,785,o),
(413,804,cs),
(413,823,o),
(398,839,o),
(379,839,cs),
(359,839,o),
(344,823,o),
(344,804,cs),
(344,785,o),
(359,769,o),
(379,769,cs)
);
},
{
closed = 1;
nodes = (
(366,616,o),
(367,592,o),
(367,568,cs),
(367,239,o),
(327,56,o),
(248,56,cs),
(204,56,o),
(199,84,o),
(172,84,cs),
(158,84,o),
(145,71,o),
(145,54,cs),
(145,24,o),
(188,-7,o),
(248,-7,cs),
(383,-7,o),
(436,172,o),
(436,562,cs),
(436,597,o),
(436,632,o),
(434,672,cs),
(433,689,o),
(425,697,o),
(405,700,cs),
(369,705,o),
(329,708,o),
(286,708,cs),
(173,708,o),
(112,647,o),
(112,572,cs),
(112,507,o),
(178,438,o),
(221,438,cs),
(240,438,o),
(253,451,o),
(253,470,cs),
(253,479,o),
(247,488,o),
(230,500,cs),
(199,522,o),
(182,547,o),
(182,573,cs),
(182,615,o),
(211,645,o),
(288,645,cs),
(312,645,o),
(336,644,o),
(366,641,c)
);
}
);
width = 470;
}
);
leftKerningGroup = I2;
rightKerningGroup = I;
unicode = 207;
},
{
glyphname = Eth;
layers = (
{
anchors = (
{
name = t.uni0302_2;
position = "{415, 700}";
}
);
hints = (
{
horizontal = 1;
place = (-7,60);
type = Stem;
},
{
horizontal = 1;
place = (-7,63);
type = Stem;
},
{
horizontal = 1;
place = (104,58);
type = Stem;
},
{
horizontal = 1;
place = (273,63);
type = Stem;
},
{
horizontal = 1;
place = (388,61);
type = Stem;
},
{
horizontal = 1;
place = (647,63);
type = Stem;
},
{
place = (61,64);
type = Stem;
},
{
place = (124,68);
type = Stem;
},
{
place = (310,70);
type = Stem;
},
{
place = (673,70);
type = Stem;
}
);
layerId = "2F54779E-88EF-414D-815E-FD45B9A14596";
shapes = (
{
closed = 1;
nodes = (
(239,710,o),
(124,632,o),
(124,522,cs),
(124,440,o),
(185,388,o),
(282,388,cs),
(292,388,o),
(302,388,o),
(312,389,c),
(309,333,l),
(282,332,o),
(255,333,o),
(225,336,cs),
(199,339,o),
(186,322,o),
(186,305,cs),
(186,290,o),
(196,275,o),
(217,273,cs),
(246,270,o),
(275,269,o),
(302,270,c),
(295,222,o),
(283,174,o),
(265,136,c),
(231,151,o),
(196,162,o),
(162,162,cs),
(96,162,o),
(61,120,o),
(61,77,cs),
(61,35,o),
(94,-7,o),
(163,-7,cs),
(217,-7,o),
(258,15,o),
(290,53,c),
(346,24,o),
(409,-7,o),
(472,-7,cs),
(632,-7,o),
(743,130,o),
(743,362,cs),
(743,578,o),
(606,710,o),
(396,710,cs)
);
},
{
closed = 1;
nodes = (
(426,56,o),
(376,81,o),
(325,107,c),
(349,155,o),
(364,215,o),
(373,278,c),
(408,284,o),
(441,295,o),
(471,310,cs),
(487,318,o),
(493,330,o),
(493,341,cs),
(493,357,o),
(481,371,o),
(462,371,cs),
(457,371,o),
(450,369,o),
(443,366,cs),
(423,357,o),
(402,350,o),
(379,344,c),
(381,363,o),
(381,383,o),
(382,402,c),
(404,408,o),
(425,416,o),
(444,426,cs),
(459,434,o),
(467,446,o),
(467,459,cs),
(467,475,o),
(454,487,o),
(437,487,cs),
(426,487,o),
(407,478,o),
(381,468,c),
(381,489,o),
(379,510,o),
(377,527,cs),
(375,548,o),
(359,560,o),
(342,560,cs),
(326,560,o),
(310,548,o),
(310,522,c),
(312,451,l),
(302,450,o),
(292,449,o),
(282,449,cs),
(226,449,o),
(192,476,o),
(192,523,cs),
(192,602,o),
(273,647,o),
(396,647,cs),
(570,647,o),
(673,547,o),
(673,362,cs),
(673,166,o),
(590,56,o),
(471,56,cs)
);
},
{
closed = 1;
nodes = (
(137,53,o),
(125,66,o),
(125,79,cs),
(125,92,o),
(137,104,o),
(162,104,cs),
(181,104,o),
(204,96,o),
(230,84,c),
(212,64,o),
(189,53,o),
(162,53,cs)
);
}
);
width = 746;
}
);
leftKerningGroup = D2;
rightKerningGroup = D;
unicode = 208;
},
{
glyphname = Ntilde;
layers = (
{
anchors = (
{
name = t.uni0302_2;
position = "{551, 700}";
},
{
name = b.uni0326_1_2;
position = "{503, 0}";
}
);
hints = (
{
horizontal = 1;
place = (-6,61);
type = Stem;
},
{
horizontal = 1;
place = (641,63);
type = Stem;
},
{
horizontal = 1;
place = (651,63);
type = Stem;
},
{
horizontal = 1;
place = (774,48);
type = Stem;
},
{
horizontal = 1;
place = (807,47);
type = Stem;
},
{
place = (258,65);
type = Stem;
},
{
place = (629,70);
type = Stem;
},
{
place = (645,70);
type = Stem;
}
);
layerId = "2F54779E-88EF-414D-815E-FD45B9A14596";
shapes = (
{
closed = 1;
nodes = (
(503,804,o),
(509,807,o),
(516,807,cs),
(543,807,o),
(566,774,o),
(607,774,cs),
(627,774,o),
(647,782,o),
(662,802,cs),
(669,811,o),
(671,819,o),
(671,827,cs),
(671,840,o),
(662,848,o),
(651,848,cs),
(644,848,o),
(636,844,o),
(629,836,cs),
(621,826,o),
(615,822,o),
(608,822,cs),
(583,822,o),
(561,854,o),
(517,854,cs),
(493,854,o),
(472,844,o),
(459,825,cs),
(453,817,o),
(450,808,o),
(450,801,cs),
(450,788,o),
(459,779,o),
(470,779,cs),
(477,779,o),
(485,783,o),
(492,791,cs)
);
},
{
closed = 1;
nodes = (
(791,117,o),
(763,55,o),
(732,55,cs),
(712,55,o),
(699,76,o),
(699,122,cs),
(699,156,o),
(715,428,o),
(715,495,cs),
(715,642,o),
(658,704,o),
(564,704,cs),
(459,704,o),
(380,606,o),
(323,440,c),
(311,630,o),
(255,714,o),
(156,714,cs),
(113,714,o),
(69,696,o),
(40,652,cs),
(32,640,o),
(26,624,o),
(26,614,cs),
(26,597,o),
(39,587,o),
(53,587,cs),
(64,587,o),
(76,592,o),
(84,605,cs),
(108,644,o),
(129,651,o),
(154,651,cs),
(228,651,o),
(258,543,o),
(258,310,cs),
(258,196,o),
(235,61,o),
(235,33,cs),
(235,8,o),
(251,-5,o),
(268,-5,cs),
(285,-5,o),
(302,8,o),
(305,36,cs),
(309,74,o),
(316,129,o),
(322,190,cs),
(346,433,o),
(455,641,o),
(559,641,cs),
(610,641,o),
(645,606,o),
(645,490,cs),
(645,389,o),
(629,186,o),
(629,121,cs),
(629,38,o),
(669,-6,o),
(725,-6,cs),
(800,-6,o),
(831,67,o),
(885,212,cs),
(887,217,o),
(888,222,o),
(888,227,cs),
(888,244,o),
(876,254,o),
(863,254,cs),
(853,254,o),
(843,248,o),
(837,233,cs)
);
}
);
width = 804;
}
);
leftKerningGroup = M;
rightKerningGroup = A;
unicode = 209;
},
{
glyphname = Ograve;
layers = (
{
anchors = (
{
name = t.uni0302_2;
position = "{455, 700}";
}
);
hints = (
{
horizontal = 1;
place = (-7,63);
type = Stem;
},
{
horizontal = 1;
place = (62,61);
type = Stem;
},
{
horizontal = 1;
place = (648,63);
type = Stem;
},
{
place = (107,70);
type = Stem;
},
{
place = (257,68);
type = Stem;
},
{
place = (584,70);
type = Stem;
}
);
layerId = "2F54779E-88EF-414D-815E-FD45B9A14596";
shapes = (
{
closed = 1;
nodes = (
(437,777,ls),
(446,768,o),
(455,764,o),
(463,764,cs),
(477,764,o),
(487,774,o),
(487,788,cs),
(487,796,o),
(484,805,o),
(475,814,cs),
(415,877,ls),
(406,887,o),
(397,891,o),
(389,891,cs),
(375,891,o),
(365,880,o),
(365,866,cs),
(365,858,o),
(369,849,o),
(377,840,cs)
);
},
{
closed = 1;
nodes = (
(693,160,o),
(639,128,o),
(581,123,c),
(625,193,o),
(654,292,o),
(654,420,cs),
(654,602,o),
(575,711,o),
(452,711,cs),
(417,711,o),
(381,698,o),
(349,670,c),
(346,682,o),
(335,689,o),
(319,689,cs),
(309,689,o),
(299,687,o),
(288,682,cs),
(191,638,o),
(107,482,o),
(107,312,cs),
(107,116,o),
(210,-7,o),
(368,-7,cs),
(426,-7,o),
(484,16,o),
(533,63,c),
(542,63,o),
(551,62,o),
(560,62,cs),
(652,62,o),
(733,115,o),
(770,212,cs),
(772,217,o),
(773,221,o),
(773,226,cs),
(773,242,o),
(760,254,o),
(747,254,cs),
(738,254,o),
(728,248,o),
(722,233,cs)
);
},
{
closed = 1;
nodes = (
(534,648,o),
(584,563,o),
(584,423,cs),
(584,286,o),
(551,190,o),
(505,131,c),
(411,161,o),
(325,261,o),
(325,415,cs),
(325,563,o),
(379,648,o),
(456,648,cs)
);
},
{
closed = 1;
nodes = (
(251,56,o),
(177,151,o),
(177,310,cs),
(177,443,o),
(229,564,o),
(302,611,c),
(275,563,o),
(257,497,o),
(257,412,cs),
(257,243,o),
(348,129,o),
(455,84,c),
(427,65,o),
(398,56,o),
(369,56,cs)
);
}
);
width = 689;
}
);
leftKerningGroup = O;
rightKerningGroup = A;
unicode = 210;
},
{
glyphname = Oacute;
layers = (
{
anchors = (
{
name = t.uni0302_2;
position = "{455, 700}";
}
);
hints = (
{
horizontal = 1;
place = (-7,63);
type = Stem;
},
{
horizontal = 1;
place = (62,61);
type = Stem;
},
{
horizontal = 1;
place = (648,63);
type = Stem;
},
{
place = (107,70);
type = Stem;
},
{
place = (257,68);
type = Stem;
},
{
place = (584,70);
type = Stem;
}
);
layerId = "2F54779E-88EF-414D-815E-FD45B9A14596";
shapes = (
{
closed = 1;
nodes = (
(536,840,ls),
(544,849,o),
(548,858,o),
(548,866,cs),
(548,880,o),
(538,891,o),
(524,891,cs),
(516,891,o),
(507,887,o),
(498,877,cs),
(438,814,ls),
(429,805,o),
(426,796,o),
(426,788,cs),
(426,774,o),
(436,764,o),
(450,764,cs),
(458,764,o),
(467,768,o),
(476,777,cs)
);
},
{
closed = 1;
nodes = (
(693,160,o),
(639,128,o),
(581,123,c),
(625,193,o),
(654,292,o),
(654,420,cs),
(654,602,o),
(575,711,o),
(452,711,cs),
(417,711,o),
(381,698,o),
(349,670,c),
(346,682,o),
(335,689,o),
(319,689,cs),
(309,689,o),
(299,687,o),
(288,682,cs),
(191,638,o),
(107,482,o),
(107,312,cs),
(107,116,o),
(210,-7,o),
(368,-7,cs),
(426,-7,o),
(484,16,o),
(533,63,c),
(542,63,o),
(551,62,o),
(560,62,cs),
(652,62,o),
(733,115,o),
(770,212,cs),
(772,217,o),
(773,221,o),
(773,226,cs),
(773,242,o),
(760,254,o),
(747,254,cs),
(738,254,o),
(728,248,o),
(722,233,cs)
);
},
{
closed = 1;
nodes = (
(534,648,o),
(584,563,o),
(584,423,cs),
(584,286,o),
(551,190,o),
(505,131,c),
(411,161,o),
(325,261,o),
(325,415,cs),
(325,563,o),
(379,648,o),
(456,648,cs)
);
},
{
closed = 1;
nodes = (
(251,56,o),
(177,151,o),
(177,310,cs),
(177,443,o),
(229,564,o),
(302,611,c),
(275,563,o),
(257,497,o),
(257,412,cs),
(257,243,o),
(348,129,o),
(455,84,c),
(427,65,o),
(398,56,o),
(369,56,cs)
);
}
);
width = 689;
}
);
leftKerningGroup = O;
rightKerningGroup = A;
unicode = 211;
},
{
glyphname = Ocircumflex;
layers = (
{
anchors = (
{
name = t.uni0302_2;
position = "{455, 700}";
}
);
hints = (
{
horizontal = 1;
place = (-7,63);
type = Stem;
},
{
horizontal = 1;
place = (62,61);
type = Stem;
},
{
horizontal = 1;
place = (648,63);
type = Stem;
},
{
place = (107,70);
type = Stem;
},
{
place = (257,68);
type = Stem;
},
{
place = (584,70);
type = Stem;
}
);
layerId = "2F54779E-88EF-414D-815E-FD45B9A14596";
shapes = (
{
closed = 1;
nodes = (
(451,807,ls),
(458,812,o),
(464,815,o),
(469,815,cs),
(474,815,o),
(479,812,o),
(484,806,cs),
(512,775,ls),
(520,766,o),
(529,762,o),
(537,762,cs),
(551,762,o),
(562,773,o),
(562,787,cs),
(562,795,o),
(559,802,o),
(552,810,cs),
(495,875,ls),
(489,881,o),
(485,884,o),
(479,884,cs),
(474,884,o),
(469,882,o),
(463,878,cs),
(374,818,ls),
(361,809,o),
(356,799,o),
(356,790,cs),
(356,777,o),
(367,766,o),
(381,766,cs),
(388,766,o),
(395,768,o),
(402,773,cs)
);
},
{
closed = 1;
nodes = (
(693,160,o),
(639,128,o),
(581,123,c),
(625,193,o),
(654,292,o),
(654,420,cs),
(654,602,o),
(575,711,o),
(452,711,cs),
(417,711,o),
(381,698,o),
(349,670,c),
(346,682,o),
(335,689,o),
(319,689,cs),
(309,689,o),
(299,687,o),
(288,682,cs),
(191,638,o),
(107,482,o),
(107,312,cs),
(107,116,o),
(210,-7,o),
(368,-7,cs),
(426,-7,o),
(484,16,o),
(533,63,c),
(542,63,o),
(551,62,o),
(560,62,cs),
(652,62,o),
(733,115,o),
(770,212,cs),
(772,217,o),
(773,221,o),
(773,226,cs),
(773,242,o),
(760,254,o),
(747,254,cs),
(738,254,o),
(728,248,o),
(722,233,cs)
);
},
{
closed = 1;
nodes = (
(534,648,o),
(584,563,o),
(584,423,cs),
(584,286,o),
(551,190,o),
(505,131,c),
(411,161,o),
(325,261,o),
(325,415,cs),
(325,563,o),
(379,648,o),
(456,648,cs)
);
},
{
closed = 1;
nodes = (
(251,56,o),
(177,151,o),
(177,310,cs),
(177,443,o),
(229,564,o),
(302,611,c),
(275,563,o),
(257,497,o),
(257,412,cs),
(257,243,o),
(348,129,o),
(455,84,c),
(427,65,o),
(398,56,o),
(369,56,cs)
);
}
);
width = 689;
}
);
leftKerningGroup = O;
rightKerningGroup = A;
unicode = 212;
},
{
glyphname = Otilde;
layers = (
{
anchors = (
{
name = t.uni0302_2;
position = "{455, 700}";
}
);
hints = (
{
horizontal = 1;
place = (-7,63);
type = Stem;
},
{
horizontal = 1;
place = (62,61);
type = Stem;
},
{
horizontal = 1;
place = (648,63);
type = Stem;
},
{
horizontal = 1;
place = (774,48);
type = Stem;
},
{
horizontal = 1;
place = (807,47);
type = Stem;
},
{
place = (107,70);
type = Stem;
},
{
place = (257,68);
type = Stem;
},
{
place = (584,70);
type = Stem;
}
);
layerId = "2F54779E-88EF-414D-815E-FD45B9A14596";
shapes = (
{
closed = 1;
nodes = (
(407,804,o),
(413,807,o),
(420,807,cs),
(447,807,o),
(470,774,o),
(511,774,cs),
(531,774,o),
(551,782,o),
(566,802,cs),
(573,811,o),
(575,819,o),
(575,827,cs),
(575,840,o),
(566,848,o),
(555,848,cs),
(548,848,o),
(540,844,o),
(533,836,cs),
(525,826,o),
(519,822,o),
(512,822,cs),
(487,822,o),
(465,854,o),
(421,854,cs),
(397,854,o),
(376,844,o),
(363,825,cs),
(357,817,o),
(354,808,o),
(354,801,cs),
(354,788,o),
(363,779,o),
(374,779,cs),
(381,779,o),
(389,783,o),
(396,791,cs)
);
},
{
closed = 1;
nodes = (
(693,160,o),
(639,128,o),
(581,123,c),
(625,193,o),
(654,292,o),
(654,420,cs),
(654,602,o),
(575,711,o),
(452,711,cs),
(417,711,o),
(381,698,o),
(349,670,c),
(346,682,o),
(335,689,o),
(319,689,cs),
(309,689,o),
(299,687,o),
(288,682,cs),
(191,638,o),
(107,482,o),
(107,312,cs),
(107,116,o),
(210,-7,o),
(368,-7,cs),
(426,-7,o),
(484,16,o),
(533,63,c),
(542,63,o),
(551,62,o),
(560,62,cs),
(652,62,o),
(733,115,o),
(770,212,cs),
(772,217,o),
(773,221,o),
(773,226,cs),
(773,242,o),
(760,254,o),
(747,254,cs),
(738,254,o),
(728,248,o),
(722,233,cs)
);
},
{
closed = 1;
nodes = (
(534,648,o),
(584,563,o),
(584,423,cs),
(584,286,o),
(551,190,o),
(505,131,c),
(411,161,o),
(325,261,o),
(325,415,cs),
(325,563,o),
(379,648,o),
(456,648,cs)
);
},
{
closed = 1;
nodes = (
(251,56,o),
(177,151,o),
(177,310,cs),
(177,443,o),
(229,564,o),
(302,611,c),
(275,563,o),
(257,497,o),
(257,412,cs),
(257,243,o),
(348,129,o),
(455,84,c),
(427,65,o),
(398,56,o),
(369,56,cs)
);
}
);
width = 689;
}
);
leftKerningGroup = O;
rightKerningGroup = A;
unicode = 213;
},
{
glyphname = Odieresis;
layers = (
{
anchors = (
{
name = t.uni0302_2;
position = "{455, 700}";
}
);
hints = (
{
horizontal = 1;
place = (-7,63);
type = Stem;
},
{
horizontal = 1;
place = (62,61);
type = Stem;
},
{
horizontal = 1;
place = (648,63);
type = Stem;
},
{
horizontal = 1;
place = (769,70);
type = Stem;
},
{
place = (107,70);
type = Stem;
},
{
place = (257,68);
type = Stem;
},
{
place = (370,69);
type = Stem;
},
{
place = (493,69);
type = Stem;
},
{
place = (584,70);
type = Stem;
}
);
layerId = "2F54779E-88EF-414D-815E-FD45B9A14596";
shapes = (
{
closed = 1;
nodes = (
(424,769,o),
(439,785,o),
(439,804,cs),
(439,823,o),
(424,839,o),
(405,839,cs),
(385,839,o),
(370,823,o),
(370,804,cs),
(370,785,o),
(385,769,o),
(405,769,cs)
);
},
{
closed = 1;
nodes = (
(547,769,o),
(562,785,o),
(562,804,cs),
(562,823,o),
(547,839,o),
(528,839,cs),
(508,839,o),
(493,823,o),
(493,804,cs),
(493,785,o),
(508,769,o),
(528,769,cs)
);
},
{
closed = 1;
nodes = (
(693,160,o),
(639,128,o),
(581,123,c),
(625,193,o),
(654,292,o),
(654,420,cs),
(654,602,o),
(575,711,o),
(452,711,cs),
(417,711,o),
(381,698,o),
(349,670,c),
(346,682,o),
(335,689,o),
(319,689,cs),
(309,689,o),
(299,687,o),
(288,682,cs),
(191,638,o),
(107,482,o),
(107,312,cs),
(107,116,o),
(210,-7,o),
(368,-7,cs),
(426,-7,o),
(484,16,o),
(533,63,c),
(542,63,o),
(551,62,o),
(560,62,cs),
(652,62,o),
(733,115,o),
(770,212,cs),
(772,217,o),
(773,221,o),
(773,226,cs),
(773,242,o),
(760,254,o),
(747,254,cs),
(738,254,o),
(728,248,o),
(722,233,cs)
);
},
{
closed = 1;
nodes = (
(534,648,o),
(584,563,o),
(584,423,cs),
(584,286,o),
(551,190,o),
(505,131,c),
(411,161,o),
(325,261,o),
(325,415,cs),
(325,563,o),
(379,648,o),
(456,648,cs)
);
},
{
closed = 1;
nodes = (
(251,56,o),
(177,151,o),
(177,310,cs),
(177,443,o),
(229,564,o),
(302,611,c),
(275,563,o),
(257,497,o),
(257,412,cs),
(257,243,o),
(348,129,o),
(455,84,c),
(427,65,o),
(398,56,o),
(369,56,cs)
);
}
);
width = 689;
}
);
leftKerningGroup = O;
rightKerningGroup = A;
unicode = 214;
},
{
glyphname = multiply;
layers = (
{
hints = (
{
horizontal = 1;
place = (223,231);
type = Stem;
},
{
place = (71,235);
type = Stem;
}
);
layerId = "2F54779E-88EF-414D-815E-FD45B9A14596";
shapes = (
{
closed = 1;
nodes = (
(230,341,l),
(292,402,ls),
(299,409,o),
(302,417,o),
(302,425,cs),
(302,441,o),
(289,454,o),
(273,454,cs),
(266,454,o),
(258,451,o),
(251,444,cs),
(189,382,l),
(129,441,ls),
(122,448,o),
(114,451,o),
(107,451,cs),
(91,451,o),
(78,438,o),
(78,422,cs),
(78,414,o),
(81,406,o),
(88,399,cs),
(147,341,l),
(81,275,ls),
(74,268,o),
(71,260,o),
(71,252,cs),
(71,236,o),
(84,223,o),
(100,223,cs),
(107,223,o),
(115,226,o),
(122,233,cs),
(189,299,l),
(255,234,ls),
(262,227,o),
(270,224,o),
(277,224,cs),
(293,224,o),
(306,238,o),
(306,253,cs),
(306,261,o),
(303,269,o),
(296,276,cs)
);
}
);
width = 349;
}
);
unicode = 215;
},
